/* XPM */
static char *_e406cfa47764e99b0521d11ccc4e58aIuiEkH1an3IHgvvY[] = {
/* columns rows colors chars-per-pixel */
"60 60 231 2 ",
"   c None",
".  c #020202",
"X  c #0B0B06",
"o  c #060609",
"O  c #07090A",
"+  c #0A0A0C",
"@  c #0A0604",
"#  c #110E0A",
"$  c #180B06",
"%  c #1C140D",
"&  c #1B1509",
"*  c #0B0C11",
"=  c #030A10",
"-  c #110F12",
";  c #0D1415",
":  c #131315",
">  c #161A14",
",  c #1B1A13",
"<  c #15161A",
"1  c #171A1B",
"2  c #1A1B1D",
"3  c #191518",
"4  c #261708",
"5  c #211312",
"6  c #291C13",
"7  c #271B18",
"8  c #36181A",
"9  c #2D0C10",
"0  c #1F231F",
"q  c #36220E",
"w  c #2A2419",
"e  c #3E2B16",
"r  c #372717",
"t  c #3F301B",
"y  c #1D1E22",
"u  c #2C1D26",
"i  c #1E2025",
"p  c #212224",
"a  c #24242A",
"s  c #2A2A2D",
"d  c #2A2826",
"f  c #352A26",
"g  c #373529",
"h  c #2B2C32",
"j  c #252A31",
"k  c #2E3139",
"l  c #333335",
"z  c #33353C",
"x  c #36383E",
"c  c #3A3A3F",
"v  c #3A3B36",
"b  c #2E302F",
"n  c #54151D",
"m  c #432B1A",
"M  c #44331C",
"N  c #4C371D",
"B  c #533A1D",
"V  c #591621",
"C  c #721D2D",
"Z  c #452926",
"A  c #483A26",
"S  c #583C24",
"D  c #443A37",
"F  c #582E31",
"G  c #643836",
"H  c #6E3434",
"J  c #3D4231",
"K  c #58462A",
"L  c #474339",
"P  c #554737",
"I  c #4E4B2B",
"U  c #654A29",
"Y  c #69512D",
"T  c #694E34",
"R  c #6B5C36",
"E  c #755537",
"W  c #754B33",
"Q  c #7D693D",
"!  c #3C3C42",
"~  c #373941",
"^  c #413D46",
"/  c #7A3B49",
"(  c #3F4042",
")  c #424344",
"_  c #4B4D4D",
"`  c #474646",
"'  c #4E524A",
"]  c #58564C",
"[  c #4D4D51",
"{  c #585656",
"}  c #524B4A",
"|  c #7D534B",
" . c #6D5346",
".. c #796855",
"X. c #757050",
"o. c #5F6467",
"O. c #646464",
"+. c #6A6A6B",
"@. c #696866",
"#. c #776C65",
"$. c #79776A",
"%. c #6E7077",
"&. c #747473",
"*. c #7D7A78",
"=. c #6F706E",
"-. c #951833",
";. c #8A3F3C",
":. c #AF203B",
">. c #CC0333",
",. c #8B5E1D",
"<. c #835C36",
"1. c #8B4F30",
"2. c #86613A",
"3. c #A06534",
"4. c #923949",
"5. c #97494B",
"6. c #90554A",
"7. c #A85D5E",
"8. c #B95555",
"9. c #A5504E",
"0. c #846D44",
"q. c #8A7949",
"w. c #866258",
"e. c #957154",
"r. c #A96157",
"t. c #B7665B",
"y. c #B37254",
"u. c #BE5F61",
"i. c #857A67",
"p. c #917570",
"a. c #A86C67",
"s. c #BB7264",
"d. c #BA716A",
"f. c #C8685E",
"g. c #C57A6A",
"h. c #7E807F",
"j. c #94834E",
"k. c #9E8E59",
"l. c #A8965D",
"z. c #8A8779",
"x. c #958B79",
"c. c #9A8F6F",
"v. c #B9866A",
"b. c #A89964",
"n. c #AA9678",
"m. c #B59978",
"M. c #A8896F",
"N. c #ACA172",
"B. c #D68876",
"V. c #D2967A",
"C. c #E69C7D",
"Z. c #CCB876",
"A. c #D2A96D",
"S. c #7F7D84",
"D. c #807F80",
"F. c #8B8A86",
"G. c #938D84",
"H. c #989387",
"J. c #8E8E91",
"K. c #9C9C9B",
"L. c #989794",
"P. c #A39C8C",
"I. c #A49B83",
"U. c #A39E94",
"Y. c #B09B82",
"T. c #ABA188",
"R. c #B6A788",
"E. c #A3A29D",
"W. c #A9A499",
"Q. c #BDAE94",
"!. c #B5AC9B",
"~. c #B4A994",
"^. c #BAB498",
"/. c #A8A8A4",
"(. c #B2AAA3",
"). c #BDB6A8",
"_. c #B7B8B8",
"`. c #AEB1AA",
"'. c #90A793",
"]. c #C99685",
"[. c #E49B84",
"{. c #C6BA9B",
"}. c #C9AF8B",
"|. c #E4A993",
" X c #EAAD91",
".X c #C3B6A1",
"XX c #C6BBA6",
"oX c #C4BDB3",
"OX c #C5BFB9",
"+X c #DEBBAD",
"@X c #F9BEA3",
"#X c #D2C296",
"$X c #CDC5A5",
"%X c #C8C4AC",
"&X c #D2C8AA",
"*X c #C9C5B6",
"=X c #D2CABC",
"-X c #D5CBB4",
";X c #DAD4BC",
":X c #D7D2B8",
">X c #CDD2BA",
",X c #F5CBA3",
"<X c #FDD9A7",
"1X c #E5D8B8",
"2X c #FDDBB5",
"3X c #E8CDB1",
"4X c #FFE3BB",
"5X c #EDE5B6",
"6X c #CDCECC",
"7X c #C9C7C4",
"8X c #D4CDC1",
"9X c #DDCFC6",
"0X c #DBD3C3",
"qX c #D3D0CA",
"wX c #DBD9CD",
"eX c #DCDBD7",
"rX c #E2DCC1",
"tX c #E3DCCA",
"yX c #E9DEC8",
"uX c #E0DAD1",
"iX c #E9E3CD",
"pX c #FCE6C7",
"aX c #E9E6D7",
"sX c #F2ECD7",
"dX c #F7F3D9",
"fX c #F6F1C9",
"gX c #E8E7E1",
"hX c #F2EDE6",
"jX c #F8F4E8",
"kX c #FCFDFD",
"lX c #FFFFF2",
/* pixels */
"                                                                                                                        ",
"                                                                                                                        ",
"                                                                                                                        ",
"                                                                                                                        ",
"                                                                                          wX                            ",
"                                                                                        fXeXjX    1X                    ",
"                                                                                  dXlX1X#XdXgXdXlX;X5X                  ",
"                                                                                iXgXjX0X1X5XhX^.iX;X.X:X                ",
"                                                                                dXaX>X-X0XwX^.m.$X0XrX&X                ",
"                                                                              =XaX&X{.iX1X-X}.&XiXtX:XuX*XiX            ",
"                                                                            (.aX^.{.%Xw.a.$.O.^.iX{.-XjX-XaX            ",
"                                                                          fXsXhX-XR.g n -.; : L I.D ] $Xi.%X            ",
"                                                                          &XrXR.N.D V :.>.-.C 7 b > A c.P.#X            ",
"                                                                            -X;Xd ; 7 n C 9 8 w 2 s w ' rX              ",
"                                                                            8XkXd 0 J ~.:Xa.M.>XXXr.X.` lXwXc.          ",
"                                                                          {.aXaX] T.sX*X..;.v.:XXXB.i.' ~.x.=X          ",
"                                                                          :X;X&X$X$XW.n.f < m m.R.W 6 ^.L.).            ",
"                                                                            U.^.$.P ..}.3X'.I n.,XJ > H.jXI.            ",
"                                                                              yX] 5 [.v.pX5X<X2X<Xv.@ $.1X              ",
"                                                                              0X6Xv 8 | 3X+X,X,Xd.G /.1X                ",
"                                                                              -X%X] l t |.yXjX9Xa.$ *X&X                ",
"                                                                                1Xz.v 8 t. X1X].Z [ 1X                  ",
"                                                                              .XeX0 $ C 8.f.G % X _.iX                  ",
"                                                                            .X_ - ~ z u C 5.8.Z + + l $X                ",
"                                                                          !.[ 2 l %.z 3 7 H 8.y.N > > ! {.              ",
"                                                                          h.: ~ ! x 1 r ,.A.4Xg.3.w h . =.~.            ",
"                                                                        ~.c 2 ! s p * D Y m.pX].6.B 1 0 x W.            ",
"                                                                        K.. l x y + o y j x.pX2X7.y.U > O v {.          ",
"                                                                      !.s p ) ^ l . O 1 + 6.C.s.t.5.B U r #.T.          ",
"                                                                      `.. z z z h K.5 / H 9.C.|.B.V.6.f @ L.            ",
"                                                                      K.G w.2 > oXwXf 5.B.@X[.V.r.B.5.: # z.x.          ",
"                                                          T.qX      .XP 2X[.9 _.    K.8 9.s. X|.g.[.r.Z [...U.          ",
"                                                        T.*.. !.    _.L 4Xa.D !.  G.1 $ 5.B.[.t.4.9.G % m.| O.T.        ",
"                                                        P.&.. : 0X  i. . X9 /.  gXS.p : Z / p.v.y.y.d g e.E 5 p.        ",
"                                                        P.+.. , kXgX5 B.;.} eX_.J.F.+ z ! k s q.j.0.Y B K X.6.6.x.c.    ",
"                                                    ^.!.}.I.l # =.@.e.2Xy.#.*.w . . % K T P 0.b.Y S A , w E 9.@Xv =X    ",
"                                                XX^.&.+.I.jX_ % . 6 V.w.[.8 . % + # N 2.W M q.q.A w : p = G u.7.d ;X    ",
"                                            Q.=XO.) o o i _.qXb , g 3X..8 F 8 J._./.7 L D b L ` > + + s - F G 5 P.      ",
"                                          0XO.~ - : z z y 3 7Xc + + f G 6.F L.  wX[ y ! ! ! ! h + . : a y @ *.6X        ",
"                                      0X&.a h a z a z z ~ : + w # . 6 5.F P.    ).p x ^ ! ! ! + . - p a p . E.          ",
"                                  8XF.1 h h z ~ z z z z z s . d g . f 7 G.A.  :X( y ~ ! ! ^ h s . + a a p . K.          ",
"                              %XE.< i z z z z l z h p z p : + # # L X ) {.,.  ).a l { x ~ ) . _.*.+ 2 y s . E.).        ",
"                          ~./.1 * x z z z z z z z h 2 : + o + . D.6XX . J.  !._ - X.b.P L y ! ^.jXp + 2 a + { /.%X      ",
"                      T.J.l * a p l z z z l z x s * + + : 1 : + J.gX@.> _ H.}.g O R R A g . /.A.1Xh 2 a a y . & I dX    ",
"                XX~.*.` * k ! z h l z z z x h < + + : y y y y + + kX7XX . K.i.q S U U 4 6 . K.iX#.* 3 a y 7 % X.{.      ",
"            {.XX+.[ ; h ! z z z h z z z h 1 + + 3 y i i y y p 3 + &._.. . J.6XP E 2.<.K 4 #.x.qX} & , 3 : w M 6 tX      ",
"          Q.+.( y a ! z l z z z p z h < + + : y p y y y y p : + o s hXF.O G.kX) q E <.E $ U.  ~.] q r # 6 M % F.        ",
"        Q.O.* < ~ ~ l z l z z z y 1 + + 3 y < 2 y y p p 2 + < d *X$X    qX  .X) $ B E & O.U.    oXd q w M 4 F.          ",
"      Q.O.y s z z z z z z l h 2 o + 3 y i y : : 2 p 2 o y l W.0X          ~.O.@ Y E q o H.      .X` r m N @ /.          ",
"    Y.@.* z z k l z x z h 2 o + 3 y y y y : - < : . 3 _ G.8X              (.+.4 <.U : *.n.        8Xf e M $ =.x.        ",
"    `.. z z k i z z h 2 + + < y i y y y 2 < 3 . o O.z.*X                  P.) S Y $ _ ;X          8X2 e e q & &.`.      ",
"  I.{ i ~ z l a s 2 + + : 2 i y y i 2 2 1 . . +.G..X                      G.$ Q Y w p P.          8X2 e M e R K & F.    ",
"  ).. s z ~ h * + + : y < < y p y 1 < O . O.K.R.                        P. .q.b.b.k.r { ).        7X7 m M e Y k.j.L tX  ",
"  `.o p a 1 + + 3 y i i < : 3 3 : + . _ _.x.                            J.r Z.Z.Z.Z.Q z.W.        7X: 4 6 r e M t g =X  ",
"  `.. 2 o O : 2 2 y y p 1 + + * o x *XI.                                E.4 2.q.0.Y w &.W.        yX7XOX*X=X=X*XoX7XyX  ",
"  ).o . : i p p 2 < : + O : < a =X!.                                    gX*X0X0X0X=XOXeXP.                              ",
"    H.a < * * + . . : h s U.qXXX                                                                                        ",
"      qX$.( ) ) ) ( *.8X8X                                                                                              ",
"          *XoXoXoX*X                                                                                                    ",
"                                                                                                                        "
};
