/* XPM */
static char *_ba1f286b0d34688b4dad6bf7cb4fe9a4gvKdb93djeKvdkI[] = {
/* columns rows colors chars-per-pixel */
"60 60 231 2 ",
"   c None",
".  c #020202",
"X  c #0B0B06",
"o  c #060609",
"O  c #07090A",
"+  c #0A0A0C",
"@  c #0A0604",
"#  c #110E0A",
"$  c #180B06",
"%  c #1C140D",
"&  c #1B1509",
"*  c #0B0C11",
"=  c #030A10",
"-  c #110F12",
";  c #0D1415",
":  c #131315",
">  c #161A14",
",  c #1B1A13",
"<  c #15161A",
"1  c #171A1B",
"2  c #1A1B1D",
"3  c #191518",
"4  c #261708",
"5  c #211312",
"6  c #291C13",
"7  c #271B18",
"8  c #36181A",
"9  c #2D0C10",
"0  c #1F231F",
"q  c #36220E",
"w  c #2A2419",
"e  c #3E2B16",
"r  c #372717",
"t  c #3F301B",
"y  c #1D1E22",
"u  c #2C1D26",
"i  c #1E2025",
"p  c #212224",
"a  c #24242A",
"s  c #2A2A2D",
"d  c #2A2826",
"f  c #352A26",
"g  c #373529",
"h  c #2B2C32",
"j  c #252A31",
"k  c #2E3139",
"l  c #333335",
"z  c #33353C",
"x  c #36383E",
"c  c #3A3A3F",
"v  c #3A3B36",
"b  c #2E302F",
"n  c #54151D",
"m  c #432B1A",
"M  c #44331C",
"N  c #4C371D",
"B  c #533A1D",
"V  c #591621",
"C  c #721D2D",
"Z  c #452926",
"A  c #483A26",
"S  c #583C24",
"D  c #443A37",
"F  c #582E31",
"G  c #643836",
"H  c #6E3434",
"J  c #3D4231",
"K  c #58462A",
"L  c #474339",
"P  c #554737",
"I  c #4E4B2B",
"U  c #654A29",
"Y  c #69512D",
"T  c #694E34",
"R  c #6B5C36",
"E  c #755537",
"W  c #754B33",
"Q  c #7D693D",
"!  c #3C3C42",
"~  c #373941",
"^  c #413D46",
"/  c #7A3B49",
"(  c #3F4042",
")  c #424344",
"_  c #4B4D4D",
"`  c #474646",
"'  c #4E524A",
"]  c #58564C",
"[  c #4D4D51",
"{  c #585656",
"}  c #524B4A",
"|  c #7D534B",
" . c #6D5346",
".. c #796855",
"X. c #757050",
"o. c #5F6467",
"O. c #646464",
"+. c #6A6A6B",
"@. c #696866",
"#. c #776C65",
"$. c #79776A",
"%. c #6E7077",
"&. c #747473",
"*. c #7D7A78",
"=. c #6F706E",
"-. c #951833",
";. c #8A3F3C",
":. c #AF203B",
">. c #CC0333",
",. c #8B5E1D",
"<. c #835C36",
"1. c #8B4F30",
"2. c #86613A",
"3. c #A06534",
"4. c #923949",
"5. c #97494B",
"6. c #90554A",
"7. c #A85D5E",
"8. c #B95555",
"9. c #A5504E",
"0. c #846D44",
"q. c #8A7949",
"w. c #866258",
"e. c #957154",
"r. c #A96157",
"t. c #B7665B",
"y. c #B37254",
"u. c #BE5F61",
"i. c #857A67",
"p. c #917570",
"a. c #A86C67",
"s. c #BB7264",
"d. c #BA716A",
"f. c #C8685E",
"g. c #C57A6A",
"h. c #7E807F",
"j. c #94834E",
"k. c #9E8E59",
"l. c #A8965D",
"z. c #8A8779",
"x. c #958B79",
"c. c #9A8F6F",
"v. c #B9866A",
"b. c #A89964",
"n. c #AA9678",
"m. c #B59978",
"M. c #A8896F",
"N. c #ACA172",
"B. c #D68876",
"V. c #D2967A",
"C. c #E69C7D",
"Z. c #CCB876",
"A. c #D2A96D",
"S. c #7F7D84",
"D. c #807F80",
"F. c #8B8A86",
"G. c #938D84",
"H. c #989387",
"J. c #8E8E91",
"K. c #9C9C9B",
"L. c #989794",
"P. c #A39C8C",
"I. c #A49B83",
"U. c #A39E94",
"Y. c #B09B82",
"T. c #ABA188",
"R. c #B6A788",
"E. c #A3A29D",
"W. c #A9A499",
"Q. c #BDAE94",
"!. c #B5AC9B",
"~. c #B4A994",
"^. c #BAB498",
"/. c #A8A8A4",
"(. c #B2AAA3",
"). c #BDB6A8",
"_. c #B7B8B8",
"`. c #AEB1AA",
"'. c #90A793",
"]. c #C99685",
"[. c #E49B84",
"{. c #C6BA9B",
"}. c #C9AF8B",
"|. c #E4A993",
" X c #EAAD91",
".X c #C3B6A1",
"XX c #C6BBA6",
"oX c #C4BDB3",
"OX c #C5BFB9",
"+X c #DEBBAD",
"@X c #F9BEA3",
"#X c #D2C296",
"$X c #CDC5A5",
"%X c #C8C4AC",
"&X c #D2C8AA",
"*X c #C9C5B6",
"=X c #D2CABC",
"-X c #D5CBB4",
";X c #DAD4BC",
":X c #D7D2B8",
">X c #CDD2BA",
",X c #F5CBA3",
"<X c #FDD9A7",
"1X c #E5D8B8",
"2X c #FDDBB5",
"3X c #E8CDB1",
"4X c #FFE3BB",
"5X c #EDE5B6",
"6X c #CDCECC",
"7X c #C9C7C4",
"8X c #D4CDC1",
"9X c #DDCFC6",
"0X c #DBD3C3",
"qX c #D3D0CA",
"wX c #DBD9CD",
"eX c #DCDBD7",
"rX c #E2DCC1",
"tX c #E3DCCA",
"yX c #E9DEC8",
"uX c #E0DAD1",
"iX c #E9E3CD",
"pX c #FCE6C7",
"aX c #E9E6D7",
"sX c #F2ECD7",
"dX c #F7F3D9",
"fX c #F6F1C9",
"gX c #E8E7E1",
"hX c #F2EDE6",
"jX c #F8F4E8",
"kX c #FCFDFD",
"lX c #FFFFF2",
/* pixels */
"                                                                                                                        ",
"                                                                                                                        ",
"                                                                                                                        ",
"                                                                                                                        ",
"                            wX                                                                                          ",
"                    1X    jXeXfX                                                                                        ",
"                  5X;XlXdXgXdX#X1XlXdX                                                                                  ",
"                ;X.X;XiX^.hX5X1X0XjXgXiX                                                                                ",
"                &XrX0X$Xn.^.wX;X-X>XaXdX                                                                                ",
"            iX%XuX;XtXiX&X}.-X;XrX{.&XaX=X                                                                              ",
"            aX-XjX:X{.iX^.O.$.a.w.%X{.^.aX(.                                                                            ",
"            %Xi.$X] A I.L : ; -.n g R.-XhXsXfX                                                                          ",
"            $XP.c.A > b 7 C -.>.:.V D N.R.rX&X                                                                          ",
"              rX' w s 2 w 8 9 C n 7 ; f ;X-X                                                                            ",
"          c.wXlX` X.7..X>XM.a.:X!.J 0 d kX8X                                                                            ",
"          =Xx.~.' i.B.XX:Xv.1...*XsXT.] aXaX{.                                                                          ",
"            ).L.^.6 W R.m.m < f n.W.$X$X&X;X:X                                                                          ",
"            I.jXH., J ,Xn.I '.3X}...P $.^.U.                                                                            ",
"              1X$.@ v.<X2X<X5XpXv.[., ] yX                                                                              ",
"                1X/.G d.,X,X+X3X| 8 v 6X0X                                                                              ",
"                &X*X$ a.9XjXyX|.e l ] %X-X                                                                              ",
"                  1X[ Z ].1X Xt.8 v z.rX                                                                                ",
"                  iX_.O % G f.8.C $ 0 eX.X                                                                              ",
"                $Xl + + Z 8.5.C 8 x ~ : _ .X                                                                            ",
"              {.c : , N f.8.H w 3 z %.z 2 [ !.                                                                          ",
"            ~.=.. j w 3.g.4XA.,.r < c ! ! : h.                                                                          ",
"            W.x 2 1 B 6.].pXm.Y D * p s ! 2 c ~.                                                                        ",
"          {.v O > U y.7.2XpXx.j y o + 2 c l . K.                                                                        ",
"          T.#.r U B 5.t.s.C.6.+ , O . l ^ ( p s !.                                                                      ",
"            L.@ f 6.V.B.|.C.9.H / 5 K.h z l l . `.                                                                      ",
"          x.z.# : 5.B.r.V.[.@XB.5.f wXoX, 2 w.G K.                                                                      ",
"          K...[.Z r.[.g.|. Xs.9.8 K.    _.9 [.2XP ).      qXT.                                                          ",
"        I.o.| m.% G 9.4.t.[.B.5.$ 1 H.  ~.D a.4XD _.    !.. *.T.                                                        ",
"        p.5 E e.g d y.y.v.p./ Z : d D.gX  /.9  XW *.  0X: . &.P.                                                        ",
"    c.x.| 6.X.K B Y 0.j.q.s k ! z + F.J._.eX} ;.B.5 gXkX, . +.P.                                                        ",
"    =Xv @X9.E w , A S Y b.0.P T K % . . d S.#.y.2Xe.@.=.# l I.}.!.^.                                                    ",
"    :Xd 7.u.G = p : d A q.q.m W 2.N # + % . 8 [.w.V.6 . & _ jXI.+.&.^.XX                                                ",
"      P.5 G F * s + * , ` L b D L 7 E._.J.8 F 8 ..3Xg , b qX_.i o O ) O.=X~.                                            ",
"        6X*.@ y a : . + h ! ! ! ! y [ wX  L.F 6.G f + + c 7X: y x x : - ~ O.0X                                          ",
"          E.. p a p - . + ! ! ! ^ z p ).    P.F 5.6 . # w + : ! x x a z a s a &.0X                                      ",
"          K.. p a a + . s h ^ ! ! ! y ( :X  A.G.7 d @ g f . s z x z z z ~ z h h 1 F.8X                                  ",
"        ).U.. s y 2 + *._.. ) ! x { l a ).  ,.{.) X L # # + : p z a h z z z x z l i < E.%X                              ",
"      %X/.{ + a 2 * p jX^.! y L P b.X.- _ !.  J.@ O 6XD.. + o + : 2 h x z z z z z x x * 1 /.~.                          ",
"    dXI & . 2 a a y h 1XA./.. g A R R O g }.H._ > @.gXJ.+ : , : + + * s x x z z z z z a a * z J.T.                      ",
"      {.X.% 7 y a : * #.iXK.. 6 4 U U S q i.K.. X 7XkX+ + y y y y : + + < h x z z z z h z ! k * ` *.~..X                ",
"      tX6 M w : : , & } qXx.#.4 K <.2.E P 6XJ.. @ _.&.+ : p y y i i y : + + < h x z z h z z x ! h ; [ +.XX{.            ",
"        F.% M 6 # r q ] ~.  U.$ E <.E q ) kXG.+ F.hXs O + : p y y y y i y : O + < h x a z z z z x ! a 2 ( +.Q.          ",
"          F.4 M w q d %X    U.O.& E B $ ) .X  qX    $X*Xd < + 2 a p y y 2 < y : + O , y z x z z z z x c < * O.Q.        ",
"          /.@ N m r ` .X      H.o q E T @ O.~.          0XW.l y o 2 p 2 : : y i y : + o 2 h z x z z z z z s y O.Q.      ",
"        x.=.$ M e d 8X        n.*.: U <.4 +.!.              8XG._ : . : < - : y y y y : + O 2 h z x z z k z z * @.Y.    ",
"      `.&.& q e e 2 8X          ;X_ $ Y S ` P.                  %Xz.O.o . 3 < 2 y y y i y < + + 2 h x z i k x x . /.    ",
"    F.& K R e M e 2 8X          P.p w Y Q $ G.                      .XG.+.. . , 2 2 i y y i 2 : + + 2 s a z z ! i { I.  ",
"  tXL j.k.Y e M m 7 8X        ).{ r k.b.b.q. .P.                        R.K.O.. O < 1 y p y < < y : + + * h ~ z s . ).  ",
"  =Xg t M e r 6 4 : 8X        W.z.Q Z.Z.Z.Z.r J.                            x._._ . + : : : : < i i y : + + 1 a a o `.  ",
"  yX7XoX*X=X=X*XOX7XyX        W.&.w Y 0.q.2.4 E.                                I.*Xx O * + + , p y y , 2 : O O 2 . `.  ",
"                              P.eXOX=X0X0X0X*XgX                                    !.=Xs < : O + : < 2 p p i : . O ).  ",
"                                                                                        XXqXU.s h : . . + * * < s H.    ",
"                                                                                              8X8X*.( ) ) ) ( $.qX      ",
"                                                                                                    *XXXoXXX*X          ",
"                                                                                                                        "
};
