/* XPM */
static char *_a8bbb4c2a6a487099c725e7160c464bxhOQX62sW6Un0E5E[] = {
/* columns rows colors chars-per-pixel */
"60 60 236 2 ",
"   c None",
".  c #090407",
"X  c #170707",
"o  c #1B0D11",
"O  c #1B1215",
"+  c #0C1311",
"@  c #240D0B",
"#  c #290A09",
"$  c #350C0B",
"%  c #39120E",
"&  c #290D11",
"*  c #390E13",
"=  c #241314",
"-  c #2B1314",
";  c #28171A",
":  c #341313",
">  c #3B1315",
",  c #3D141B",
"<  c #3B1C1D",
"1  c #361819",
"2  c #24130D",
"3  c #191D27",
"4  c #291A28",
"5  c #3B1D23",
"6  c #210E21",
"7  c #162829",
"8  c #1E2F31",
"9  c #28292B",
"0  c #372529",
"q  c #392733",
"w  c #243535",
"e  c #293939",
"r  c #393539",
"t  c #322F2E",
"y  c #39211F",
"u  c #431B1C",
"i  c #491A19",
"p  c #4E1613",
"a  c #48211C",
"s  c #471C23",
"d  c #521D23",
"f  c #442323",
"g  c #4B2425",
"h  c #43252B",
"j  c #4C242B",
"k  c #4D2A2B",
"l  c #44292C",
"z  c #552B2B",
"x  c #572729",
"c  c #5B312C",
"v  c #4D2D32",
"b  c #462B37",
"n  c #532D32",
"m  c #592D33",
"M  c #473839",
"N  c #5D3334",
"B  c #57343A",
"V  c #4E322F",
"C  c #622D34",
"Z  c #633435",
"A  c #63343A",
"S  c #64393C",
"D  c #6C3B3C",
"F  c #693737",
"G  c #743C3D",
"H  c #74373A",
"J  c #63342E",
"K  c #79413E",
"L  c #68413D",
"P  c #333D42",
"I  c #493744",
"U  c #5B3B45",
"Y  c #573A48",
"T  c #6C3D43",
"R  c #643B43",
"E  c #743D42",
"W  c #7B3C43",
"Q  c #7C3440",
"!  c #2D4242",
"~  c #324344",
"^  c #3A4C4C",
"/  c #354949",
"(  c #3D4F51",
")  c #3E5152",
"_  c #3D504E",
"`  c #474745",
"'  c #58484A",
"]  c #435354",
"[  c #4A5655",
"{  c #4B5B5C",
"}  c #465A5B",
"|  c #565958",
" . c #4E4E50",
".. c #694346",
"X. c #744343",
"o. c #7C4444",
"O. c #734549",
"+. c #7C434A",
"@. c #74494C",
"#. c #7C4A4C",
"$. c #7E4946",
"%. c #794B53",
"&. c #665558",
"*. c #7B5256",
"=. c #6A4854",
"-. c #4B615F",
";. c #59615B",
":. c #63635D",
">. c #4C5E60",
",. c #555C65",
"<. c #645B65",
"1. c #6F5764",
"2. c #4D6161",
"3. c #4E6865",
"4. c #526363",
"5. c #556A6A",
"6. c #5B6C6C",
"7. c #586667",
"8. c #5B6B71",
"9. c #5E7373",
"0. c #5F7976",
"q. c #636969",
"w. c #766A6D",
"e. c #686975",
"r. c #75687A",
"t. c #637474",
"y. c #697575",
"u. c #65797A",
"i. c #6B7C7C",
"p. c #667778",
"a. c #727D7D",
"s. c #787678",
"d. c #67716E",
"f. c #803E42",
"g. c #83464A",
"h. c #844C4D",
"j. c #8A4C4D",
"k. c #864646",
"l. c #8B514E",
"z. c #85504E",
"x. c #834C52",
"c. c #8B4E54",
"v. c #894C58",
"b. c #924E52",
"n. c #835255",
"m. c #8B5253",
"M. c #8C545B",
"N. c #85585B",
"B. c #925455",
"V. c #94555B",
"C. c #955A5B",
"Z. c #9A5B5C",
"A. c #975858",
"S. c #9C615D",
"D. c #8C5B63",
"F. c #9C5B63",
"G. c #945A62",
"H. c #A25D63",
"J. c #876367",
"K. c #996468",
"L. c #996C74",
"P. c #8A7077",
"I. c #A46569",
"U. c #A36C75",
"Y. c #AA7278",
"T. c #B47C7F",
"R. c #6B817F",
"E. c #71807E",
"W. c #776C82",
"Q. c #6C7E80",
"!. c #627B81",
"~. c #727E82",
"^. c #797487",
"/. c #757289",
"(. c #87798B",
"). c #857B92",
"_. c #8F7B8D",
"`. c #6E8282",
"'. c #738484",
"]. c #798485",
"[. c #748887",
"{. c #758688",
"}. c #7A878A",
"|. c #768A8A",
" X c #7B8C8C",
".X c #7B8986",
"XX c #7C908F",
"oX c #7C8E91",
"OX c #768E90",
"+X c #7E9291",
"@X c #818C8D",
"#X c #8A878B",
"$X c #87918F",
"%X c #828E92",
"&X c #878397",
"*X c #958797",
"=X c #839394",
"-X c #8A9595",
";X c #869699",
":X c #869A9A",
">X c #8B9C9C",
",X c #899898",
"<X c #919D9E",
"1X c #989798",
"2X c #8CA19D",
"3X c #8D9EA0",
"4X c #929EA2",
"5X c #9B92A7",
"6X c #918AA3",
"7X c #8EA2A2",
"8X c #94A3A4",
"9X c #96A6AA",
"0X c #9BA7AA",
"qX c #9CABAC",
"wX c #97A8A7",
"eX c #9EADB0",
"rX c #9EB0B1",
"tX c #9FB2AE",
"yX c #A5A9AB",
"uX c #A3AEB1",
"iX c #AEAFB3",
"pX c #A4B3B4",
"aX c #A9B4B5",
"sX c #ACBABB",
"dX c #A8B6B9",
"fX c #B2BBBD",
"gX c #B4B8BA",
"hX c #A7B2AE",
"jX c #A495A8",
"kX c #B8C3BF",
"lX c #B4BEC1",
"zX c #ADBDC1",
"xX c #B5C3C4",
"cX c #BAC3C5",
"vX c #BCCACB",
"bX c #C9CECE",
/* pixels */
"                                                pX=X.Xi.i.7.] =X[.R.i.8XvX                                              ",
"                                        aX| '.'.{.=X{.{. X6.=X Xi.`.+Xi.t.'.fX                                          ",
"                                uX@X].y.'.e ] =X8X'.{.i.p.oXy.p.`.u.i.{.a.a.| 4.>XyX                                    ",
"                              a.i. X,X,X{.'.e 5.4.i.'.{.{.9.p.t.8.u.{. X{.i.]  X].@X].@X-X                              ",
"                            '.p.=X2XwXXX>X X] w =X7X+X|.{.i.Q.t.'.=X3X=XoX} 4.=X,X>X=X,Xe ^ 2X                          ",
"                        E.'. X+X+X2X;XwX:X'.4.! '.+X=XwX=X:X;X:X3X3X3X:Xp.w Q.:X=X X+X>X/ 2.8Xp.].                      ",
"                    .X6. X=XXX X|.|.XX;X2X:Xu.e `.|.wX7X;X[.`.+X>X3X:X+X( ^  X:X=X[. X>X6.9.wX Xi.d.                    ",
"                  t.t.>X;X[.[.u.R.[.XX2X8X+X[.^ 2.+X|.9.2.} ^ 5.t. X:X6.P OX>X X|.`.i.'. Xp.XX'. XE.7.                  ",
"              =X6..X=X[.i.9.5.-.4.R.wX8X3X+XoX2.! 3.) 6.=X X9.:X'.-.t.! u.:X+X|.[.u. Xt.6.'.XX=XXX;Xp.d.                ",
"            a.y.=X[.t.t.9.6.8.u.'..X6.[. X{.t.7 7 6.:X8X,X8XtX>X;X8Xt.} t.|.7XOXoX:X`.i.'.i.=X X X'.6.[ =X              ",
"            i. X X+Xi.p.t.i.`. X.Xd.| t.i.~ 7 >.>X>X-X4XfXbXbXkXwX=X=X>X'.6.} 6.u.|.+X[. X Xa.E.5.4.6.4.i.              ",
"          9 ^ '.i..X`.'. X+XXX.X'.d.~.7.8 ^ ,X9X=X-XaXbXbXE.q.hXbXcX8X=X X6.) / 9.{.[.oX.X{.t.] ^ 5.`.`.d.d.qX          ",
"      uX~.y.~ e t.i.t.`.:X X X{.a.].~ 8 } :X=X>XqXcXbX1X' o X t s.gXbXgX@Xi.3X X>.6.{.Q.5.{ } 4.Q.'. X=X'.i.4.          ",
"    <X=X=X>X>X'.w e w 4.=X.X{.].t.e ] 9X X6.3XdXvXfXw.0 X - 5 X o ` 1XgXfXuX%X=X8Xu.^ ^ t.i. X:X+Xu.9.u.'.i.i.6.        ",
"  ,X=X>X8X:X+X>X/ i.] e ~ i.].7.e t.eX=X:XrXvXxX>X[ X X h B S n 1 o t s.iXbXlX>X'.;X:X~ ) oX>X=X:X X`.6.6.t.6.t.a.      ",
"xX X=X'.'.{.'.i.~ wX>Xy.w e e ~ =X9XoX3XsXxXsXa.M X = & v @.#.N.L y X 0 <.1XcXcXuX{.t.t.2.e i.7Xi.2.i.[.R.i.'..X6.@X    ",
"R.+XXX`.5.9.i.u.{ +X>X;X{.7 w 4X4XoX9XsXcXyXq.0 & j 1 1 R n.%.@.L c g : = ` -XfXfXaX]. X>Xt.~ } ! {.+X X[.:X.Xi.6.{ aX  ",
"|.|.9.4.{ 6.8.5.9.|.=X`.e 6.i.6.;X0XzXaX1X&.o - m O.n z ..@.T F D o.D m 0 X r .XcXgXgX%X.X2X`.8 8.:X X|.+X[..X=Xi.6.6.  ",
"XXXX`.6.{ 3.6.Q.:X7Xt.7 5.qX=X=X0XpXvX@X .= X B *.K.*.v j A T T D #.E D =.= . 9 s.gXxXxX8X`.7X`.8 5.[.+X8X.X'.6.~ ^ e '.",
"=X=X X'.'. X X=XoX5.+ >.pX X9XdXzXaX@X` X 1 1 ..J.L.J.< * m X.@.N X.+.E D.v o . t s.fXuXeXpXu.6.u./ `.[.6.4.~ 8 6.i..X'.",
".X{.{.}.;X>X;X+X5.+ } dX:X;XpXsXaX$X` . 1 n z x K.D.N.: u F G X.c F h.W D.B & = X t P.cXfXpX8X}.qXp.P P 2.i.i. X:X+X=X X",
"] ] { 4.6.6.p.5.7 ! rX7X:XpXlXaX-X` . 2 k X.D E h.M.*.$ g D G G i F c.W K.C # y 0 o t #XfXhXdX8X XpX7.8  X>X9X=X>X X.X+X",
":X=X'.i.u.6.6.~ + i.[.;XpXaXaX1X| X X < D X.h.K.H K.@.$ g D o.G $ X.V.W I.x $ k B < @ ' iXfXuXuX4X=X8X] ]  X=X`.i.t.9.-.",
"wX7X+X+X X'.[.( >.>X9.8XuX0XiXq.; o = 1 X.M.W c.W U.S > z F o.o.d X.g.+.U.d u g S @.n h &.iXfXqX0X>X8X}.w i.{.i.5.5.u.i.",
"+X+X+X`.`.[.t.~ ;XuX8XaXyXyXs.r o = - h T c.+.+.x.U.B 1 B A +.o.m #.E M.K.u > N %.K.A 1 o ^.lXqXuX8X'.i./ ]  Xi.6.i.[.[.",
"0.u.`.[.|. X4.} pX3X<XaXgXyX<.; 0 ; 1 k E g.+.c.M.U.n , S T +.E D n.W M.J.s k *.K.+.O.j X t 0XsXdXuX,XqX'.e i.=XXX X[.`.",
"5.3.9.R.|.[.) '.pX=X0XgXgX#XI 0 l 1 : z E c.g.W V.U.j g S D +.W m.m.G x.L.N N X.h.h.g.E 1 = q.hXqXpX4X8XpX~ 4. XXX[.'.[.",
"-.} 3.u.[.`.~ 3X9X3XaXfXiX<.O q B f < k D m.c.x.G.U.s f N T #.g.z.#.E M.L.n g N G C.j.F k @ M yXgXdXpX>XqX4.7.+X:X X X X",
"9.9.t.t.`.u./ wX4XpXcXlX#Xr . M ' 5 - < S @.@.%.G.G.< < n S O.T O.D T *.*.< 5 B ..n.x.X.k @ ; w.aXpXqX3XdX6.~ {.[.'.i.i.",
"{ { { ) { >.] ;X8X8X4X0Xe.P 9 q Y b q 0 M Y Y Y =.=.q q I B U U Y Y Y Y Y b r I Y R U U b q 9  .=XwX;X=X9X6.e { { { } ] ",
"{..X Xi.u.p.}.>X3X;X X~.[ | s.1Xr.).&X/.W.W./.^.(.).).).5X&X*X5X).6X6X6X&X6X6X6X*X6XjX).jX&Xe.8.{.%X>X8X=X8XrX8X9XqX<X.X",
"i.'.'.t.t.p.qX8XuXpX9X}.,.| <.s.<.r./.8.e.e.e.e.r.r.W.W.&Xe.W.(.W.W.W.).^.^./.^.^.(.(.r.^./.,.7.3X%X X=XqXpXpXrX8XdXuX=X",
"R.7X=X,XqXdX9XqX%XeXpX>X;.t X 1 n v ; ; 0 l v v v B q ; 4 0 b l B v j B l 4 5 0 v m n n l ; O ,.%X{.i.{.=X<XpXqXpXqX9X,X",
";X2XpXpXpXqXpXuX%X~.pX X7.9 2 f n.*.h & h ..n.O.n.J.J.v ; l ..+.n.O.F N...< g D +.j.j.#.D f o [  X.X,XwX>X=X,X9X9X9X>X.X",
"-.u.t.6.y.{ ] P { ] { 9.[ r - z M.x.h 5 B T M.V.I.K.Y.n : n #.M.g.z.G G.O.< z K z.A.A.j.D h X [ '.{.i.i.{ ] 6.6.6.4.4.'.",
".Xi.-X@X X5.9. X~. X'.i.7.t @ z n.x.5 - n %.K.H.H.A.G.s u R x.B.+.j.W C.S u N D h.B.A.$.F f O | 8X{.=X,X X{..X,X=X X.X X",
"-XpX=XsXrXdX>X=X8X8XqXE.d.M # z N.@.5 ; B N.I.A.b.Z.m.g g X.k.b.B.+.o.K.Z , N X.j.C.K.j.D f O | -X8X8XpXwX X Xi.=X8X>X.X",
",XpXaX8XpX:X`.>X>X=X=X Xq.M : z N.@.&.w.J.%.M.A.k.I.m.a u L k.k.C.g.W K.N > c X.c.C.C.c.X.u = |  X8XdXqXwXpX9X=Xy.,X>X{.",
"@XuXxXdXqX:XwX2XqXqXwX,Xd.0 : g ..U w.#X&.B o.b.k.I.M.g a D k.k.B.b.W F.A u A W B.F.j.M.E g ; | @X>X>XwXqX8XwXqX.XqX9X{.",
"y.t.7.q.t.6.2.5.6.6.p.7.:.M $ z n 0 q.s.I n +.c.b.Z.G.z f N k.j.b.F.Q F.A , C E B.H.f.A.E g = | d.y.6.4.] / ] 6.t.y.t.y.",
"4X@Xy.d.i.[.5.e 6.y.E.7.| M : j =.&.t 9 w.P.T c.b.V.L.k 5 B x.k.j.H.W G.T > N #.j.Z.H Z.D f @ | a.{.i.6.6.i. X.X=X X'.i.",
"0XpXaXxXxXpX=X^ >XxXvXhXs.M # n &.; . . ; J.*.c.G.C.U.B 5 k X.h.B.Z.g.C.N.n #.@.j.A.k.K.G g 2 :.<X9X,X>X8X=X8XsXwX9X8X X",
"%XuXlX0X{.wXwX^ i.qX=X,Xy.M & n ..l 0 0 ..*.#.m.B.g.Y.A > z o.j.A.l.k.Y.K., z D o.A.S.S.F a 2 | ,X=X9X8X=XqX8X9XwXwX9X{.",
"pXsX0X=X%X9X5.^ eX>X+X9Xy.r & n J.n - l j T x.M.B.F Y.Z * z o.z.B.Z.F.T.K., i D h.B.C.A.F a - :.=X>X,XpXpX8X,X=X8X8X9X.X",
"t.i.t.i.6.^ 7 ] i.t.5.^ [  .@ B D.N , s T G.g.I.l.p Y.C * m g.C.K.I.F.U.K.j s D +.B.B.Z.H i - ` d.i.'.'.i.t.y.6.6.6.y.6.",
"p.{.]. X'.i. X.X~.~.u.4.7.r = ..%.s s n %.%.n.L.D i U.m * B D.K.L.M.v.D.L.h 1 R T M.M.D.T s ; |  X X=Xy.=X'.] i. X=X=X=X",
"=XpX0XuXfXqX8X X>XdX9X'.a.` ; l b 4 6 I Y I ' &.q q 1.q 4 P ' ' Y Y Y Y <.q q I Y U U U Y 4 3 t.9X9XwX9XqXpX.X4.wXdXqXsX",
"3XeXpXfXaXwX=X X}.oX9Xu.| q.w.*X<.^.).r.W.W.r.r.W.W.^.).6X^.(.*X(._._.(.).&X).&X_.*X*XP.*X#X5.!.8Xt.'.9X9XsXqX'.4.i.i.=X",
" X%X0XdXdXqXpXeX8X;X3X{.t.q.w._.e.^.(.r.r.r.W.r.W.^./.^.&X(.(.*X(._._.(.&X&X&X&X(._.*X(._.^.5.!.dXqX=XpX=XpXdX=X{ 8X=X=X",
"Q.,X'.[ 4.i.[.[.~.~.Q.8.7.P = q 9 4 4 q I b b I 4 I P 4 4 q b M M b Y b I r 4 q I b b b b 4 3 4.%X=X=X X4.i.i.{ { {.E.'.",
"oX Xt.| 6.[.'.{.}.p.u.7 } I o v 5 - s Z @.@.x.K.s *.&.< , N @.#.n.D n.T %.B - n S @.n.n.A < ; q.a.i.i.'.{.i.t.y.i.'.i.i.",
"dXzXdXfXxXxXdXxX4Xt.( 8 ] ` - B f : x G B.C.A.I.x K.%.u i G z.B.S.o.Z.g.N.N $ Z j.l.j.z.K F V s.-XdXqXwXpXwXpXsXpXpXqX7X",
"{.>XsXxXwXpXpX,X] ] 8X6.[ M - n 0 : Z j.I.S.A.I.H K.O.u g G k.l.A.k.C.g.N.x > Z z.h.h.S.m.z 1 | -XwX9X8X.Xy..X{.i.=X9X=X",
"pX9X9XpXqXwX+X{ t.sXqX| ^ ` @ k 1 f O.m.m.m.B.I.o.L...> g G $.z.m.m.B.h.N.u u N h.j.m.K.#.u - :.$X8X9X8X,X8X>X X{.>X9X=X",
"u.%X~.'.`.] ] t.,X-X@X[ ^ M : f v B %.x.x.c.Z.F.V.U.T , x +.#.m.m.C.V.c.N., s A x.j.g.x.E > =  .i.'.'.{.{.6.4.i.a.a.y.t.",
"{ { 4.t.-.^ u.y.{ d.4.] [ M < ..v l A g.V.c.F.H.I.U.A , x +.+.h.m.C.V.v.*., s S x.g.h.g.E > ; | a.%X=X X{.6.{.[..Xi.6.y.",
">X>X8XwX9XwXqXqX}.uX=X$Xq.' V g & l T m.B.b.A.Z.F.U.N * C +.G j.j.C.j.F.T : g A g.k.+.j.F u - :.aXpXpXcX=XuXxXxX8X,X,X>X",
":X>X9XwX>X:XoX X'.8X<X.X;.M : $ : k X.m.B.B.A.Z.I.L.c : c o.K z.+.A.j.C.S : z D h.$.o.h.F u - :.sXpX8X X].9XxXaX<Xi.6.i.",
">X8X9X9X8X,X:X;Xi.<XsX@X;.t @ : - l N X.o.K K o.h.*.g : x F J F J $.D X.g # f c F Z J F z < ; :.0X8X<X<XqX-X9XpXsXqX9XwX",
".X=X=X,X=X=X3X9Xy. XwXE.;.t X # X 2 : i p p p p i a # X $ % $ % a c i i # X # : % % % i % # X | $X9XqXpXpX8X8XpXqXdXsXpX"
};
