/* XPM */
static char *result[] = {
/* columns rows colors chars-per-pixel */
"60 60 235 2 ",
"   c #190100",
".  c #2B0A05",
"X  c #390F08",
"o  c #291308",
"O  c #38140A",
"+  c #361812",
"@  c #2B1915",
"#  c #3C231D",
"$  c #3D2E25",
"%  c #3A3833",
"&  c #43190C",
"*  c #461B14",
"=  c #521C1A",
"-  c #681F0C",
";  c #4B251C",
":  c #48251B",
">  c #52241A",
",  c #74240F",
"<  c #6B2918",
"1  c #762A18",
"2  c #7A321C",
"3  c #6B250B",
"4  c #482923",
"5  c #552A23",
"6  c #5A2C25",
"7  c #552928",
"8  c #59342B",
"9  c #443934",
"0  c #573A33",
"q  c #683329",
"w  c #7A3425",
"e  c #6B3B33",
"r  c #643A33",
"t  c #723E39",
"y  c #6C2C20",
"u  c #45423D",
"i  c #5D4A3C",
"p  c #6A453E",
"a  c #7B473B",
"s  c #484845",
"d  c #544C4E",
"f  c #57544F",
"g  c #4D5253",
"h  c #555657",
"j  c #504E51",
"k  c #694943",
"l  c #784A43",
"z  c #69564B",
"x  c #7A564C",
"c  c #635C5C",
"v  c #755C52",
"b  c #76615A",
"n  c #6C625C",
"m  c #5E5B61",
"M  c #5F6565",
"N  c #676768",
"B  c #776A66",
"V  c #78736D",
"C  c #797877",
"Z  c #863424",
"A  c #863929",
"S  c #83352B",
"D  c #8D422C",
"F  c #8C4636",
"G  c #8A453C",
"H  c #8C4A3C",
"J  c #864836",
"K  c #914533",
"L  c #944B35",
"P  c #944B3B",
"I  c #9B4D3B",
"U  c #974539",
"Y  c #9C533C",
"T  c #98543D",
"R  c #90442D",
"E  c #A4543D",
"W  c #AC543D",
"Q  c #A8583E",
"!  c #B05A3F",
"~  c #A54F3E",
"^  c #8B4D42",
"/  c #8D4E4A",
"(  c #834A42",
")  c #934C43",
"_  c #9A4E41",
"`  c #8C544C",
"'  c #855548",
"]  c #9E5443",
"[  c #995747",
"{  c #8B5752",
"}  c #8B5953",
"|  c #835752",
" . c #935A52",
".. c #955A53",
"X. c #A45542",
"o. c #AD5644",
"O. c #A65A44",
"+. c #AC5A45",
"@. c #AD564A",
"#. c #A45A4C",
"$. c #AD5C4A",
"%. c #A1574A",
"&. c #B15645",
"*. c #B15A46",
"=. c #B25C4A",
"-. c #B6594B",
";. c #A75D54",
":. c #B65C52",
">. c #986457",
",. c #97695D",
"<. c #AB6146",
"1. c #AC624B",
"2. c #A56048",
"3. c #B3624D",
"4. c #B66148",
"5. c #A36354",
"6. c #AD6255",
"7. c #A96758",
"8. c #B56452",
"9. c #B96451",
"0. c #BA6955",
"q. c #B36C5B",
"w. c #BB6E5B",
"e. c #B46659",
"r. c #B9725E",
"t. c #826A63",
"y. c #856A67",
"u. c #88726B",
"i. c #887A79",
"p. c #967C77",
"a. c #976860",
"s. c #AD6B64",
"d. c #B86B62",
"f. c #AE7466",
"g. c #B87668",
"h. c #B77C71",
"j. c #C26D5B",
"k. c #C1715A",
"l. c #C57464",
"z. c #C57D6C",
"x. c #CC7D6A",
"c. c #C97566",
"v. c #DB7B66",
"b. c #D57C6B",
"n. c #DC7E6B",
"m. c #D27766",
"M. c #C5766B",
"N. c #E37F71",
"B. c #89807A",
"V. c #91877E",
"C. c #BD867C",
"Z. c #CD836D",
"A. c #D3846E",
"S. c #DD856C",
"D. c #CB8371",
"F. c #C88677",
"G. c #D48472",
"H. c #DD8273",
"J. c #D58A75",
"K. c #DC8975",
"L. c #DC8C7B",
"P. c #D6887A",
"I. c #DF9276",
"U. c #E48C7B",
"Y. c #EA8C7B",
"T. c #E38775",
"R. c #E4927D",
"E. c #E9927D",
"W. c #E89A7D",
"Q. c #E4816E",
"!. c #877F84",
"~. c #898584",
"^. c #978884",
"/. c #989896",
"(. c #8E8D93",
"). c #BF8C83",
"_. c #A09E9C",
"`. c #AEAAAB",
"'. c #B7B9B9",
"]. c #B3B0B0",
"[. c #CB8C83",
"{. c #D38D87",
"}. c #D89588",
"|. c #D5998E",
" X c #E88C81",
".X c #E59481",
"XX c #EC9482",
"oX c #EB9A83",
"OX c #ED9C8A",
"+X c #E69A87",
"@X c #F39382",
"#X c #F49D8B",
"$X c #F49886",
"%X c #EA968B",
"&X c #DDA292",
"*X c #E7A28B",
"=X c #F4A28C",
"-X c #EDA493",
";X c #E7A697",
":X c #F3A393",
">X c #FBA393",
",X c #FCAD9C",
"<X c #F6AA99",
"1X c #F8B59F",
"2X c #EDB59C",
"3X c #C4B5B1",
"4X c #F6ACA1",
"5X c #FEB4A4",
"6X c #FFBCAB",
"7X c #FABAA5",
"8X c #FFBEB2",
"9X c #ECB4A6",
"0X c #FFC2AC",
"qX c #FBC2A7",
"wX c #FFC3B3",
"eX c #FFC9B4",
"rX c #C9C9C5",
"tX c #D3D5D9",
"yX c #D2D0D0",
"uX c #E9D6D3",
"iX c #DEE3DF",
"pX c #FBE3DF",
"aX c #EDEDE8",
"sX c #FCE4E2",
"dX c #EBF1EC",
"fX c #F9F5EF",
"gX c #EEFEFD",
"hX c #EEF3F7",
"jX c #FCFAF5",
"kX c #F4F5F9",
"lX c #F5FBFD",
"zX c #FCFEFD",
"xX c #F7F6F4",
"cX c #EFEDF0",
"vX c None",
/* pixels */
"vXvXvXvXvXvXvXvXvXvXvXvXvXvXvXvXvXvXvXvXvXvXvXvXvXvXvXvXvXvXvXvXvXvXvXvXvXvXvXvXvXvXvXvXvXvXvXvXvXvXvXvXvXvXvXvXvXvXvXvX",
"vXvXvXvXvXvXvXvXvXvXvXvXvXvXvXvXvXvXvXvXvXvXvXvXvXvXvXvXvXvXvXvXvXvXvXvXvXvXvXvXvXvXvXvXvXvXvXvXvXN C vXvXvXvXvXvXvXvXvX",
"vXvXvXvXvXvXvXvXvXvXvXvXvXvXvXvXvXvXvXvXvXvXvXvXvXvXvXvXvXvXvXvXvXvXvXvXvXvXvXvXvXvXvXvXvXvXvXj c vXvXu vXvXvXvXvXvXvXvX",
"vXvXvXvXvXvXvXvXvXvXvXvXvXvXvXvXvXvXvXvXvXvXvXvXvXvXvXvXvXvXvXvXvXvXvXvXvXvXvXvXvXvXvXvXvXvXN ~.vXvXvX/.B.vXvXvXvXvXvXvX",
"vXvXvXvXvXvXvXvXvXvXvXvXvXvXvXvXvXvXvXvXvXvXvXvXvXvXvXvXvXvXvXvXvXvXvXvXvXvXvXvXvXvXvXvXvXvXg vXvXjXjX`.C vXvXvXvXvXvXvX",
"vXvXvXvXvXvXvXvXvXvXvXvXvXvXvXvXvXvXvXvXvXvXvXvXvXvXvXvXvXvXvXvXvXvXvXvXvXvXvXvXvXvXvXvXvXvXm vXvXzXjX_.h '././.vXvXvXvX",
"vXvXvXvXvXvXvXvXvXvXvXvXvXvXvXvXvXvXvXvXvXvXvXvXvXvXvXvXvXvXvXvXvXvXvXvXvXvX^.p.vXvXvXvXvXvXN '.zXlXzXiXC B././.s vXvXvX",
"vXvXvXvXvXvXvXvXvXvXvXvXvXvXvXvXvXvXvXvXvXvXvXvXvXvXvXvXvXvXvXvXvXvXV.$ # 8 6 e q ; 4 0 V.vXf rXzXzXlXzXzXzXzXjXzXu vXvX",
"vXvXvXvXvXvXvXvXvXvXvXvXvXvXvXvXvXvXvXvXvXvXvXvXvXvXvXvXvXvXvXvXvX4 > ,.[.}.r.6.7.q.5.[ q X 8 vXzXxXzXzXhXkXlXlXzXi./.vX",
"vXvXvXvXvXvXvXvXvXvXvXvXvXvXvXvXvXvXvXvXvXvXvXvXvXvXvXvXvXvXvXt.& ^ I.*X=XR.*.+.o.+.3.O.w.5.q 8 vXzXcXkXhXgXhXlXzX'.i.vX",
"vXvXvXvXvXvXvXvXvXvXvXvXvXvXvXvXvXvXvXvXvXvXvXvXvXvXvXvXvXvX4 5 f.:X<XD.3.Q ! ! =.&.+.2.Y P ;.a 4 3XvXC (.'.tXkXlXC (.vX",
"vXvXvXvXvXvXvXvXvXvXvXvXvXvXvXvXvXvXvXvXvXvXvXvXvXvXvXvXvX: l {.:XE.8.X.<.+.! 4.W 3.O.1.2.3 w e.a.4 0 i.~.m h h h h vXvX",
"vXvXvXvXvXvXvXvXvXvXvXvXvXvXvXvXvXvXvXvXvXvXvXvXvXvXvXv O >.*X-XG.=.o.-.o.o.3.+.9.E +.@.:.A 1 %.>.,.. vXvXvXvXvXvXvXvXvX",
"vXvXvXvXvXvXvXvXvXvXvXvXvXvXvXvXvXvXvXvXvXvXvXvXvXvX8 > h.*X*Xj.E *.-.&.-.-.X.$.E O.$.+.0.r.) ;.6.7. .X vXvXvXvXvXvXvXvX",
"vXvXvXvXvXvXvXvXvXvXvXvXvXvXvXvXvXvXvXvXvXvXvXvXvX4 e h.:XW.! ! +.+.=.+.o.*.*.&.*.3.@.0.3.e.w.O.X.E 7.a 4 vXvXvXvXvXvXvX",
"vXvXvXvXvXvXvXvXvXvXvXvXvXvXvXvXvXvXvXvXvXvXvXvX+ l F.4XK.*.! ! +.+.! =.&.&.=.*.&.@.+.0.r.0.w.+.&.=.O.f.5 v vXvXvXvXvXvX",
"vXvXvXvXvXvXvXvXvXvXvXvXvXvXvXvXvXvXvXvXvXvXvXo ' J.:XT.o.o.=.+.3.O.+.+.&.=.&.=.=.Q +.=.j.0.=.&.&.@.:.@.;.& vXvXvXvXvXvX",
"vXvXvXvXvXvXvXvXvXvXvXvXvXvXvXvXvXvXvXvXvXvXO >.F.*Xn.&.o.8.@.X.R E 3.=.*.&.&.&.+.3.$.+.+.=.*.&.@.@.=.@.#.e i vXvXvXvXvX",
"vXvXvXvXvXvXvXvXvXvXvXvXvXvXvXvXvXvXvXvXu.> ..x.:XA.*.W +.=.<.R 3 R O.3.&.+.*.+.3.0.+.<.O.+.=.+.+.8.X.6.;...X vXvXvXvXvX",
"vXvXvXvXvXvXvXvXvXvXvXvXvXvXvXvXvXvXvXy.* 5.M.>XS.+.W 4.&.o.3.D 1 D O.=.=.+.*.3.0.3.O.1.3.+.Q *.+.<.O.;.@...5 vXvXvXvXvX",
"vXvXvXvXvXvXvXvXvXvXvXvXvXvXvXvXvXvXb & f.6.>XT.&.*.! Q *.Q 1.Q Y Q O.+.+.<.3.9.3.O.O.L E O.O.=.+.+.7.D _ ;.t p vXvXvXvX",
"vXvXvXvXvXvXvXvXvXvXvXvXvXvXvXvXvXz : h.[ $.c.3.W 4.! Q 4.Q O.3.O.3.<.+.+.9.3.*.+.O.Q , Z +.=.O.+.<.L < ;.;.( 7 vXvXvXvX",
"vXvXvXvXvXvXvXvXvXvXvXvXvXvXvXvXz : >.J U @.$.+.<.! Q <.2.Q +.&.O.O.O.=.3.9.3.Q +.+.E 1 Z +.<.Q Q <.3 2 :.../ * vXvXvXvX",
"vXvXvXvXvXvXvXvXvXvXvXvXvXvXvXk > g.P 1 2 =.+.+.Q <.2.<.E <.=.&.3.+.+.3.9.3.=.<.=.3.+.o.E E +.3.<.Q < T ;./ { : vXvXvXvX",
"vXvXvXvXvXvXvXvXvXvXvXvXvXvXk 7 s.:.@.X.o.*.=.+.+.<.2.O.O.@.=.o.+.3.9.9.*.=.+.+.*.+.&.=.=.+.=.+.<.Q E $.^ / | o vXvXvXvX",
"vXvXvXvXvXvXvXvXvXvXvXvXvXk r s.:.-.@.$.=.=.3.3.1.<.+.=.*.=.@.=.@.=.3.=.+.+.*.*.*.*.*.*.+.=.+.+.<.Q $.I ^ { + vXvXvXvXvX",
"vXvXvXvXvXvXvXvXvXvXvXvXz & ^ A S Z A A Z A D P T @.8.&.:.@.@.=.o.-.=.*.&.&.=.&.*.*.&.&.+.+.+.+.<.1.P G ..0 9 vXvXvXvXvX",
"vXvXvXvXvXvXvXvXvXvXvX0 &  .;.d.z.D.D.D.z.q.2.T K Z U -.&.:.@.@.*.*.=.*.*.+.+.&.*.&.&.*.*.&.$.O.+.X.G ` t 4 vXvXvXvXvXvX",
"vXvXvXvXvXvXvXvXvXvXp.8 [.}.L.K.7XeXeXqX7X2X;X:X%Xl.U Z @.@.=.@.-.o.o.+.+.+.+.*.*.&.&.*.*.=.O.O._ G >.k o vXvXvXvXvXvXvX",
"vXvXvXvXvXvXvXvXvXvX7 ).}.wXU.m.+X*X*X*X2X0XqX7X:X.XU.q.w I :.*.*.+.+.=.$.+.+.+.*.&.&.&.=.$.O.X._ ^ k o vXvXvXvXvXvXvXvX",
"vXvXvXvXvXvXvXvXvXv l &XwX,XS.v.v.U.R.J.G.x.P.<X8X5XJ.-XJ.2 L 5.+.+.$.+.+.$.+.+.+.*.*.*.+.O.E P ) ` o vXvXvXvXvXvXvXvXvX",
"vXvXvXvXvXvXvXvXvX7 ).4X6Xv.Y.Q.n.T.T.$X#XU.x.G..X0X0XJ.+XZ.1 Y =.=.O.L L O.3.*.&.*.=.@.O.] L G ` X vXvXvXvXvXvXvXvXvXvX",
"vXvXvXvXvXvXvXvXvXr |.8X#Xb.=Xb.E.Y.N.$XT..XoX.XH.b.6X6XH.A.0., &.8.%.< < [ :.@.&.&.*.O.#.H ^ ` + i.vXvXvXvXvXvXvXvXvXvX",
"vXvXvXvXvXvXvXvXp.l &XwXA.XXY.R..XE.@XS.K.oX.X.XXXQ.n.:Xm.K.A.I Z $.6.P S %.$.=.-.-.+.] J J { + i.vXvXvXvXvXvXvXvXvXvXvX",
"vXvXvXvXvXvXvXvXu.| ;XwXA.=XK.oXR.U.U.$X@X XU.I..X#XT.m.A.7XOXl.w G 8.;.%.$.O.+.+.+.E K )  .O u.vXvXvXvXvXvXvXvXvXvXvXvX",
"vXvXvXvXvXvXvXvXy.{ &X6XI.T.R.>XA.L.=XG.Q.m.l.A.L.b.v.n.x.5X5XD.[ < #.:.3.3.E <.<.E H H  .& B vXvXvXvXvXvXvXvXvXvXvXvXvX",
"vXvXvXvXvXvXvXvXu.' }.wXR.W.E.E..X:XP.<XwXwX-XG.oXE.S.W.v.E.eXF.f.y ) @.=.+.! <.T ) ^  .+ v vXvXvXvXvXvXvXvXvXvXvXvXvXvX",
"vXvXvXvXvXvXvXvXvXe }.8XW.E.Y.T.%Xz.>.C.9X9XeX6XA.#XT.v.v.U.eX&Xh.G w $.Q *.*.Y H J ` * B vXvXvXvXvXvXvXvXvXvXvXvXvXvXvX",
"vXvXvXvXvXvXvXvXvX5 {.5X,Xb.U.P.^ 6 k p 7 } ;X8X,XA.=XS.E.A.6X;XM.;.< ] <.<.Q L H } + N vXvXvXvXvXvXvXvXvXvXvXvXvXvXvXvX",
"vXvXvXvXvXvXvXvXvX0 s.<X8XH.{./ 8 pXjXjXuXk ` ;XeXJ.W.R.>XA.6X4XM.e.< K 2.] F )  .O u.vXvXvXvXvXvXvXvXvXvXvXvXvXvXvXvXvX",
"vXvXvXvXvXvXvXvXvXy.x &X4X}...7 sXzXzXkXzXuX= {.eX-XJ.R.oXK.5X4XM.e.Z L P H ^ { . u.vXvXvXvXvXvXvXvXvXvXvXvXvXvXvXvXvXvX",
"vXvXvXvXvXvXvXvXvXvX4 ).[...= sXzXzXgXlXdXfXp s.wX+XR.J.Z.G.wX-Xd.w.2 A T ` ' . !.vXvXvXvXvXvXvXvXvXvXvXvXvXvXvXvXvXvXvX",
"vXvXvXvXvXvXvXvXvXvXz v p.* sXjXhXlXgXgXfX3X> d.G.P.=XK.x.oX0XL.l.g.w H ( } o !.vXvXvXvXvXvXvXvXvXvXvXvXvXvXvXvXvXvXvXvX",
"vXvXvXvXvXvXvXvXvXvXvX4 : uXzXlXzXlXgXaXV.+ ` F.G. X XK.+X6X,XG.l.$.q ( } . B vXvXvXvXvXvXvXvXvXvXvXvXvXvXvXvXvXvXvXvXvX",
"vXvXvXvXd c d m vXvXvX9 yXjXxXzXlXlXcXz * f.D.J.-X#X X#X5X7XK.l.q.7.q } . B vXvXvXvXvXvXvXvXvXvXvXvXvXvXvXvXvXvXvXvXvXvX",
"vXvXvX9 vXvXvX].d N u rXjXzXzXlXlXyX9 q F.Z.R.=X#X X%XH.L.I.m.k.f.` t . B vXvXvXvXvXvXvXvXvXvXvXvXvXvXvXvXvXvXvXvXvXvXvX",
"vXvXV /.vXzXzXzXjX].tXjXkXzXzXzXrX% x z.G.oX@Xm.N.N.@Xm.n.m.0.<.f.e . y.vXvXvXvXvXvXvXvXvXvXvXvXvXvXvXvXvXvXvXvXvXvXvXvX",
"vXvXs aXjXzXzXzXzXzXzXjXzXzXhXyXs @ { {.J.A.N.v.N.@X@X Xm.k.<.C.'   B.vXvXvXvXvXvXvXvXvXvXvXvXvXvXvXvXvXvXvXvXvXvXvXvXvX",
"vXvXh jXzXzXzXzXzXxXzXzXzXkXtXg vXvX0 8 h.}.OXXX@X@Xn.k.8.q.r.,.  vXvXvXvXvXvXvXvXvXvXvXvXvXvXvXvXvXvXvXvXvXvXvXvXvXvXvX",
"vXvXf aXzXzXzXzXzXzXzXzXlXzX/.g vXvXvXu.; t g.z.x.r.e.q.h.f.' O vXvXvXvXvXvXvXvXvXvXvXvXvXvXvXvXvXvXvXvXvXvXvXvXvXvXvXvX",
"vXvXf ].zXzXzXzXzXlXzXzXzXlXtXg vXvXvXvXvXt.4 6 e ^ ` x r 5 p vXvXvXvXvXvXvXvXvXvXvXvXvXvXvXvXvXvXvXvXvXvXvXvXvXvXvXvXvX",
"vXvXvXs B ~.(./.'.zXzXzXzXzXvXM vXvXvXvXvXvXvXvXV.z z b V.vXvXvXvXvXvXvXvXvXvXvXvXvXvXvXvXvXvXvXvXvXvXvXvXvXvXvXvXvXvXvX",
"vXvXvXvXvXvX/.`.j /.zXzXzXzXvXvXN vXvXvXvXvXvXvXvXvXvXvXvXvXvXvXvXvXvXvXvXvXvXvXvXvXvXvXvXvXvXvXvXvXvXvXvXvXvXvXvXvXvXvX",
"vXvXvXvXvXvXvXvXvXj zXzXlXzXvXvXh vXvXvXvXvXvXvXvXvXvXvXvXvXvXvXvXvXvXvXvXvXvXvXvXvXvXvXvXvXvXvXvXvXvXvXvXvXvXvXvXvXvXvX",
"vXvXvXvXvXvXvXvXvXN ].vXlXlXvXvXh vXvXvXvXvXvXvXvXvXvXvXvXvXvXvXvXvXvXvXvXvXvXvXvXvXvXvXvXvXvXvXvXvXvXvXvXvXvXvXvXvXvXvX",
"vXvXvXvXvXvXvXvXvXvX% vXvXvXvXN vXvXvXvXvXvXvXvXvXvXvXvXvXvXvXvXvXvXvXvXvXvXvXvXvXvXvXvXvXvXvXvXvXvXvXvXvXvXvXvXvXvXvXvX",
"vXvXvXvXvXvXvXvXvXvXvXs h C g N vXvXvXvXvXvXvXvXvXvXvXvXvXvXvXvXvXvXvXvXvXvXvXvXvXvXvXvXvXvXvXvXvXvXvXvXvXvXvXvXvXvXvXvX",
"vXvXvXvXvXvXvXvXvXvXvXvXvXvXvXvXvXvXvXvXvXvXvXvXvXvXvXvXvXvXvXvXvXvXvXvXvXvXvXvXvXvXvXvXvXvXvXvXvXvXvXvXvXvXvXvXvXvXvXvX",
"vXvXvXvXvXvXvXvXvXvXvXvXvXvXvXvXvXvXvXvXvXvXvXvXvXvXvXvXvXvXvXvXvXvXvXvXvXvXvXvXvXvXvXvXvXvXvXvXvXvXvXvXvXvXvXvXvXvXvXvX",
"vXvXvXvXvXvXvXvXvXvXvXvXvXvXvXvXvXvXvXvXvXvXvXvXvXvXvXvXvXvXvXvXvXvXvXvXvXvXvXvXvXvXvXvXvXvXvXvXvXvXvXvXvXvXvXvXvXvXvXvX"
};
