/* XPM */
static char *a6f68233ec934548da3ffea64036845f9rr3UKGGwuH432uu[] = {
/* columns rows colors chars-per-pixel */
"60 60 188 2 ",
"   c None",
".  c #0F1418",
"X  c #10171D",
"o  c #111820",
"O  c #181F25",
"+  c #22252C",
"@  c #242E3B",
"#  c #252C34",
"$  c #2E3138",
"%  c #33363E",
"&  c #243545",
"*  c #283847",
"=  c #2D3C4B",
"-  c #313745",
";  c #353D40",
":  c #3D3D47",
">  c #393F4C",
",  c #3D454E",
"<  c #2D4051",
"1  c #334555",
"2  c #3A4A5A",
"3  c #3C4653",
"4  c #42464C",
"5  c #464A53",
"6  c #4A535A",
"7  c #54585D",
"8  c #51545B",
"9  c #445463",
"0  c #4F5B67",
"q  c #4F5565",
"w  c #575761",
"e  c #5A5D64",
"r  c #505C68",
"t  c #535A62",
"y  c #56626C",
"u  c #5E656D",
"i  c #616569",
"p  c #636770",
"a  c #656A74",
"s  c #6A6D74",
"d  c #6C7175",
"f  c #6E7379",
"g  c #74757B",
"h  c #7B7B7D",
"j  c #75787D",
"k  c #6C7282",
"l  c #747B84",
"z  c #7C7D82",
"x  c #717382",
"c  c #72828F",
"v  c #7B8289",
"b  c #7E8790",
"n  c #7E8894",
"m  c #778592",
"M  c #838385",
"N  c #83858A",
"B  c #86888D",
"V  c #8E8C8D",
"C  c #828793",
"Z  c #898691",
"A  c #858B94",
"S  c #8C8E94",
"D  c #878F98",
"F  c #8F9094",
"G  c #87939F",
"H  c #8D939B",
"J  c #929193",
"K  c #93959B",
"L  c #95999F",
"P  c #9E9C9F",
"I  c #8D97A1",
"U  c #939BA4",
"Y  c #9D9EA3",
"T  c #949EAA",
"R  c #9DA1A5",
"E  c #96A0AC",
"W  c #9DA2AC",
"Q  c #96A2B0",
"!  c #9BA6B1",
"~  c #9FA8B1",
"^  c #9EAFBF",
"/  c #A2A2A5",
"(  c #ACA8A7",
")  c #A2A4AA",
"_  c #A4A8AD",
"`  c #A8A9AD",
"'  c #B0AEAF",
"]  c #B3ACA6",
"[  c #B4B0AF",
"{  c #A4ABB4",
"}  c #A9ADB3",
"|  c #A2AEBA",
" . c #A4A4B0",
".. c #B1AFB0",
"X. c #ABB0B5",
"o. c #A7B2BB",
"O. c #ACB3BC",
"+. c #AFB8BF",
"@. c #B3B2B5",
"#. c #B3B6BB",
"$. c #B6B9BD",
"%. c #BCBBBD",
"&. c #B9B3B3",
"*. c #C3B8B2",
"=. c #C7C2BF",
"-. c #C9C0BB",
";. c #A4B4C2",
":. c #ACB7C0",
">. c #AEBAC6",
",. c #ACBBC9",
"<. c #B4BBC4",
"1. c #B9BDC2",
"2. c #B2BECA",
"3. c #B9BDC8",
"4. c #BEC1C5",
"5. c #B7C2CD",
"6. c #BCC3CC",
"7. c #B4C4D3",
"8. c #BEC7D0",
"9. c #BEC8D3",
"0. c #C2C2C5",
"q. c #C9C6C6",
"w. c #C9C8C6",
"e. c #C2C6CB",
"r. c #C5C9CE",
"t. c #CCCBCC",
"y. c #D0C8C5",
"u. c #D3CDCB",
"i. c #D8CFC8",
"p. c #D5D1CF",
"a. c #C2C5D2",
"s. c #C4CBD4",
"d. c #CACDD3",
"f. c #CBCDD9",
"g. c #CED1D5",
"h. c #C6D1DB",
"j. c #CCD3DB",
"k. c #D2D2D4",
"l. c #DBD6D3",
"z. c #DCD8D7",
"x. c #D1D5DC",
"c. c #D6DADE",
"v. c #DCDBDD",
"b. c #E3DAD5",
"n. c #E2DDDA",
"m. c #E7E2DE",
"M. c #EAE1DB",
"N. c #CDD5E1",
"B. c #CDDAE4",
"V. c #D3DAE4",
"C. c #DBDEE3",
"Z. c #DBDEEA",
"A. c #D1DDE9",
"S. c #DAE2E5",
"D. c #DCE3EB",
"F. c #DEE8F2",
"G. c #E2E2E4",
"H. c #E9E5E4",
"J. c #E2E6EB",
"K. c #EBE7E8",
"L. c #E5E9ED",
"P. c #EAEAEC",
"I. c #F3EEEB",
"U. c #F6ECE3",
"Y. c #F7F0EA",
"T. c #FDF3EF",
"R. c #E4EBF3",
"E. c #EAEEF2",
"W. c #E4EDF8",
"Q. c #E8EFF9",
"!. c #E2E4F0",
"~. c #EFF3F7",
"^. c #E7F3FC",
"/. c #EBF3FB",
"(. c #F3F3F3",
"). c #FBF6F4",
"_. c #FFFBF4",
"`. c #F6F7FB",
"'. c #F2F5FC",
"]. c #FBF7F8",
"[. c #F2F8FE",
"{. c #F6FBFE",
"}. c #F6FEFF",
"|. c #FBFFFF",
" X c #F9FDFF",
".X c #FCFFFF",
"XX c #FEFEFE",
"oX c #FAFCFD",
/* pixels */
"                                                                                                                        ",
"                                                                                                                        ",
"                                                                                                                        ",
"                                                                                                                        ",
"                                                                                                                        ",
"                                                                                                                        ",
"                                                                                                                        ",
"                                                                                                                        ",
"                                                                                                                        ",
"                                                                                                                        ",
"                                                                                                                        ",
"                                                                                                                        ",
"                                                                                                                        ",
"                                                                                                                        ",
"                                                        `.(.`.XX`.                                                      ",
"                                                  L.x.e.C.e.i d B R / 1.                                                ",
"                                              /.R.+.2.8.2.,.= @ r , , O.L.E.                                            ",
"                                          L s.[./.N.>.2.7.;.1 = 9 y n s.j.j.c.L.                                        ",
"                                    X.R H K oXR.^.W.2.>.7.^ < & 9 6 T :.<.c.4.G.G.w.                                    ",
"                                  N d v X.J.[.[.Q./.h.>.7.,.1 & = 0 ! j.D./.C.C.C.t.%.                                  ",
"                                } #.} $.XX{.XXoXoX/.F.5.>.7.2 * 2 Q 5./.{.R.XXg.$.0.v.K /                               ",
"                              { #.#.J.1.4.XX~.E.oXR./.N.2.;.* = Q s.R.F./.}.D.L $.E.XXt./ 0.                            ",
"                          D > { O.} } #.` C.oX`.'.E.R.R.B.| 2 c A.s.oX^.^.J.R N r.L.{.XXE.M z                           ",
"                        C > , U { V.1.6 N Y t.(.`.`.C.^./.2.m ^.V.V.R.R.<.a U s.3.~.E.XXP.g F /                         ",
"                        l - q W { [.d.4.@.' q.w.v.(.r.e.R.h.>.h.8.D.^.8.y U s.6.j.E.oXJ.XX} N /                         ",
"                      p 5 @ k W { S.C.oX(.I.XXn.p.p.k.g.s.W T E s.8.H b h.D.6.W D U f.oXXXd.j i J                       ",
"                      e j.a.N.W v S.g.k.K.z.p.H.m.u.z.G.d.O.2.F.R.T u v 5.~ D.D.8.+.{ $./.R.z 7                         ",
"                      g a , x l l d.G.v.z.l.n.b.z.l.p.P.C.6.{ W.6.A l D { H o.D.h.j.<.l x.oX0.                          ",
"                        : g  .f.#.d.g.t.n.m.b.i.l.I.I.G.L./.V.s.l L E C l T I :.O.V.^.E W R.                            ",
"                        N K : K C.j.1.%.).T.b.T.M.] =.G.XXC.R.:.4 V.+.D.+.U B.o.2.^.D.W s W                             ",
"                          / Z w 3.H $.k.H._._.U.*.-.y.u.C.L.V., f } o l }.R./.G 9.^.8.<.o.                              ",
"                                r.#.0...l.).Y.M.u.u.J 0.4.<.A # O . t v s.R.W.2.| { U +.                                ",
"                                  K.].q.@.( [ &.%.0.$./ s.s.l u X ; } A A Q.3.O.a.) N                                   ",
"                                    u.I.K.q.P Y Y ` ` W 6.3.A A U _ r.e.C <.Z.x.a.Y                                     ",
"                                      &.t.K.0.@.S e % 5 H j.Z.R.~.oXC.C.O.6.D.f.W                                       ",
"                                        V / / / ) K a $ % ) [.x.J.L.oXR.3.C.!.O.                                        ",
"                                          M g h N N J s + i V.f.D.E.R.4.C.j.W                                           ",
"                                            V h d.@.#.$.7 8 d.L.D.e.3.s.r.                                              ",
"                                              h r.L.G.0.i 4 } x.R } R 1.                                                ",
"                                                  0.t.(.#.4 s $.r./ B                                                   ",
"                                                    C.@.@.F 1.E.E.1.                                                    ",
"                                                        B g S ) @.                                                      ",
"                                                                                                                        ",
"                                                                                                                        ",
"                                                                                                                        ",
"                                                                                                                        ",
"                                                                                                                        ",
"                                                                                                                        ",
"                                                                                                                        ",
"                                                                                                                        ",
"                                                                                                                        ",
"                                                                                                                        ",
"                                                                                                                        ",
"                                                                                                                        ",
"                                                                                                                        ",
"                                                                                                                        ",
"                                                                                                                        ",
"                                                                                                                        ",
"                                                                                                                        ",
"                                                                                                                        "
};
