/* XPM */
static char *result[] = {
/* columns rows colors chars-per-pixel */
"60 60 211 2 ",
"   c #030205",
".  c #0A0306",
"X  c #0D0609",
"o  c #050A0D",
"O  c #0B0B0C",
"+  c #00050B",
"@  c #120D0D",
"#  c #1C0A0B",
"$  c #150609",
"%  c #1C120A",
"&  c #13100E",
"*  c #060C11",
"=  c #0C0E11",
"-  c #141312",
";  c #191613",
":  c #1C1916",
">  c #1C1A18",
",  c #181719",
"<  c #230C0A",
"1  c #2B0B09",
"2  c #220C07",
"3  c #340D0B",
"4  c #24160F",
"5  c #38120C",
"6  c #320A11",
"7  c #2D1512",
"8  c #221C14",
"9  c #221D1A",
"0  c #331C12",
"q  c #371712",
"w  c #3C200F",
"e  c #25221D",
"r  c #2E261C",
"t  c #352A1E",
"y  c #3A2C1D",
"u  c #3B2514",
"i  c #3F301D",
"p  c #1F2121",
"a  c #2A2621",
"s  c #2D2A24",
"d  c #272420",
"f  c #352C22",
"g  c #3A2B22",
"h  c #332E28",
"j  c #3C3227",
"k  c #3C352C",
"l  c #34302A",
"z  c #353330",
"x  c #43160D",
"c  c #54190F",
"v  c #400C10",
"b  c #471713",
"n  c #5A1A15",
"m  c #5A1310",
"M  c #641E12",
"N  c #6A1713",
"B  c #48260F",
"V  c #462514",
"C  c #5E2714",
"Z  c #43321E",
"A  c #553314",
"S  c #65220E",
"D  c #7A270E",
"F  c #60330F",
"G  c #6C2612",
"H  c #662F14",
"J  c #642516",
"K  c #712416",
"L  c #7A2C14",
"P  c #6C3F19",
"I  c #7A321C",
"U  c #763814",
"Y  c #532E20",
"T  c #4B3A25",
"R  c #43372A",
"E  c #46392A",
"W  c #4C3D2C",
"Q  c #473927",
"!  c #563A28",
"~  c #443B33",
"^  c #493F32",
"/  c #633923",
"(  c #6A431C",
")  c #63401C",
"_  c #794711",
"`  c #4F432F",
"'  c #55432B",
"]  c #5D472D",
"[  c #5C482D",
"{  c #4A4233",
"}  c #534431",
"|  c #594732",
" . c #5B4A35",
".. c #634B2C",
"X. c #6D4D2A",
"o. c #6C492A",
"O. c #77582F",
"+. c #7B552C",
"@. c #604E36",
"#. c #6A5436",
"$. c #67523A",
"%. c #695337",
"&. c #735937",
"*. c #7A5B36",
"=. c #7C5F3B",
"-. c #7F6138",
";. c #900C04",
":. c #821E0E",
">. c #96190B",
",. c #972F0F",
"<. c #8C2C13",
"1. c #922D14",
"2. c #813D1B",
"3. c #863616",
"4. c #9C3514",
"5. c #973A16",
"6. c #A5270C",
"7. c #A9310C",
"8. c #A43C14",
"9. c #AC3812",
"0. c #864D0D",
"q. c #854717",
"w. c #9D4A13",
"e. c #964717",
"r. c #97551A",
"t. c #865318",
"y. c #B5490F",
"u. c #AD4712",
"i. c #AD4914",
"p. c #A14519",
"a. c #A54717",
"s. c #B44312",
"d. c #B94213",
"f. c #B54C13",
"g. c #AE5314",
"h. c #A85618",
"j. c #BD5214",
"k. c #BF5D13",
"l. c #8A6118",
"z. c #A7661D",
"x. c #B5661D",
"c. c #894F24",
"v. c #8C5E2A",
"b. c #865526",
"n. c #945923",
"m. c #A15D20",
"M. c #8F672A",
"N. c #91632F",
"B. c #976026",
"V. c #836237",
"C. c #826339",
"Z. c #8B6739",
"A. c #9B6C33",
"S. c #946D3B",
"D. c #9A6E3B",
"F. c #A2642A",
"G. c #A86824",
"H. c #A9712D",
"J. c #BD7A24",
"K. c #A77538",
"L. c #B97B33",
"P. c #C24915",
"I. c #CA5112",
"U. c #CC5F13",
"Y. c #C55715",
"T. c #D75C12",
"R. c #CD6914",
"E. c #C36B1B",
"W. c #CE6714",
"Q. c #D56E16",
"!. c #C47A1D",
"~. c #DC7D17",
"^. c #D2761A",
"/. c #D97D18",
"(. c #D47016",
"). c #C57A26",
"_. c #A98026",
"`. c #DC8419",
"'. c #DE8C1C",
"]. c #E4931B",
"[. c #EB951A",
"{. c #ED9D1C",
"}. c #E59C1E",
"|. c #F09D1C",
" X c #E6871A",
".X c #ECA51D",
"XX c #F1AE1E",
"oX c #F2A51F",
"OX c #F5B41F",
"+X c #FBBA1E",
"@X c #CE822B",
"#X c #DD9A23",
"$X c #E58B25",
"%X c #EAA924",
"&X c #FFAE20",
"*X c #EFB124",
"=X c #F3B222",
"-X c #F3BB22",
";X c #FBC322",
":X c #FACB2A",
">X c #F7C528",
",X c #FDDA2F",
"<X c #FBD02A",
"1X c #F9CF30",
"2X c #FBDC33",
"3X c #F8DF38",
"4X c #FEE435",
"5X c #FFEB3A",
"6X c #FFE837",
"7X c #FFF13B",
"8X c None",
/* pixels */
"8X8X8X8X8X8X8X8X8X8X8X8X8X8X8X8X8X8X8X8X8X8X8X8X8X8X8X8X8X8X8X8X8X8X8X8X8X8X8X8X8X8X8X8X8X8X8X8X8X8X8X8X8X8X8X8X8X8X8X8X",
"8X8X8X8X8X8X8X8X8X8X8X8X8X8X8X8X8X8X8X8X8X8X8X8X8X8X8X8X8X8X8X8X8X8X8X8X8X8X8X8X8X8X8X8X8X8X8X8X8X8X8X8X8X8X8X8X8X8X8X8X",
"8X8X8X8X8X8X8X8X8X8X8X8X8X8X8X8X8X8X8X8X8X8X8X8X8X8X8X8X8X8X8X8X8X8X8X8X8X8X8X8X8X8X8X8X8X8X8X8X8X8X8X8X8X8X8X8X8X8X8X8X",
"8X8X8X8X8X8X8X8X8X8X8X8X8X8X8X8X8X8X8X8X8X8X8X8X8X8X8X8X8X8X8X8X8X8X8X8X8X8X8X8X8X8X8X8X8X8X8X8X8X8X8X8X8X8X8X8X8X8X8X8X",
"8X8X8X8X8X8X8X8X8X8X8X8X8X8X8X8X8X8X8X8X8X8X8X8X8X8X8X8X8X8X8X8X8X8X8X8X8X8X8X8X8X8X8X8X8X8X8X8X8X8X8X8X8X8X8X8X8X8X8X8X",
"8X8X8X8X8X8X8X8X8X8X8X8X8X8X8X8X8X8X8X8X8X8X8X8X8X8X8X8X8X8X8X8X8X8X8X8X8X8X8X8X8X8X8X8X8X8X8X8X8X8X8X8X8X8X8X8X8X8X8X8X",
"8X8X8X8X8X8X8X8X8X8X8X8X8X8X8X8X8X8X8X8X8X8X8X8X8X8X8X8X8X8X8X8X8X8X8X8X8X8X8X8X8X8X8X8X8X8X8X8X8X8X8X8X8X8X8X8X8X8X8X8X",
"8X8X8X8X8X8X8X8X8X8X8X8X8X8X8X8X8X8X8X8X8X8X8X8X8X8X8X8X8X8X8X8X8X8X8X8X8X8X8X8X8X8X8X8X8X8X8X8X8X8X8X8X8X8X8X8X8X8X8X8X",
"8X8X8X8X8X8X8X8X8X8X8X8X8X8X8X8X8X8X8X8X8X8X8X8X8X8X8X8X8X8X8X8X8X8X8X8X8X8X8X8X8X8X8X8X8X8X8X8X8X8X8X8X8X8X8X8X8X8X8X8X",
"8X8X8X8X8X8X8X8X8X8X8X8X8X8X8X8X8X8X8X8X8X8X8X8X8X8X8X8X8X8X8X8X8X8X8X8X8X8X8X8X8X8X8X8X8X8X8X8X8X8X8X8X8X8X8X8X8X8X8X8X",
"8X8X8X8X8X8X8X8X8X8X8X8X8X8X8X8X8X8X8X8X8X8X8X8X8X8X8X8X8X8X1 8X8X8X8X8X8X8X8X8X8X8X8X8X8X8X8X8X8X8X8X8X8X8X8X8X8X8X8X8X",
"8X8X8X8X8X8X8X8X8X8X8X8X8X8X8X8X8X8X8X8X8X8X8X8X8X8X8X8X8XG 6.8X8X8X8X8X8X8X8X8X8X8X8X8X8X8X8X8X8X8X8X8X8X8X8X8X8X8X8X8X",
"8X8X8X8X8X8X8X8X8X8X8X8X8X8X8X8X8X8X8X8X8X8X8X8X8X8X8X8X8XG x 8Xq 8X8X8X8X8X8X8X8X8X8X8X8X8X8X8X8X8X8X8X8X8X8X8X8X8X8X8X",
"8X8X8X8X8X8X8X8X8X8X8X8X8X8X8X8X8X8X8X8X8X8X8X8X8X8X8X8X8X8X8X0 d.< 8X8X8X8X8X8X8X8X8X8X8X8X8X8X8X8X8X8X8X8X8X8X8X8X8X8X",
"8X8X8X8X8X8X8X8X8X8X8X8X8X8X8X8X8X8X8X8X8X8X8X8X8X8X8X8X8X8X8X0 U.0 8X8X8X8X8X8X8X8X8X8X8X8X8X8X8X8X8X8X8X8X8X8X8X8X8X8X",
"8X8X8X8X8X8X8X8X8X8X8X8X8X8X8X8X8X8X8X8X8X8X8X8X8X8X8X8X8X8X8X8X3.0 8X8X8X8X8X8X8X8X8X8X8X8X8X8X8X8X8X8X8X8X8X8X8X8X8X8X",
"8X8X8X8X8X8X8X8X8X8X8X8X8X8X8X8X8X8X8X8X8X8X8X8X8X8X8X8X8X8X8X8X8X8X8X8X8X8X8X8X8X8X8X8X8X8X8X8X8X8X8X8X8X8X8X8X8X8X8X8X",
"8X8X8X8X8X8X8X8X8X8X8X8X8X8X8X8X8X8X8X8X8X8X8X8X8X8X8X8X8X8X8X8X8X8X8X8X8X8X8X8X8X8X8X8X8X8X8X8X8X8X8X8X8X8X8X8X8X8X8X8X",
"8X8X8X8X8X8X8X8X8X8X8X8X8X8X8X8X8X8X8X8X8X8X8X8X8X8X8X8X8X8X8X8X8X8X8X8X8X8X8X8X8X8X8X8X8X8X8X8X8X8X8X8X8X8X8X8X8X8X8X8X",
"8X8X8X8X8X8X8X8X8X8X8X8X8X8X8X8X8X8X8X8X8X8X8X8X8X8X8X8Xx 1 8X8X8X8X8X8X8X8X8X8X8X8X8X8X8X8X8X8X8X8X8X8X8X8X8X8X8X8X8X8X",
"8X8X8X8X8X8X8X8X8X8X8X8X8X8X8X8X8X8X8X8X8X8X8X8X8X8X8X$ >.1 8X8X8X8X8X8X8X8X8X8X8X8X8X8X8X8X8X8X8X8X8X8X8X8X8X8X8X8X8X8X",
"8X8X8X8X8X8X8X8X8X8X8X8X8X8X8X8X8X8X8X8X8X8X8X8X3 3 8XU >.# 8X8X8X8X8X8X8X8X8X8X8X8X8X8X8X8X8X8X8X8X8X8X8X8X8X8X8X8X8X8X",
"8X8X8X8X8X8X8X8X8X8X8X8X8X8X8X8X8X8X8X8X8X8X8X8X1 8X8X!.q.8X1 8X8X8X8X8X8X8X8X8X8X8X8X8X8X8X8X8X8X8X8X8X8X8X8X8X8X8X8X8X",
"8X8X8X8X8X8X8X8X8X8X8X8X8X8X8X8X8X8X8X8X8X8X8X8X8X8X8Xr.l.4 9.8X8X8X8X8X8X8X8X8X8X8X8X8X8X8X8X8X8X8X8X8X8X8X8X8X8X8X8X8X",
"8X8X8X8X8X8X8X8X8X8X8X8X8X8X8X8X8X8X8X8X8X8X8X8X8X8X8Xu _ 8Xp.w 8X8X8X8X8X8X8X8X8X8X8X8X8X8X8X8X8X8X8X8X8X8X8X8X8X8X8X8X",
"8X8X8X8X8X8X8X8X8X8X8X8X8X8X8X8X8X8X8X8X8X8X8X8X8X8X8X8X% 8X@ 8X8X8X8X8X8X8X8X8X8X8X8X8X8X8X8X8X8X8X8X8X8X8X8X8X8X8X8X8X",
"8X8X8X8X8X8X8X8X8X8X8X8X8X8X8X8X8X8X8X8X8X8X8X8X8X8X8X8X8XG V 8X8X8X8X8X8X8X8X8X8X8X8X8X8X8X8X8X8X8X8X8X8X8X8X8X8X8X8X8X",
"8X8X8X8X8X8X8X8X8X8X8X8X8X8X8X8X8X8X8X8X8X8X8X8X8X8X8X$ :.s.s.<.8X8X8X8X8X8X8X8X8X8X8X8X8X8X8X8X8X8X8X8X8X8X8X8X8X8X8X8X",
"8X8X8X8X8X8X8X8X8X8X8X8X8X8X8X8X8X8X8X8X8X8X8X8X5 8X8Xc ~.`.j.T.J 8X8X8X8X8X8X8X8X8X8X8X8X8X8X8X8X8X8X8X8X8X8X8X8X8X8X8X",
"8X8X8X8X8X8X8X8X8X8X8X8X8X8X8X8X8X8X8X8X8X8X8Xr.r.; ( oXOXj.9.[.g.7 e ; 8X8X8X8X8X8X8X8X8X8X8X8X8X8X8X8X8X8X8X8X8X8X8X8X",
"8X8X8X8X8X8X8X8X8X8X8X8X8X8X8X8X8X8X8X8X8X8X: O.#.~ M.<X-X`.~.XXR.! { { f 8X8X8X8X8X8X8X8X8X8X8X8X8X8X8X8X8X8X8X8X8X8X8X",
"8X8X8X8X8X8X8X8X8X8X8X8X8X8X8X8X8X8X8X8X8X@ { z | *.H.;X-X:X~..X{.h.' { j , 8X8X8X8X8X8X8X8X8X8X8X8X8X8X8X8X8X8X8X8X8X8X",
"8X8X8X8X8X8X8X8X8X8X8X8X8X8X8X8X8X8X8X8X[ f a v.G.x.E.%X,X6X]./.;Xi.A.n.l W l = 8X8X8X8X8X8X8X8X8X8X8X8X8X8X8X8X8X8X8X8X",
"8X8X8X8X8X8X8X8X8X8X8X8X8X8X8X8X8X8XO W $.k O.H.i.8.5.E.,X6X<X`.XX,.I S 2.*.R R ; 8X8X8X8X8X8X8X8X8X8X8X8X8X8X8X8X8X8X8X",
"8X8X8X8X8X8X8X8X8X8X8X8X8X8X8X8X8X8Xf ^ j n.o.N 6.6.7.[.XX*X4X>X[.I r.I i.J.@.~ | 8X8X8X8X8X8X8X8X8X8X8X8X8X8X8X8X8X8X8X",
"8X8X8X8X8X8X8X8X8X8X8X8X8X8X8X8X8X8X| } N.n.N ;.Q.Y.7.-X:X*X5X7X1X8 t.^.p.e.G.|  .- 8X8X8X8X8X8X8X8X8X8X8X8X8X8X8X8X8X8X",
"8X8X8X8X8X8X8X8X8X8X8X8X8X8X8X8X8X&  .C.n./ J J.=XR.%X7X5X4X5X6X>Xw.S e.M m c.#.} ; 8X8X8X8X8X8X8X8X8X8X8X8X8X8X8X8X8X8X",
"8X8X8X8X8X8X8X8X8X8X8X8X8X8X8X8X8X; j W n n 3.:X1Xy.4X5X5X5X5X,X`.I.Q.e.$ c Y h a @ 8X8X8X8X8X8X8X8X8X8X8X8X8X8X8X8X8X8X",
"8X8X8X8X8X8X8X8X8X8X8X8X8X8X8X8X  e W W ! 6 r.<X}.9.4X5X5X4X4X4XE.f.[.B   q g ^  .a 8X8X8X8X8X8X8X8X8X8X8X8X8X8X8X8X8X8X",
"8X8X8X8X8X8X8X8X8X8X8X8X8X8X8X8X8XR $.&.x.+ x %Xk.j.2X5X%X*X.X.X^.W.%XP $ n ..@.%.E 8X8X8X8X8X8X8X8X8X8X8X8X8X8X8X8X8X8X",
"8X8X8X8X8X8X8X8X8X8X8X8X8X8X8X8X8XT %.%.+.# X 3.D ~..X6X#Xs.'.2X:X].OXw.5 q ' |  .R 8X8X8X8X8X8X8X8X8X8X8X8X8X8X8X8X8X8X",
"8X8X8X8X8X8X8X8X8X8X8X8X8X8X8X8X8X' C.-.b.q 7 b f.(.].oXF.D :X7X:X;Xg.C 7 . o.V.=.' 8X8X8X8X8X8X8X8X8X8X8X8X8X8X8X8X8X8X",
"8X8X8X8X8X8X8X8X8X8X8X8X8X8X8X8X  T A.V.A.8 < K Q.[.g.i.d.Y.].}.+X'.8.H   = z.H.Z.X.8X8X8X8X8X8X8X8X8X8X8X8X8X8X8X8X8X8X",
"8X8X8X8X8X8X8X8X8X8X8X8X8X8X8X8X8X; Z.V.Z.Z # L ,.Y.L ,.P.U.W. X!.4.a.4   d N.A.#.t 8X8X8X8X8X8X8X8X8X8X8X8X8X8X8X8X8X8X",
"8X8X8X8X8X8X8X8X8X8X8X8X8X8X8X8X8Xo E *.#.j X $ V P.8.1.9.I.a.H C M X   > l e z > o 8X8X8X8X8X8X8X8X8X8X8X8X8X8X8X8X8X8X",
"8X8X8X8X8X8X8X8X8X8X8X8X8X8X8X8X8X8X: : h M.U . 2 3.< 7 <.K b . O c @ 4 X.} ; a > O 8X8X8X8X8X8X8X8X8X8X8X8X8X8X8X8X8X8X",
"8X8X8X8X8X8X8X8X8X8X8X8X8X8X8X8X8X8X: & r K.).x.V .   < .       x $ B v.S.#.e > - 8X8X8X8X8X8X8X8X8X8X8X8X8X8X8X8X8X8X8X",
"8X8X8X8X8X8X8X8X8X8X8X8X8X8X8X8X8X8X8X= ; ..).L.K.+.f f Z _ 0.( t X P S.E a a : O 8X8X8X8X8X8X8X8X8X8X8X8X8X8X8X8X8X8X8X",
"8X8X8X8X8X8X8X8X8X8X8X8X8X8X8X8X8X8X8X8X8X, u ..[  .-.S.L.$X@XL.D.k = : - 9 9 8X8X8X8X8X8X8X8X8X8X8X8X8X8X8X8X8X8X8X8X8X",
"8X8X8X8X8X8X8X8X8X8X8X8X8X8X8X8X8X8X8X8X8Xa p - O o r Z A A i t g e - 9 9 9 8X8X8X8X8X8X8X8X8X8X8X8X8X8X8X8X8X8X8X8X8X8X",
"8X8X8X8X8X8X8X8X8X8X8X8X8X8X8X8X8X8X8X8X8X: e 9 : - - o O * = , ; > & ; ; 8X8X8X8X8X8X8X8X8X8X8X8X8X8X8X8X8X8X8X8X8X8X8X",
"8X8X8X8X8X8X8X8X8X8X8X8X8X8X8X8X8X8X8X8X8X8X8XX 8XX 9 9 f h l s 9 > 8X8X8X8X8X8X8X8X8X8X8X8X8X8X8X8X8X8X8X8X8X8X8X8X8X8X",
"8X8X8X8X8X8X8X8X8X8X8X8X8X8X8X8X8X8X8X8X8X8X8X8X8X8X- - : > > ; 8X8X8X8X8X8X8X8X8X8X8X8X8X8X8X8X8X8X8X8X8X8X8X8X8X8X8X8X",
"8X8X8X8X8X8X8X8X8X8X8X8X8X8X8X8X8X8X8X8X8X8X8X8X8X8X8X8X8X8X8X8X8X8X8X8X8X8X8X8X8X8X8X8X8X8X8X8X8X8X8X8X8X8X8X8X8X8X8X8X",
"8X8X8X8X8X8X8X8X8X8X8X8X8X8X8X8X8X8X8X8X8X8X8X8X8X8X8X8X8X8X8X8X8X8X8X8X8X8X8X8X8X8X8X8X8X8X8X8X8X8X8X8X8X8X8X8X8X8X8X8X",
"8X8X8X8X8X8X8X8X8X8X8X8X8X8X8X8X8X8X8X8X8X8X8X8X8X8X8X8X8X8X8X8X8X8X8X8X8X8X8X8X8X8X8X8X8X8X8X8X8X8X8X8X8X8X8X8X8X8X8X8X",
"8X8X8X8X8X8X8X8X8X8X8X8X8X8X8X8X8X8X8X8X8X8X8X8X8X8X8X8X8X8X8X8X8X8X8X8X8X8X8X8X8X8X8X8X8X8X8X8X8X8X8X8X8X8X8X8X8X8X8X8X",
"8X8X8X8X8X8X8X8X8X8X8X8X8X8X8X8X8X8X8X8X8X8X8X8X8X8X8X8X8X8X8X8X8X8X8X8X8X8X8X8X8X8X8X8X8X8X8X8X8X8X8X8X8X8X8X8X8X8X8X8X",
"8X8X8X8X8X8X8X8X8X8X8X8X8X8X8X8X8X8X8X8X8X8X8X8X8X8X8X8X8X8X8X8X8X8X8X8X8X8X8X8X8X8X8X8X8X8X8X8X8X8X8X8X8X8X8X8X8X8X8X8X",
"8X8X8X8X8X8X8X8X8X8X8X8X8X8X8X8X8X8X8X8X8X8X8X8X8X8X8X8X8X8X8X8X8X8X8X8X8X8X8X8X8X8X8X8X8X8X8X8X8X8X8X8X8X8X8X8X8X8X8X8X"
};
