/* XPM */
static char *result[] = {
/* columns rows colors chars-per-pixel */
"60 60 200 2 ",
"   c #020102",
".  c #0B0505",
"X  c #060608",
"o  c #0B0B0C",
"O  c #080408",
"+  c #140309",
"@  c #110D0D",
"#  c #1B0B0A",
"$  c #190806",
"%  c #13120E",
"&  c #090D11",
"*  c #100F10",
"=  c #0E1013",
"-  c #151313",
";  c #191615",
":  c #1D1915",
">  c #1D1B19",
",  c #2F0E0C",
"<  c #24090B",
"1  c #3A0F0F",
"2  c #24120C",
"3  c #2C140D",
"4  c #28180C",
"5  c #35120D",
"6  c #3D1C0D",
"7  c #3D0E11",
"8  c #251E14",
"9  c #211E1B",
"0  c #3F1213",
"q  c #25211D",
"w  c #2C251C",
"e  c #352B1E",
"r  c #3C2B1A",
"t  c #2B2621",
"y  c #2D2924",
"u  c #272321",
"i  c #352D24",
"p  c #3A2F21",
"a  c #342F28",
"s  c #3B3227",
"d  c #3D342B",
"f  c #35302A",
"g  c #3E3931",
"h  c #410F0E",
"j  c #4A140D",
"k  c #4E1B0E",
"l  c #461F0C",
"z  c #431712",
"x  c #441913",
"c  c #4B1E12",
"v  c #551B11",
"b  c #571715",
"n  c #6A1A13",
"m  c #5A2E0D",
"M  c #5B310E",
"N  c #422310",
"B  c #472A19",
"V  c #5C2213",
"C  c #562B14",
"Z  c #5C2C15",
"A  c #5A2418",
"S  c #563212",
"D  c #60200D",
"F  c #712E0F",
"G  c #6C2F14",
"H  c #682414",
"J  c #722818",
"K  c #633F19",
"L  c #693417",
"P  c #783719",
"I  c #44392B",
"U  c #4B3D2C",
"Y  c #483824",
"T  c #513F2C",
"R  c #523B27",
"E  c #433B32",
"W  c #783620",
"Q  c #764A16",
"!  c #4F422F",
"~  c #53442D",
"^  c #5F4320",
"/  c #4E4133",
"(  c #544634",
")  c #5B4A34",
"_  c #5D4834",
"`  c #664B2D",
"'  c #694A29",
"]  c #7D4C29",
"[  c #64522E",
"{  c #7B542B",
"}  c #624C32",
"|  c #6B5435",
" . c #66523A",
".. c #6C563A",
"X. c #655135",
"o. c #7B5F3B",
"O. c #775B36",
"+. c #7B613B",
"@. c #7D5E42",
"#. c #872517",
"$. c #8D3314",
"%. c #853818",
"&. c #9B3B14",
"*. c #983417",
"=. c #A73A18",
"-. c #AA2A1C",
";. c #88461B",
":. c #9F4416",
">. c #95461D",
",. c #865E1A",
"<. c #98591D",
"1. c #894A09",
"2. c #AA4115",
"3. c #BD4915",
"4. c #AE541A",
"5. c #BA5C16",
"6. c #99691B",
"7. c #BB6415",
"8. c #B96A1A",
"9. c #B2601C",
"0. c #B9781B",
"q. c #824128",
"w. c #994E24",
"e. c #8A5B2D",
"r. c #AB5825",
"t. c #84632E",
"y. c #986329",
"u. c #8C6534",
"i. c #82643A",
"p. c #8D6A3A",
"a. c #866639",
"s. c #936D3A",
"d. c #976D35",
"f. c #AE6C2F",
"g. c #B16427",
"h. c #BF7223",
"j. c #A16E31",
"k. c #B96B31",
"l. c #A87A3F",
"z. c #B37B37",
"x. c #CD560F",
"c. c #C54B13",
"v. c #CD5F13",
"b. c #C45114",
"n. c #D25B13",
"m. c #CC6717",
"M. c #D26D15",
"N. c #D16514",
"B. c #C97A18",
"V. c #DB7717",
"C. c #E56B14",
"Z. c #CE582B",
"A. c #D34925",
"S. c #C36B23",
"D. c #C37A2A",
"F. c #C37424",
"G. c #8D6C40",
"H. c #AD831D",
"J. c #BE8038",
"K. c #C58A1F",
"L. c #DD8217",
"P. c #DD8A1A",
"I. c #D7871D",
"U. c #D8991F",
"Y. c #E48C17",
"T. c #E1841A",
"R. c #E68A17",
"E. c #E5931A",
"W. c #E69B1E",
"Q. c #E99D1B",
"!. c #ECA51B",
"~. c #F3AD1D",
"^. c #F5A91D",
"/. c #F2B41E",
"(. c #F5BB1F",
"). c #FABC1F",
"_. c #FDB31E",
"`. c #DB9B26",
"'. c #CE8D2A",
"]. c #E69F25",
"[. c #E48724",
"{. c #D6A025",
"}. c #ECAB21",
"|. c #E7B229",
" X c #F1B320",
".X c #F2BC25",
"XX c #E1A53D",
"oX c #F9CA25",
"OX c #F2C32C",
"+X c #FACC28",
"@X c #F7CC2C",
"#X c #FBD72D",
"$X c #F6D233",
"%X c #FDDD33",
"&X c #FFDF38",
"*X c #FEE234",
"=X c #FFEB3A",
"-X c #FFF03D",
";X c #C28843",
":X c None",
/* pixels */
":X:X:X:X:X:X:X:X:X:X:X:X:X:X:X:X:X:X:X:X:X:X:X:X:X:X:X:X:X:X:X:X:X:X:X:X:X:X:X:X:X:X:X:X:X:X:X:X:X:X:X:X:X:X:X:X:X:X:X:X",
":X:X:X:X:X:X:X:X:X:X:X:X:X:X:X:X:X:X:X:X:X:X:X:X:X:X:X:X:X:X:X:X:X:X:X:X:X:X:X:X:X:X:X:X:X:X:X:X:X:X:X:X:X:X:X:X:X:X:X:X",
":X:X:X:X:X:X:X:X:X:X:X:X:X:X:X:X:X:X:X:X:X:X:X:X:X:X:X:X:X:X:X:X:X:X:X:X:X:X:X:X:X:X:X:X:X:X:X:X:X:X:X:X:X:X:X:X:X:X:X:X",
":X:X:X:X:X:X:X:X:X:X:X:X:X:X:X:X:X:X:X:X:X:X:X:X:X:X:X:X:X:X:X:X:X:X:X:X:X:X:X:X:X:X:X:X:X:X:X:X:X:X:X:X:X:X:X:X:X:X:X:X",
":X:X:X:X:X:X:X:X:X:X:X:X:X:X:X:X:X:X:X:X:X:X:X:X:X:X:X:X:X:X:X:X:X:X:X:X:X:X:X:X:X:X:X:X:X:X:X:X:X:X:X:X:X:X:X:X:X:X:X:X",
":X:X:X:X:X:X:X:X:X:X:X:X:X:X:X:X:X:X:X:X:X:X:X:X:X:X:X:X:X:X:X:X:X:X:X:X:X:X:X:X:X:X:X:X:X:X:X:X:X:X:X:X:X:X:X:X:X:X:X:X",
":X:X:X:X:X:X:X:X:X:X:X:X:X:X:X:X:X:X:X:X:X:X:X:X:X:X:X:X:X:X:X:X:X:X:X:X:X:X:X:X:X:X:X:X:X:X:X:X:X:X:X:X:X:X:X:X:X:X:X:X",
":X:X:X:X:X:X:X:X:X:X:X:X:X:X:X:X:X:X:X:X:X:X:X:X:X:X:X:X:X:X:X:X:X:X:X:X:X:X:X:X:X:X:X:X:X:X:X:X:X:X:X:X:X:X:X:X:X:X:X:X",
":X:X:X:X:X:X:X:X:X:X:X:X:X:X:X:X:X:X:X:X:X:X:X:X:X:X:X:X:X:X:X:X:X:X:X:X:X:X:X:X:X:X:X:X:X:X:X:X:X:X:X:X:X:X:X:X:X:X:X:X",
":X:X:X:X:X:X:X:X:X:X:X:X:X:X:X:X:X:X:X:X:X:X:X:X:X:X:X:X:X:X:X:X:X:X:X:X:X:X:X:X:X:X:X:X:X:X:X:X:X:X:X:X:X:X:X:X:X:X:X:X",
":X:X:X:X:X:X:X:X:X:X:X:X:X:X:X:X:X:X:X:X:X:X:X:X:X:X:X:X:X:X:X:X:X:X:X:X:X:X:X:X:X:X:X:X:X:X:X:X:X:X:X:X:X:X:X:X:X:X:X:X",
":X:X:X:X:X:X:X:X:X:X:X:X:X:X:X:X:X:X:X:X:X:X:X:X:X:X:X:X:X:X:X:X:X:X:X:X:X:X:X:X:X:X:X:X:X:X:X:X:X:X:X:X:X:X:X:X:X:X:X:X",
":X:X:X:X:X:X:X:X:X:X:X:X:X:X:X:X:X:X:X:X:X:X:X:X:X:X:X:X:X:X:X:X:X:X:X:X:X:X:X:X:X:X:X:X:X:X:X:X:X:X:X:X:X:X:X:X:X:X:X:X",
":X:X:X:X:X:X:X:X:X:X:X:X:X:X:X:X:X:X:X:X:X:X:X:X:X:X:X:X:X:X5 :X:X:X:X:X:X:X:X:X:X:X:X:X:X:X:X:X:X:X:X:X:X:X:X:X:X:X:X:X",
":X:X:X:X:X:X:X:X:X:X:X:X:X:X:X:X:X:X:X:X:X:X:X:X:X:X:X:X:X:XG V :X:X:X:X:X:X:X:X:X:X:X:X:X:X:X:X:X:X:X:X:X:X:X:X:X:X:X:X",
":X:X:X:X:X:X:X:X:X:X:X:X:X:X:X:X:X:X:X:X:X:X:X:X:X:X:X:X:X# &.2.:X:X:X:X:X:X:X:X:X:X:X:X:X:X:X:X:X:X:X:X:X:X:X:X:X:X:X:X",
":X:X:X:X:X:X:X:X:X:X:X:X:X:X:X:X:X:X:X:X:X:X:X:X:X:X:X:X4 $.c C :X:X:X:X:X:X:X:X:X:X:X:X:X:X:X:X:X:X:X:X:X:X:X:X:X:X:X:X",
":X:X:X:X:X:X:X:X:X:X:X:X:X:X:X:X:X:X:X:X:X:X:X:X:X:X:X:XG C.N # Z :X:X:X:X:X:X:X:X:X:X:X:X:X:X:X:X:X:X:X:X:X:X:X:X:X:X:X",
":X:X:X:X:X:X:X:X:X:X:X:X:X:X:X:X:X:X:X:X:X:X:X:X:X:X:X:X3 V.,.2 n.4 :X:X:X:X:X:X:X:X:X:X:X:X:X:X:X:X:X:X:X:X:X:X:X:X:X:X",
":X:X:X:X:X:X:X:X:X:X:X:X:X:X:X:X:X:X:X:X:X:X:X:X:X:X:X:X:Xc K @ c.4 :X:X:X:X:X:X:X:X:X:X:X:X:X:X:X:X:X:X:X:X:X:X:X:X:X:X",
":X:X:X:X:X:X:X:X:X:X:X:X:X:X:X:X:X:X:X:X:X:X:X:X:X:X:X:X:X:X:X5 #.:X:X:X:X:X:X:X:X:X:X:X:X:X:X:X:X:X:X:X:X:X:X:X:X:X:X:X",
":X:X:X:X:X:X:X:X:X:X:X:X:X:X:X:X:X:X:X:X:X:X:X:X:X:X:X:X:X:X:X:X:X:X:X:X:X:X:X:X:X:X:X:X:X:X:X:X:X:X:X:X:X:X:X:X:X:X:X:X",
":X:X:X:X:X:X:X:X:X:X:X:X:X:X:X:X:X:X:X:X:X:X:X:X:X:X:X:X:X:X:X:X:X:X:X:X:X:X:X:X:X:X:X:X:X:X:X:X:X:X:X:X:X:X:X:X:X:X:X:X",
":X:X:X:X:X:X:X:X:X:X:X:X:X:X:X:X:X:X:X:X:X:X:X:Xk 5 :X:X:X:X:X:X:X:X:X:X:X:X:X:X:X:X:X:X:X:X:X:X:X:X:X:X:X:X:X:X:X:X:X:X",
":X:X:X:X:X:X:X:X:X:X:X:X:X:X:X:X:X:X:X:X:X:X:X:X&.4 :X:X:X:X:X:X:X:X:X:X:X:X:X:X:X:X:X:X:X:X:X:X:X:X:X:X:X:X:X:X:X:X:X:X",
":X:X:X:X:X:X:X:X:X:X:X:X:X:X:X:X:X:X:X:X:X:X:X:XC :X:X:X:X8 :X:X:X:X:X:X:X:X:X:X:X:X:X:X:X:X:X:X:X:X:X:X:X:X:X:X:X:X:X:X",
":X:X:X:X:X:X:X:X:X:X:X:X:X:X:X:X:X:X:X:X:X:X:X:X:X:X:X:X6 '.% :X:X:X:X:X:X:X:X:X:X:X:X:X:X:X:X:X:X:X:X:X:X:X:X:X:X:X:X:X",
":X:X:X:X:X:X:X:X:X:X:X:X:X:X:X:X:X:X:X:X:X:X:X:X:X:X:X+ {.%XV : :X:X:X:X:X:X:X:X:X:X:X:X:X:X:X:X:X:X:X:X:X:X:X:X:X:X:X:X",
":X:X:X:X:X:X:X:X:X:X:X:X:X:X:X:X:X:X:X:X:X:X:X:X:X:X:XQ .XoXK.`.N :X:X:X:X:X:X:X:X:X:X:X:X:X:X:X:X:X:X:X:X:X:X:X:X:X:X:X",
":X:X:X:X:X:X:X:X:X:X:X:X:X:X:X:X:X:X:X:X:X:X:X:X: q q 8.R.Y.}.).6.> w - :X:X:X:X:X:X:X:X:X:X:X:X:X:X:X:X:X:X:X:X:X:X:X:X",
":X:X:X:X:X:X:X:X:X:X:X:X:X:X:X:X:X:X:X:X:X:X; ! d.( g >.b.2.c.B.[ g / / i :X:X:X:X:X:X:X:X:X:X:X:X:X:X:X:X:X:X:X:X:X:X:X",
":X:X:X:X:X:X:X:X:X:X:X:X:X:X:X:X:X:X:X:X:X% I ' Q.y. .t.P.3.T.|.@.O./ E d ; :X:X:X:X:X:X:X:X:X:X:X:X:X:X:X:X:X:X:X:X:X:X",
":X:X:X:X:X:X:X:X:X:X:X:X:X:X:X:X:X:X:X:XU t u f.M.n.k.w.E.!.Q.&XXXg.h.<.i U i * :X:X:X:X:X:X:X:X:X:X:X:X:X:X:X:X:X:X:X:X",
":X:X:X:X:X:X:X:X:X:X:X:X:X:X:X:X:X:X:X[ X.d @.S.n.4.;.4.W.+XE./.E.7.P D e.o.d d - :X:X:X:X:X:X:X:X:X:X:X:X:X:X:X:X:X:X:X",
":X:X:X:X:X:X:X:X:X:X:X:X:X:X:X:X:X:Xi } g O.[ ;.E.m.3.!.%X=X|.~.E.N.%.A r.h.X.g U :X:X:X:X:X:X:X:X:X:X:X:X:X:X:X:X:X:X:X",
":X:X:X:X:X:X:X:X:X:X:X:X:X:X:X:X:X:X_ T j.q.W }.}.V.V.$X=X-X@X}.!.~.r.W w.;.y.) ..- :X:X:X:X:X:X:X:X:X:X:X:X:X:X:X:X:X:X",
":X:X:X:X:X:X:X:X:X:X:X:X:X:X:X:X:X% ) a.5.L I.).E.E.oX@X=X=X=XOXV.].oXk V v q..._ : :X:X:X:X:X:X:X:X:X:X:X:X:X:X:X:X:X:X",
":X:X:X:X:X:X:X:X:X:X:X:X:X:X:X:X:X; d T c G (.%X.X XoX*X=X=X-X$XL.P.^.6.v H B y q @ :X:X:X:X:X:X:X:X:X:X:X:X:X:X:X:X:X:X",
":X:X:X:X:X:X:X:X:X:X:X:X:X:X:X:XO q U U R z B.*X%X(.=X-X=X=X=X.X/.(._.H.F $.r ~ ) t :X:X:X:X:X:X:X:X:X:X:X:X:X:X:X:X:X:X",
":X:X:X:X:X:X:X:X:X:X:X:X:X:X:X:X:XI .. ._ O , ].0.U.=X*X*X=X*X X/.(.~.F j #.;.X. .U :X:X:X:X:X:X:X:X:X:X:X:X:X:X:X:X:X:X",
":X:X:X:X:X:X:X:X:X:X:X:X:X:X:X:X:XY ..X.} < O N j N..X(.T.T. XE.M.W.c.< 1 , ~ ~ ) I :X:X:X:X:X:X:X:X:X:X:X:X:X:X:X:X:X:X",
":X:X:X:X:X:X:X:X:X:X:X:X:X:X:X:X:X~ +.a.<.1 5 h %.x.W.*X5.&./.L.b.B.7 z 5 O ' a.o.` :X:X:X:X:X:X:X:X:X:X:X:X:X:X:X:X:X:X",
":X:X:X:X:X:X:X:X:X:X:X:X:X:X:X:XX Y a.u.h.; $ $.b.n.=.8.7.=.R.0.%.P   2   o e.d.p.] :X:X:X:X:X:X:X:X:X:X:X:X:X:X:X:X:X:X",
":X:X:X:X:X:X:X:X:X:X:X:X:X:X:X:X:X: u.u.a.Y $ $.:.M.J -.Z.5.v.H ] A 3 .   t O.d.| e :X:X:X:X:X:X:X:X:X:X:X:X:X:X:X:X:X:X",
":X:X:X:X:X:X:X:X:X:X:X:X:X:X:X:X:XX U O...d . $ l A.=.*.P G *.0 j n .   : f q d : X :X:X:X:X:X:X:X:X:X:X:X:X:X:X:X:X:X:X",
":X:X:X:X:X:X:X:X:X:X:X:X:X:X:X:X:X:X; > i a.`   # #.2 3 #.J h + . b + 4 ` ~ ; y - o :X:X:X:X:X:X:X:X:X:X:X:X:X:X:X:X:X:X",
":X:X:X:X:X:X:X:X:X:X:X:X:X:X:X:X:X:X: o e l.D.7.m +   <         h $ l g.s.| q > - :X:X:X:X:X:X:X:X:X:X:X:X:X:X:X:X:X:X:X",
":X:X:X:X:X:X:X:X:X:X:X:X:X:X:X:X:X:X:Xo - ' ;Xz.F.e.i i K 1.Q ^ r . K d.U t t ; o :X:X:X:X:X:X:X:X:X:X:X:X:X:X:X:X:X:X:X",
":X:X:X:X:X:X:X:X:X:X:X:X:X:X:X:X:X:X:X:X:X; p ` ~ } +.G.z.[.'.z.s.I = : - > 9 :X:X:X:X:X:X:X:X:X:X:X:X:X:X:X:X:X:X:X:X:X",
":X:X:X:X:X:X:X:X:X:X:X:X:X:X:X:X:X:X:X:X:Xt > - o o w r B M S e r 9 - > > > :X:X:X:X:X:X:X:X:X:X:X:X:X:X:X:X:X:X:X:X:X:X",
":X:X:X:X:X:X:X:X:X:X:X:X:X:X:X:X:X:X:X:X:X> u 9 ; o * X = & = ; ; > @ ; ; :X:X:X:X:X:X:X:X:X:X:X:X:X:X:X:X:X:X:X:X:X:X:X",
":X:X:X:X:X:X:X:X:X:X:X:X:X:X:X:X:X:X:X:X:X:X:X& :Xo 9 9 y a a y > 9 :X:X:X:X:X:X:X:X:X:X:X:X:X:X:X:X:X:X:X:X:X:X:X:X:X:X",
":X:X:X:X:X:X:X:X:X:X:X:X:X:X:X:X:X:X:X:X:X:X:X:X:X:X- - : > > - :X:X:X:X:X:X:X:X:X:X:X:X:X:X:X:X:X:X:X:X:X:X:X:X:X:X:X:X",
":X:X:X:X:X:X:X:X:X:X:X:X:X:X:X:X:X:X:X:X:X:X:X:X:X:X:X:X:X:X:X:X:X:X:X:X:X:X:X:X:X:X:X:X:X:X:X:X:X:X:X:X:X:X:X:X:X:X:X:X",
":X:X:X:X:X:X:X:X:X:X:X:X:X:X:X:X:X:X:X:X:X:X:X:X:X:X:X:X:X:X:X:X:X:X:X:X:X:X:X:X:X:X:X:X:X:X:X:X:X:X:X:X:X:X:X:X:X:X:X:X",
":X:X:X:X:X:X:X:X:X:X:X:X:X:X:X:X:X:X:X:X:X:X:X:X:X:X:X:X:X:X:X:X:X:X:X:X:X:X:X:X:X:X:X:X:X:X:X:X:X:X:X:X:X:X:X:X:X:X:X:X",
":X:X:X:X:X:X:X:X:X:X:X:X:X:X:X:X:X:X:X:X:X:X:X:X:X:X:X:X:X:X:X:X:X:X:X:X:X:X:X:X:X:X:X:X:X:X:X:X:X:X:X:X:X:X:X:X:X:X:X:X",
":X:X:X:X:X:X:X:X:X:X:X:X:X:X:X:X:X:X:X:X:X:X:X:X:X:X:X:X:X:X:X:X:X:X:X:X:X:X:X:X:X:X:X:X:X:X:X:X:X:X:X:X:X:X:X:X:X:X:X:X",
":X:X:X:X:X:X:X:X:X:X:X:X:X:X:X:X:X:X:X:X:X:X:X:X:X:X:X:X:X:X:X:X:X:X:X:X:X:X:X:X:X:X:X:X:X:X:X:X:X:X:X:X:X:X:X:X:X:X:X:X",
":X:X:X:X:X:X:X:X:X:X:X:X:X:X:X:X:X:X:X:X:X:X:X:X:X:X:X:X:X:X:X:X:X:X:X:X:X:X:X:X:X:X:X:X:X:X:X:X:X:X:X:X:X:X:X:X:X:X:X:X"
};
