/* XPM */
static char *result[] = {
/* columns rows colors chars-per-pixel */
"60 60 214 2 ",
"   c #020203",
".  c #0C0604",
"X  c #0E0907",
"o  c #050609",
"O  c #0B060A",
"+  c #03080A",
"@  c #0C0C0C",
"#  c #140E0D",
"$  c #1C0C0B",
"%  c #160708",
"&  c #11100E",
"*  c #1F120F",
"=  c #060B12",
"-  c #0C0D11",
";  c #000512",
":  c #1B0E11",
">  c #0D1214",
",  c #141313",
"<  c #191714",
"1  c #1C1916",
"2  c #1E1B19",
"3  c #151618",
"4  c #230A0A",
"5  c #2C120E",
"6  c #38180D",
"7  c #3E0F12",
"8  c #2C1411",
"9  c #231A14",
"0  c #2A1913",
"q  c #211E1A",
"w  c #271211",
"e  c #331312",
"r  c #3C1311",
"t  c #381812",
"y  c #1F201F",
"u  c #25221D",
"i  c #2B241C",
"p  c #32291D",
"a  c #3B2B19",
"s  c #272422",
"d  c #2A2621",
"f  c #2D2922",
"g  c #342C23",
"h  c #342F29",
"j  c #362622",
"k  c #3D342B",
"l  c #393429",
"z  c #393632",
"x  c #40140F",
"c  c #421412",
"v  c #491613",
"b  c #491C12",
"n  c #411812",
"m  c #531B12",
"M  c #5A1B14",
"N  c #541311",
"B  c #6A1A0F",
"V  c #661912",
"C  c #44220E",
"Z  c #52230D",
"A  c #5A310D",
"S  c #422E1B",
"D  c #4A2514",
"F  c #592412",
"G  c #5A2A15",
"H  c #45331E",
"J  c #60230C",
"K  c #7B210E",
"L  c #632414",
"P  c #6B2217",
"I  c #6D2B13",
"U  c #732317",
"Y  c #7B2711",
"T  c #673C16",
"R  c #703D10",
"E  c #63340A",
"W  c #5C2B20",
"Q  c #4A3A27",
"!  c #453929",
"~  c #4B3D2D",
"^  c #403324",
"/  c #543223",
"(  c #523E2D",
")  c #593C2C",
"_  c #433B31",
"`  c #4B3F31",
"'  c #7F450B",
"]  c #6C4115",
"[  c #754519",
"{  c #50412D",
"}  c #5F4729",
"|  c #4E4232",
" . c #464033",
".. c #564533",
"X. c #564937",
"o. c #5B4A33",
"O. c #5F4D38",
"+. c #624524",
"@. c #654C2C",
"#. c #66472A",
"$. c #734C28",
"%. c #7A552C",
"&. c #614D31",
"*. c #665136",
"=. c #6B563A",
"-. c #685337",
";. c #745B3A",
":. c #755A37",
">. c #7D6039",
",. c #87390F",
"<. c #812F1C",
"1. c #892819",
"2. c #8E3314",
"3. c #873813",
"4. c #913C13",
"5. c #933417",
"6. c #982D16",
"7. c #AA330E",
"8. c #B03F0F",
"9. c #AF391C",
"0. c #884909",
"q. c #8E4914",
"w. c #994716",
"e. c #8F5417",
"r. c #935117",
"t. c #A64917",
"y. c #B24713",
"u. c #B64911",
"i. c #BC4D11",
"p. c #A85817",
"a. c #BA5314",
"s. c #B65A14",
"d. c #91671A",
"f. c #A6631A",
"g. c #B86716",
"h. c #B4701C",
"j. c #A5791A",
"k. c #844821",
"l. c #8D5924",
"z. c #88592A",
"x. c #835A31",
"c. c #976329",
"v. c #836337",
"b. c #83643A",
"n. c #8A693B",
"m. c #916C3C",
"M. c #976B35",
"N. c #9B713A",
"B. c #B96B24",
"V. c #B77125",
"C. c #A16D30",
"Z. c #A67337",
"A. c #C44B12",
"S. c #C55413",
"D. c #C45A13",
"F. c #CB5D13",
"G. c #D15F15",
"H. c #C46315",
"J. c #C76C19",
"K. c #CB6415",
"L. c #DA6F16",
"P. c #D46915",
"I. c #CA791C",
"U. c #D87314",
"Y. c #D67A17",
"T. c #DA7A16",
"R. c #D67519",
"E. c #E67E17",
"W. c #C94022",
"Q. c #C37422",
"!. c #C1792A",
"~. c #CA7F2A",
"^. c #C07C30",
"/. c #D6891A",
"(. c #DF941D",
"). c #E38D19",
"_. c #EA8B1A",
"`. c #E4851F",
"'. c #E4951B",
"]. c #E69A1B",
"[. c #ED9C1B",
"{. c #EB951A",
"}. c #F49E1B",
"|. c #E6A11F",
" X c #EDA41C",
".X c #EDAA1E",
"XX c #F3AD1D",
"oX c #F2B51E",
"OX c #FABC1F",
"+X c #CF8E24",
"@X c #D79626",
"#X c #D58622",
"$X c #E48A21",
"%X c #E29B21",
"&X c #DBA626",
"*X c #EAA421",
"=X c #E9A824",
"-X c #F3A821",
";X c #EEBA2D",
":X c #F2B421",
">X c #FABB21",
",X c #F6BE20",
"<X c #F6C326",
"1X c #FDCA21",
"2X c #F5CB2D",
"3X c #F7C429",
"4X c #FBD32D",
"5X c #FCDB33",
"6X c #FFE936",
"7X c #FBE63A",
"8X c #FFEB3B",
"9X c #FCE134",
"0X c #FFF23D",
"qX c None",
/* pixels */
"qXqXqXqXqXqXqXqXqXqXqXqXqXqXqXqXqXqXqXqXqXqXqXqXqXqXqXqXqXqXqXqXqXqXqXqXqXqXqXqXqXqXqXqXqXqXqXqXqXqXqXqXqXqXqXqXqXqXqXqX",
"qXqXqXqXqXqXqXqXqXqXqXqXqXqXqXqXqXqXqXqXqXqXqXqXqXqXqXqXqXqXqXqXqXqXqXqXqXqXqXqXqXqXqXqXqXqXqXqXqXqXqXqXqXqXqXqXqXqXqXqX",
"qXqXqXqXqXqXqXqXqXqXqXqXqXqXqXqXqXqXqXqXqXqXqXqXqXqXqXqXqXqXqXqXqXqXqXqXqXqXqXqXqXqXqXqXqXqXqXqXqXqXqXqXqXqXqXqXqXqXqXqX",
"qXqXqXqXqXqXqXqXqXqXqXqXqXqXqXqXqXqXqXqXqXqXqXqXqXqXqXqXqXqXqXqXqXqXqXqXqXqXqXqXqXqXqXqXqXqXqXqXqXqXqXqXqXqXqXqXqXqXqXqX",
"qXqXqXqXqXqXqXqXqXqXqXqXqXqXqXqXqXqXqXqXqXqXqXqXqXqXqXqXqXqXqXqXqXqXqXqXqXqXqXqXqXqXqXqXqXqXqXqXqXqXqXqXqXqXqXqXqXqXqXqX",
"qXqXqXqXqXqXqXqXqXqXqXqXqXqXqXqXqXqXqXqXqXqXqXqXqXqXqXqXqXqXqXqXqXqXqXqXqXqXqXqXqXqXqXqXqXqXqXqXqXqXqXqXqXqXqXqXqXqXqXqX",
"qXqXqXqXqXqXqXqXqXqXqXqXqXqXqXqXqXqXqXqXqXqXqXqXqXqXqXqXqXqXqXqXqXqXqXqXqXqXqXqXqXqXqXqXqXqXqXqXqXqXqXqXqXqXqXqXqXqXqXqX",
"qXqXqXqXqXqXqXqXqXqXqXqXqXqXqXqXqXqXqXqXqXqXqXqXqXqXqXqXqXqXqXqXqXqXqXqXqXqXqXqXqXqXqXqXqXqXqXqXqXqXqXqXqXqXqXqXqXqXqXqX",
"qXqXqXqXqXqXqXqXqXqXqXqXqXqXqXqXqXqXqXqXqXqXqXqXqXqXqXqXqXqXqXqXqXqXqXqXqXqXqXqXqXqXqXqXqXqXqXqXqXqXqXqXqXqXqXqXqXqXqXqX",
"qXqXqXqXqXqXqXqXqXqXqXqXqXqXqXqXqXqXqXqXqXqXqXqXqXqXqXqXqXqXqXqXqXqXqXqXqXqXqXqXqXqXqXqXqXqXqXqXqXqXqXqXqXqXqXqXqXqXqXqX",
"qXqXqXqXqXqXqXqXqXqXqXqXqXqXqXqXqXqXqXqXqXqXqXqXqXqXqXqXqXqX@ qXqXqXqXqXqXqXqXqXqXqXqXqXqXqXqXqXqXqXqXqXqXqXqXqXqXqXqXqX",
"qXqXqXqXqXqXqXqXqXqXqXqXqXqXqXqXqXqXqXqXqXqXqXqXqXqXqXqXqX, 3 # qXqXqXqXqXqXqXqXqXqXqXqXqXqXqXqXqXqXqXqXqXqXqXqXqXqXqXqX",
"qXqXqXqXqXqXqXqXqXqXqXqXqXqXqXqXqXqXqXqXqXqXqXqXqXqXqXqXqX, , M , qXqXqXqXqXqXqXqXqXqXqXqXqXqXqXqXqXqXqXqXqXqXqXqXqXqXqX",
"qXqXqXqXqXqXqXqXqXqXqXqXqXqXqXqXqXqXqXqXqXqXqXqXqXqXqXqXqXqXb K 3 @ qXqXqXqXqXqXqXqXqXqXqXqXqXqXqXqXqXqXqXqXqXqXqXqXqXqX",
"qXqXqXqXqXqXqXqXqXqXqXqXqXqXqXqXqXqXqXqXqXqXqXqXqXqXqXqXqXqXr e , # qXqXqXqXqXqXqXqXqXqXqXqXqXqXqXqXqXqXqXqXqXqXqXqXqXqX",
"qXqXqXqXqXqXqXqXqXqXqXqXqXqXqXqXqXqXqXqXqXqXqXqXqXqXqXqXqXqX> > , , qXqXqXqXqXqXqXqXqXqXqXqXqXqXqXqXqXqXqXqXqXqXqXqXqXqX",
"qXqXqXqXqXqXqXqXqXqXqXqXqXqXqXqXqXqXqXqXqXqXqXqXqXqXqXqXqX> 8 n > qXqXqXqXqXqXqXqXqXqXqXqXqXqXqXqXqXqXqXqXqXqXqXqXqXqXqX",
"qXqXqXqXqXqXqXqXqXqXqXqXqXqXqXqXqXqXqXqXqXqXqXqXqXqXqXqX@ 3 4 V qXqXqXqXqXqXqXqXqXqXqXqXqXqXqXqXqXqXqXqXqXqXqXqXqXqXqXqX",
"qXqXqXqXqXqXqXqXqXqXqXqXqXqXqXqXqXqXqXqXqXqXqXqXqXqX, qX, > 0 9 qXqXqXqXqXqXqXqXqXqXqXqXqXqXqXqXqXqXqXqXqXqXqXqXqXqXqXqX",
"qXqXqXqXqXqXqXqXqXqXqXqXqXqXqXqXqXqXqXqXqXqXqXqXqXqX& qX, 9 a.D qXqXqXqXqXqXqXqXqXqXqXqXqXqXqXqXqXqXqXqXqXqXqXqXqXqXqXqX",
"qXqXqXqXqXqXqXqXqXqXqXqXqXqXqXqXqXqXqXqXqXqXqXqXqXqXqXX > 8 A.w.qXqXqXqXqXqXqXqXqXqXqXqXqXqXqXqXqXqXqXqXqXqXqXqXqXqXqXqX",
"qXqXqXqXqXqXqXqXqXqXqXqXqXqXqXqXqXqXqXqXqXqXqXqX# # qX, , : 8.I.# qXqXqXqXqXqXqXqXqXqXqXqXqXqXqXqXqXqXqXqXqXqXqXqXqXqXqX",
"qXqXqXqXqXqXqXqXqXqXqXqXqXqXqXqXqXqXqXqXqXqXqXqXv r qX< = G ).}.[ qXqXqXqXqXqXqXqXqXqXqXqXqXqXqXqXqXqXqXqXqXqXqXqXqXqXqX",
"qXqXqXqXqXqXqXqXqXqXqXqXqXqXqXqXqXqXqXqXqXqXqXqX# $ qX> T P.'.[.g.$ qXqXqXqXqXqXqXqXqXqXqXqXqXqXqXqXqXqXqXqXqXqXqXqXqXqX",
"qXqXqXqXqXqXqXqXqXqXqXqXqXqXqXqXqXqXqXqXqXqXqXqXqXqXqXF [.3X=X[.R.8 qXqXqXqXqXqXqXqXqXqXqXqXqXqXqXqXqXqXqXqXqXqXqXqXqXqX",
"qXqXqXqXqXqXqXqXqXqXqXqXqXqXqXqXqXqXqXqXqXqXqXqXqXqX+ B -X$XP.].U.5 qXqXqXqXqXqXqXqXqXqXqXqXqXqXqXqXqXqXqXqXqXqXqXqXqXqX",
"qXqXqXqXqXqXqXqXqXqXqXqXqXqXqXqXqXqXqXqXqXqXqXX , qX@ , q.L e.`.Y @ qXqXqXqXqXqXqXqXqXqXqXqXqXqXqXqXqXqXqXqXqXqXqXqXqXqX",
"qXqXqXqXqXqXqXqXqXqXqXqXqXqXqXqXqXqXqXqXqXqXqX- < @ , , @ 0 ] r.1 qXqXqXqXqXqXqXqXqXqXqXqXqXqXqXqXqXqXqXqXqXqXqXqXqXqXqX",
"qXqXqXqXqXqXqXqXqXqXqXqXqXqXqXqXqXqXqXqXqXqXqX@ > qX- : [  Xd.; , - qXqXqX@ qXqXqXqXqXqXqXqXqXqXqXqXqXqXqXqXqXqXqXqXqXqX",
"qXqXqXqXqXqXqXqXqXqXqXqXqXqXqXqXqXqXqXqXqXqXqX, u i i H OX1X/.n u i p > I 4.+ qXqXqXqXqXqXqXqXqXqXqXqXqXqXqXqXqXqXqXqXqX",
"qXqXqXqXqXqXqXqXqXqXqXqXqXqXqXqXqXqXqXqXqXqX9 ~ &...z ../.4XXXy.<.) _ ` / D qXqXqXqXqXqXqXqXqXqXqXqXqXqXqXqXqXqXqXqXqXqX",
"qXqXqXqXqXqXqXqXqXqXqXqXqXqXqXqXqXqXqXqXqX, ` z o.p.:.` q.5X9X:X XV.| #.l - qXqXqXqXqXqXqXqXqXqXqXqXqXqXqXqXqXqXqXqXqXqX",
"qXqXqXqXqXqXqXqXqXqXqXqXqXqXqXqXqXqXqX@ ~ f d x.+X*XB.Q.&X4X7X:X1X.Xt.w.g ~ { 9 qXqXqXqXqXqXqXqXqXqXqXqXqXqXqXqXqXqXqXqX",
"qXqXqXqXqXqXqXqXqXqXqXqXqXqXqXqXqXqX& @.*.z %.B.=X%XJ.5X8X7X4X).[.(.F.t.z.b._ o.9 qXqXqXqXqXqXqXqXqXqXqXqXqXqXqXqXqXqXqX",
"qXqXqXqXqXqXqXqXqXqXqXqXqXqXqXqXqXqX^ -._ c.#.U i.Y.-X9X8X8X6X(.7.K.XXI.t.Q.O._ { @ qXqXqXqXqXqXqXqXqXqXqXqXqXqXqXqXqXqX",
"qXqXqXqXqXqXqXqXqXqXqXqXqXqXqXqXqXqXo.| c.q.V 7.D.y.oX<X7X8X8X=XH.Y.{. Xp.4.c.o.X.< qXqXqXqXqXqXqXqXqXqXqXqXqXqXqXqXqXqX",
"qXqXqXqXqXqXqXqXqXqXqXqXqXqXqXqXqX, O.>.z.W <.).oX*X2X4X6X7X8X5X XY.F.U.J.N $.=..., qXqXqXqXqXqXqXqXqXqXqXqXqXqXqXqXqXqX",
"qXqXqXqXqXqXqXqXqXqXqXqXqXqXqXqXqX< k ( M M r.>XoX-X7X0X4X4X8X4XD.u.U.U.4.V / g i , qXqXqXqXqXqXqXqXqXqXqXqXqXqXqXqXqXqX",
"qXqXqXqXqXqXqXqXqXqXqXqXqXqXqXqX  d ~ { / n b j.5XJ.9X0X4X:X7X(.H.3X<X].Z q.p ) O.f o qXqXqXqXqXqXqXqXqXqXqXqXqXqXqXqXqX",
"qXqXqXqXqXqXqXqXqXqXqXqXqXqXqXqXqX! =.=.{ X   6 ;X@X2X0X%Xa.#X].<X3X:Xf.f.p.[ -.-.! O qXqXqXqXqXqXqXqXqXqXqXqXqXqXqXqXqX",
"qXqXqXqXqXqXqXqXqXqXqXqXqXqXqXqXqX+.=.-.$.% % e R _.].6X+Xu.[.OX.X'._.A.y.4 r.@.X.Q + qXqXqXqXqXqXqXqXqXqXqXqXqXqXqXqXqX",
"qXqXqXqXqXqXqXqXqXqXqXqXqXqXqXqXqX+.v.v.p.r 5 v ,.K.].{.d.s.1X|.T.(.J L m + [ v.>.#.+ qXqXqXqXqXqXqXqXqXqXqXqXqXqXqXqXqX",
"qXqXqXqXqXqXqXqXqXqXqXqXqXqXqXqX  Q n.v.V.1 $ P 5.a.a.i.A.2.|.J.G.d.  *   + z.M.n.o.+ qXqXqXqXqXqXqXqXqXqXqXqXqXqXqXqXqX",
"qXqXqXqXqXqXqXqXqXqXqXqXqXqXqXqXqXq :.n.m.S 4 8 B i.2.t.D.T.D.<.k.F 8 .   s :.M.-.p X qXqXqXqXqXqXqXqXqXqXqXqXqXqXqXqXqX",
"qXqXqXqXqXqXqXqXqXqXqXqXqXqXqXqXqX@ ! ;.=.k X   b W.9.2.I a.6.c v B .   3 g u l 2 o @ qXqXqXqXqXqXqXqXqXqXqXqXqXqXqXqXqX",
"qXqXqXqXqXqXqXqXqXqXqXqXqXqXqXqXqX@ 1 1 h l.R . $ 1.$ 8 1.P c . . M X 6 %.| 1 d < @ qXqXqXqXqXqXqXqXqXqXqXqXqXqXqXqXqXqX",
"qXqXqXqXqXqXqXqXqXqXqXqXqXqXqXqXqXqX2 @ p Z.Q.g.A %   4         r % C V.N.-.s 1 , O qXqXqXqXqXqXqXqXqXqXqXqXqXqXqXqXqXqX",
"qXqXqXqXqXqXqXqXqXqXqXqXqXqXqXqXqXqXqX& 1 @.I.!.V.x.g a ' 0.' 0.A X T m.! d d 1 @ qXqXqXqXqXqXqXqXqXqXqXqXqXqXqXqXqXqXqX",
"qXqXqXqXqXqXqXqXqXqXqXqXqXqXqXqXqXqXqXqX- 3 S +...&.;.m.V.$X$X~.Z.l - 2 , 2 u @ qXqXqXqXqXqXqXqXqXqXqXqXqXqXqXqXqXqXqXqX",
"qXqXqXqXqXqXqXqXqXqXqXqXqXqXqXqXqXqXqXqXqXd u , @ @ p a a T E a j q , 1 2 2 # qXqXqXqXqXqXqXqXqXqXqXqXqXqXqXqXqXqXqXqXqX",
"qXqXqXqXqXqXqXqXqXqXqXqXqXqXqXqXqXqXqXqXqX2 s 2 < # - @ - ; > 3 3 2 , 1 1 qXqXqXqXqXqXqXqXqXqXqXqXqXqXqXqXqXqXqXqXqXqXqX",
"qXqXqXqXqXqXqXqXqXqXqXqXqXqXqXqXqXqXqXqXqXqXqXX qX@ q q f h h f q i qXqXqXqXqXqXqXqXqXqXqXqXqXqXqXqXqXqXqXqXqXqXqXqXqXqX",
"qXqXqXqXqXqXqXqXqXqXqXqXqXqXqXqXqXqXqXqXqXqXqXqXqXqX, , q s u < # qXqXqXqXqXqXqXqXqXqXqXqXqXqXqXqXqXqXqXqXqXqXqXqXqXqXqX",
"qXqXqXqXqXqXqXqXqXqXqXqXqXqXqXqXqXqXqXqXqXqXqXqXqXqXqXqXqXqXqXqXqXqXqXqXqXqXqXqXqXqXqXqXqXqXqXqXqXqXqXqXqXqXqXqXqXqXqXqX",
"qXqXqXqXqXqXqXqXqXqXqXqXqXqXqXqXqXqXqXqXqXqXqXqXqXqXqXqXqXqXqXqXqXqXqXqXqXqXqXqXqXqXqXqXqXqXqXqXqXqXqXqXqXqXqXqXqXqXqXqX",
"qXqXqXqXqXqXqXqXqXqXqXqXqXqXqXqXqXqXqXqXqXqXqXqXqXqXqXqXqXqXqXqXqXqXqXqXqXqXqXqXqXqXqXqXqXqXqXqXqXqXqXqXqXqXqXqXqXqXqXqX",
"qXqXqXqXqXqXqXqXqXqXqXqXqXqXqXqXqXqXqXqXqXqXqXqXqXqXqXqXqXqXqXqXqXqXqXqXqXqXqXqXqXqXqXqXqXqXqXqXqXqXqXqXqXqXqXqXqXqXqXqX",
"qXqXqXqXqXqXqXqXqXqXqXqXqXqXqXqXqXqXqXqXqXqXqXqXqXqXqXqXqXqXqXqXqXqXqXqXqXqXqXqXqXqXqXqXqXqXqXqXqXqXqXqXqXqXqXqXqXqXqXqX",
"qXqXqXqXqXqXqXqXqXqXqXqXqXqXqXqXqXqXqXqXqXqXqXqXqXqXqXqXqXqXqXqXqXqXqXqXqXqXqXqXqXqXqXqXqXqXqXqXqXqXqXqXqXqXqXqXqXqXqXqX",
"qXqXqXqXqXqXqXqXqXqXqXqXqXqXqXqXqXqXqXqXqXqXqXqXqXqXqXqXqXqXqXqXqXqXqXqXqXqXqXqXqXqXqXqXqXqXqXqXqXqXqXqXqXqXqXqXqXqXqXqX"
};
