/* XPM */
static char *result[] = {
/* columns rows colors chars-per-pixel */
"60 60 205 2 ",
"   c #030203",
".  c #030509",
"X  c #0D0609",
"o  c #040A0C",
"O  c #0C0C0C",
"+  c #0D0706",
"@  c #160609",
"#  c #1A040A",
"$  c #110D0C",
"%  c #1D0A0B",
"&  c #130A05",
"*  c #12100E",
"=  c #0C0E11",
"-  c #050C13",
";  c #0E1113",
":  c #151413",
">  c #191614",
",  c #1B1917",
"<  c #1D1B19",
"1  c #171718",
"2  c #240A0A",
"3  c #2B120E",
"4  c #25150D",
"5  c #31130F",
"6  c #290F11",
"7  c #201B14",
"8  c #211E1A",
"9  c #281613",
"0  c #3B1210",
"q  c #3A1D11",
"w  c #321911",
"e  c #24211D",
"r  c #2C261B",
"t  c #3C2D1C",
"y  c #392319",
"u  c #272521",
"i  c #2A2621",
"p  c #2D2923",
"a  c #342D24",
"s  c #3A2F22",
"d  c #342F29",
"f  c #3C3224",
"g  c #3B342C",
"h  c #3F3930",
"j  c #43110F",
"k  c #561B0F",
"l  c #54130D",
"z  c #431412",
"x  c #4D1512",
"c  c #4D1E13",
"v  c #531B14",
"b  c #5A1913",
"n  c #69150F",
"m  c #681B15",
"M  c #43210C",
"N  c #572F0D",
"B  c #4A2615",
"V  c #5D2212",
"C  c #542514",
"Z  c #40301F",
"A  c #593715",
"S  c #652B0F",
"D  c #63340C",
"F  c #672C17",
"G  c #752716",
"H  c #643719",
"J  c #713415",
"K  c #77391F",
"L  c #422C21",
"P  c #413629",
"I  c #45392A",
"U  c #4B3E2D",
"Y  c #493627",
"T  c #523E26",
"R  c #583A27",
"E  c #433B31",
"W  c #4C3F30",
"Q  c #5D451B",
"!  c #674216",
"~  c #7E4813",
"^  c #4F412F",
"/  c #55452F",
"(  c #464035",
")  c #534533",
"_  c #5C4B35",
"`  c #584833",
"'  c #654C2D",
"]  c #684D2C",
"[  c #644528",
"{  c #7F4E24",
"}  c #68502E",
"|  c #7D572E",
" . c #624E34",
".. c #6B5536",
"X. c #6A553A",
"o. c #675338",
"O. c #755733",
"+. c #745A37",
"@. c #7D5D35",
"#. c #7A5F3B",
"$. c #735C39",
"%. c #941507",
"&. c #97210E",
"*. c #892917",
"=. c #912A12",
"-. c #873814",
";. c #973E15",
":. c #973817",
">. c #AE3C0F",
",. c #A1380F",
"<. c #B33F0D",
"1. c #A72F1F",
"2. c #A33A11",
"3. c #B73F10",
"4. c #83470A",
"5. c #844F17",
"6. c #954B18",
"7. c #9A5616",
"8. c #B8490F",
"9. c #AA4512",
"0. c #A84B18",
"q. c #B34413",
"w. c #B74514",
"e. c #AA5A18",
"r. c #B45213",
"t. c #B65B15",
"y. c #976614",
"u. c #A86A1A",
"i. c #B66315",
"p. c #BA681B",
"a. c #B07716",
"s. c #8B4823",
"d. c #885427",
"f. c #9A5C27",
"g. c #A35828",
"h. c #84643A",
"j. c #886638",
"k. c #9C6E34",
"l. c #956D39",
"z. c #996E3B",
"x. c #AD6521",
"c. c #B06A22",
"v. c #AA702D",
"b. c #A26C30",
"n. c #AA7639",
"m. c #BE7D33",
"M. c #BD7332",
"N. c #C24D11",
"B. c #C45C14",
"V. c #C85912",
"C. c #C85611",
"Z. c #C36315",
"A. c #CC6113",
"S. c #CA6B16",
"D. c #C16919",
"F. c #D06413",
"G. c #CD7417",
"H. c #D47417",
"J. c #DA7C18",
"K. c #D64625",
"L. c #C37B2B",
"P. c #C67523",
"I. c #C86A24",
"U. c #8C6C41",
"Y. c #B38429",
"T. c #DE8617",
"R. c #DD841A",
"E. c #DD8A1A",
"W. c #E28C17",
"Q. c #E18C19",
"!. c #E68619",
"~. c #E39119",
"^. c #E9981B",
"/. c #ECA31D",
"(. c #EFAB1E",
"). c #F3AD1E",
"_. c #FBAB1D",
"`. c #F5A01A",
"'. c #FCB01D",
"]. c #C38D28",
"[. c #D99F27",
"{. c #E78621",
"}. c #E5A322",
"|. c #ECAA24",
" X c #EBA720",
".X c #F4BB24",
"XX c #F5B926",
"oX c #FAC11F",
"OX c #FCC222",
"+X c #FBCB25",
"@X c #F6CB2D",
"#X c #F9CF2A",
"$X c #F5C227",
"%X c #F9D32F",
"&X c #F9CE33",
"*X c #FCDD34",
"=X c #F7D734",
"-X c #FEE334",
";X c #FDE438",
":X c #FFEB3B",
">X c #F5E03A",
",X c #FFF23B",
"<X c #FFFA3E",
"1X c #BF8640",
"2X c None",
/* pixels */
"2X2X2X2X2X2X2X2X2X2X2X2X2X2X2X2X2X2X2X2X2X2X2X2X2X2X2X2X2X2X2X2X2X2X2X2X2X2X2X2X2X2X2X2X2X2X2X2X2X2X2X2X2X2X2X2X2X2X2X2X",
"2X2X2X2X2X2X2X2X2X2X2X2X2X2X2X2X2X2X2X2X2X2X2X2X2X2X2X2X2X2X2X2X2X2X2X2X2X2X2X2X2X2X2X2X2X2X2X2X2X2X2X2X2X2X2X2X2X2X2X2X",
"2X2X2X2X2X2X2X2X2X2X2X2X2X2X2X2X2X2X2X2X2X2X2X2X2X2X2X2X2X2X2X2X2X2X2X2X2X2X2X2X2X2X2X2X2X2X2X2X2X2X2X2X2X2X2X2X2X2X2X2X",
"2X2X2X2X2X2X2X2X2X2X2X2X2X2X2X2X2X2X2X2X2X2X2X2X2X2X2X2X2X2X2X2X2X2X2X2X2X2X2X2X2X2X2X2X2X2X2X2X2X2X2X2X2X2X2X2X2X2X2X2X",
"2X2X2X2X2X2X2X2X2X2X2X2X2X2X2X2X2X2X2X2X2X2X2X2X2X2X2X2X2X2X2X2X2X2X2X2X2X2X2X2X2X2X2X2X2X2X2X2X2X2X2X2X2X2X2X2X2X2X2X2X",
"2X2X2X2X2X2X2X2X2X2X2X2X2X2X2X2X2X2X2X2X2X2X2X2X2X2X2X2X2X2X2X2X2X2X2X2X2X2X2X2X2X2X2X2X2X2X2X2X2X2X2X2X2X2X2X2X2X2X2X2X",
"2X2X2X2X2X2X2X2X2X2X2X2X2X2X2X2X2X2X2X2X2X2X2X2X2X2X2X2X2X2X2X2X2X2X2X2X2X2X2X2X2X2X2X2X2X2X2X2X2X2X2X2X2X2X2X2X2X2X2X2X",
"2X2X2X2X2X2X2X2X2X2X2X2X2X2X2X2X2X2X2X2X2X2X2X2X2X2X2X2X2X2X2X2X2X2X2X2X2X2X2X2X2X2X2X2X2X2X2X2X2X2X2X2X2X2X2X2X2X2X2X2X",
"2X2X2X2X2X2X2X2X2X2X2X2X2X2X2X2X2X2X2X2X2X2X2X2X2X2X2X2X2X2X2X2X2X2X2X2X2X2X2X2X2X2X2X2X2X2X2X2X2X2X2X2X2X2X2X2X2X2X2X2X",
"2X2X2X2X2X2X2X2X2X2X2X2X2X2X2X2X2X2X2X2X2X2X2X2X2X2X2X2X2X2X2X2X2X2X2X2X2X2X2X2X2X2X2X2X2X2X2X2X2X2X2X2X2X2X2X2X2X2X2X2X",
"2X2X2X2X2X2X2X2X2X2X2X2X2X2X2X2X2X2X2X2X2X2X2X2X2X2X2X2X2X2XO 2X2X2X2X2X2X2X2X2X2X2X2X2X2X2X2X2X2X2X2X2X2X2X2X2X2X2X2X2X",
"2X2X2X2X2X2X2X2X2X2X2X2X2X2X2X2X2X2X2X2X2X2X2X2X2X2X2X2X2X: 1 2X2X2X2X2X2X2X2X2X2X2X2X2X2X2X2X2X2X2X2X2X2X2X2X2X2X2X2X2X",
"2X2X2X2X2X2X2X2X2X2X2X2X2X2X2X2X2X2X2X2X2X2X2X2X2X2X2X2X2X1 O 2X= 2X2X2X2X2X2X2X2X2X2X2X2X2X2X2X2X2X2X2X2X2X2X2X2X2X2X2X",
"2X2X2X2X2X2X2X2X2X2X2X2X2X2X2X2X2X2X2X2X2X2X2X2X2X2X2X2X2X2X2X$ , O 2X2X2X2X2X2X2X2X2X2X2X2X2X2X2X2X2X2X2X2X2X2X2X2X2X2X",
"2X2X2X2X2X2X2X2X2X2X2X2X2X2X2X2X2X2X2X2X2X2X2X2X2X2X2X2X2X2X2X$ , O 2X2X2X2X2X2X2X2X2X2X2X2X2X2X2X2X2X2X2X2X2X2X2X2X2X2X",
"2X2X2X2X2X2X2X2X2X2X2X2X2X2X2X2X2X2X2X2X2X2X2X2X2X2X2X2X2X2XO 2X: = 2X2X2X2X2X2X2X2X2X2X2X2X2X2X2X2X2X2X2X2X2X2X2X2X2X2X",
"2X2X2X2X2X2X2X2X2X2X2X2X2X2X2X2X2X2X2X2X2X2X2X2X2X2X2X2X2Xz b 2X2X2X2X2X2X2X2X2X2X2X2X2X2X2X2X2X2X2X2X2X2X2X2X2X2X2X2X2X",
"2X2X2X2X2X2X2X2X2X2X2X2X2X2X2X2X2X2X2X2X2X2X2X2X2X2X2X2XO ,.k 2X2X2X2X2X2X2X2X2X2X2X2X2X2X2X2X2X2X2X2X2X2X2X2X2X2X2X2X2X",
"2X2X2X2X2X2X2X2X2X2X2X2X2X2X2X2X2X2X2X2X2X2X2X2X2X2X5 2XS 9.6 2X2X2X2X2X2X2X2X2X2X2X2X2X2X2X2X2X2X2X2X2X2X2X2X2X2X2X2X2X",
"2X2X2X2X2X2X2X2X2X2X2X2X2X2X2X2X2X2X2X2X2X2X2X2X2X2X3 2Xv 0 l n 2X2X2X2X2X2X2X2X2X2X2X2X2X2X2X2X2X2X2X2X2X2X2X2X2X2X2X2X",
"2X2X2X2X2X2X2X2X2X2X2X2X2X2X2X2X2X2X2X2X2X2X2X2X2X2X2X+ 1 o q 3 2X2X2X2X2X2X2X2X2X2X2X2X2X2X2X2X2X2X2X2X2X2X2X2X2X2X2X2X",
"2X2X2X2X2X2X2X2X2X2X2X2X2X2X2X2X2X2X2X2X2X2X2X2XO O 2X: 1 O 2X2X2X2X2X2X2X2X2X2X2X2X2X2X2X2X2X2X2X2X2X2X2X2X2X2X2X2X2X2X",
"2X2X2X2X2X2X2X2X2X2X2X2X2X2X2X2X2X2X2X2X2X2X2X2XO 2X2X1 ; = O 2X2X2X2X2X2X2X2X2X2X2X2X2X2X2X2X2X2X2X2X2X2X2X2X2X2X2X2X2X",
"2X2X2X2X2X2X2X2X2X2X2X2X2X2X2X2X2X2X2X2X2X2X2X2X2X2X2X: > J 9 $ 2X2X2X2X2X2X2X2X2X2X2X2X2X2X2X2X2X2X2X2X2X2X2X2X2X2X2X2X",
"2X2X2X2X2X2X2X2X2X2X2X2X2X2X2X2X2X2X2X2X2X2X2X2X2X2X2X- V 9.F y 2X2X2X2X2X2X2X2X2X2X2X2X2X2X2X2X2X2X2X2X2X2X2X2X2X2X2X2X",
"2X2X2X2X2X2X2X2X2X2X2X2X2X2X2X2X2X2X2X2X2X2X2X2X2X2X2Xw Z.8.r.6.2X2X2X2X2X2X2X2X2X2X2X2X2X2X2X2X2X2X2X2X2X2X2X2X2X2X2X2X",
"2X2X2X2X2X2X2X2X2X2X2X2X2X2X2X2X2X2X2X2X2X2X2X% B 2Xo u.'.V.H.T.y 2X2X2X2X2X2X2X2X2X2X2X2X2X2X2X2X2X2X2X2X2X2X2X2X2X2X2X",
"2X2X2X2X2X2X2X2X2X2X2X2X2X2X2X2X2X2X2X2X2X2X2X3 -.. Q OX(.~.T.`.7.2X2X2X2X2X2X2X2X2X2X2X2X2X2X2X2X2X2X2X2X2X2X2X2X2X2X2X",
"2X2X2X2X2X2X2X2X2X2X2X2X2X2X2X2X2X2X2X2X2X2X2X$ 6 2X! OX.XQ.A.~.!.3 2X2X2X2X2X2X2X2X2X2X2X2X2X2X2X2X2X2X2X2X2X2X2X2X2X2X",
"2X2X2X2X2X2X2X2X2X2X2X2X2X2X2X2X2X2X2X2X2X2X2X; e e H &X-X(.V.E.H.z i 1 2X2X2X2X2X2X2X2X2X2X2X2X2X2X2X2X2X2X2X2X2X2X2X2X",
"2X2X2X2X2X2X2X2X2X2X2X2X2X2X2X2X2X2X2X2X2X2X8 U o.) g Y.-X#X XV.>.R ( ) f 2X2X2X2X2X2X2X2X2X2X2X2X2X2X2X2X2X2X2X2X2X2X2X",
"2X2X2X2X2X2X2X2X2X2X2X2X2X2X2X2X2X2X2X2X2X: W h ` h.X.d.(.+X.X>.<.p.W E d.w 2X2X2X2X2X2X2X2X2X2X2X2X2X2X2X2X2X2X2X2X2X2X",
"2X2X2X2X2X2X2X2X2X2X2X2X2X2X2X2X2X2X2XO U e p j.f.I.M.s.].,X).%.i.D.b.] J R d > 2X2X2X2X2X2X2X2X2X2X2X2X2X2X2X2X2X2X2X2X",
"2X2X2X2X2X2X2X2X2X2X2X2X2X2X2X2X2X2X: ' o.h +.n.D.!.:.f.>X:X%X}.0.K 0.-.d.h.E ` 7 2X2X2X2X2X2X2X2X2X2X2X2X2X2X2X2X2X2X2X",
"2X2X2X2X2X2X2X2X2X2X2X2X2X2X2X2X2X2Xs  .g @.[ G .X.XJ..X*X:X;X<X=X=.r.r.f.I._ E ^ O 2X2X2X2X2X2X2X2X2X2X2X2X2X2X2X2X2X2X",
"2X2X2X2X2X2X2X2X2X2X2X2X2X2X2X2X2X2X` U b.d.n %.}.).%X;X;X;X#X$X|.q.S.J.;.;.c._ ` 1 2X2X2X2X2X2X2X2X2X2X2X2X2X2X2X2X2X2X",
"2X2X2X2X2X2X2X2X2X2X2X2X2X2X2X2X2X> _ h.i.F F t./.Q.;X:X:X;X:X@XQ.V.E.).6.x s...) > 2X2X2X2X2X2X2X2X2X2X2X2X2X2X2X2X2X2X",
"2X2X2X2X2X2X2X2X2X2X2X2X2X2X2X2X2X> f / V b d.+XOXQ.;X:X:X:X:X-XG.B.~._.5.j R p r : 2X2X2X2X2X2X2X2X2X2X2X2X2X2X2X2X2X2X",
"2X2X2X2X2X2X2X2X2X2X2X2X2X2X2X2X. e ^ ^ Y z c a._.r.=X,X*X.X@XR.G.Q.V.!.q 3 Z W ` p o 2X2X2X2X2X2X2X2X2X2X2X2X2X2X2X2X2X",
"2X2X2X2X2X2X2X2X2X2X2X2X2X2X2X2X2Xg X.X.{ @ . 7.e.9./.:X|.w.p.}.-XE.!.u.# b [  .X.Y . 2X2X2X2X2X2X2X2X2X2X2X2X2X2X2X2X2X",
"2X2X2X2X2X2X2X2X2X2X2X2X2X2X2X2X2XT X.O.t.# + V b W.^.;X[.&.D.-X:X^.S.~ 6.# 5.] ` P O 2X2X2X2X2X2X2X2X2X2X2X2X2X2X2X2X2X",
"2X2X2X2X2X2X2X2X2X2X2X2X2X2X2X2X2X! h.h.e.0 3 x w.W.Q.^.7.m /.OX+XXXN.B.H   7.j.#.[ . 2X2X2X2X2X2X2X2X2X2X2X2X2X2X2X2X2X",
"2X2X2X2X2X2X2X2X2X2X2X2X2X2X2X2X. T l.h.b.7 % F N.J.F.N.,.r.Q.J._.y.S C   O u.b.j.} . 2X2X2X2X2X2X2X2X2X2X2X2X2X2X2X2X2X",
"2X2X2X2X2X2X2X2X2X2X2X2X2X2X2X2X2X< @.h.j.f 2 3 *.C.=.q.q.V.0.G t.z 4 +   u O.k.X.r o 2X2X2X2X2X2X2X2X2X2X2X2X2X2X2X2X2X",
"2X2X2X2X2X2X2X2X2X2X2X2X2X2X2X2X2XO I +...g X . M K.1.*.G G ;.z V m +   1 d e g , o O 2X2X2X2X2X2X2X2X2X2X2X2X2X2X2X2X2X",
"2X2X2X2X2X2X2X2X2X2X2X2X2X2X2X2X2XO , , a h.' X 2 *.4 3 *.G z + . v @ 4 ' / , i 1 O 2X2X2X2X2X2X2X2X2X2X2X2X2X2X2X2X2X2X",
"2X2X2X2X2X2X2X2X2X2X2X2X2X2X2X2X2X2X, - r n.L.p.N +   2       . z & M c.l...u , : + 2X2X2X2X2X2X2X2X2X2X2X2X2X2X2X2X2X2X",
"2X2X2X2X2X2X2X2X2X2X2X2X2X2X2X2X2X2X2X: > ] Y.m.L.| t a A 4.~ ~ t @ H l.I u u , O 2X2X2X2X2X2X2X2X2X2X2X2X2X2X2X2X2X2X2X",
"2X2X2X2X2X2X2X2X2X2X2X2X2X2X2X2X2X2X2X2X= 1 s ' ` _ #.U.L.{.{.L.z.P = , : 8 e O 2X2X2X2X2X2X2X2X2X2X2X2X2X2X2X2X2X2X2X2X",
"2X2X2X2X2X2X2X2X2X2X2X2X2X2X2X2X2X2X2X2X2Xp e ; O O r t A D D t f 8 : < < < * 2X2X2X2X2X2X2X2X2X2X2X2X2X2X2X2X2X2X2X2X2X",
"2X2X2X2X2X2X2X2X2X2X2X2X2X2X2X2X2X2X2X2X2X8 e e > = = O - - ; 1 : 8 : , , 2X2X2X2X2X2X2X2X2X2X2X2X2X2X2X2X2X2X2X2X2X2X2X",
"2X2X2X2X2X2X2X2X2X2X2X2X2X2X2X2X2X2X2X2X2X2X2X. 2XO < 8 p a d p 8 e 2X2X2X2X2X2X2X2X2X2X2X2X2X2X2X2X2X2X2X2X2X2X2X2X2X2X",
"2X2X2X2X2X2X2X2X2X2X2X2X2X2X2X2X2X2X2X2X2X2X2X2X2X2X: : e e e , O 2X2X2X2X2X2X2X2X2X2X2X2X2X2X2X2X2X2X2X2X2X2X2X2X2X2X2X",
"2X2X2X2X2X2X2X2X2X2X2X2X2X2X2X2X2X2X2X2X2X2X2X2X2X2X2X2X2X2X2X2X2X2X2X2X2X2X2X2X2X2X2X2X2X2X2X2X2X2X2X2X2X2X2X2X2X2X2X2X",
"2X2X2X2X2X2X2X2X2X2X2X2X2X2X2X2X2X2X2X2X2X2X2X2X2X2X2X2X2X2X2X2X2X2X2X2X2X2X2X2X2X2X2X2X2X2X2X2X2X2X2X2X2X2X2X2X2X2X2X2X",
"2X2X2X2X2X2X2X2X2X2X2X2X2X2X2X2X2X2X2X2X2X2X2X2X2X2X2X2X2X2X2X2X2X2X2X2X2X2X2X2X2X2X2X2X2X2X2X2X2X2X2X2X2X2X2X2X2X2X2X2X",
"2X2X2X2X2X2X2X2X2X2X2X2X2X2X2X2X2X2X2X2X2X2X2X2X2X2X2X2X2X2X2X2X2X2X2X2X2X2X2X2X2X2X2X2X2X2X2X2X2X2X2X2X2X2X2X2X2X2X2X2X",
"2X2X2X2X2X2X2X2X2X2X2X2X2X2X2X2X2X2X2X2X2X2X2X2X2X2X2X2X2X2X2X2X2X2X2X2X2X2X2X2X2X2X2X2X2X2X2X2X2X2X2X2X2X2X2X2X2X2X2X2X",
"2X2X2X2X2X2X2X2X2X2X2X2X2X2X2X2X2X2X2X2X2X2X2X2X2X2X2X2X2X2X2X2X2X2X2X2X2X2X2X2X2X2X2X2X2X2X2X2X2X2X2X2X2X2X2X2X2X2X2X2X",
"2X2X2X2X2X2X2X2X2X2X2X2X2X2X2X2X2X2X2X2X2X2X2X2X2X2X2X2X2X2X2X2X2X2X2X2X2X2X2X2X2X2X2X2X2X2X2X2X2X2X2X2X2X2X2X2X2X2X2X2X"
};
