/* XPM */
static char *c899d2bcb57444e2bbc5d84c1a1c4223TqOApYeMe4V9oCY1[] = {
/* columns rows colors chars-per-pixel */
"60 60 183 2 ",
"   c #090A1E",
".  c #090F25",
"X  c #101528",
"o  c #151B2C",
"O  c #191B2F",
"+  c #1C1D32",
"@  c #221F35",
"#  c #201D38",
"$  c #1D2234",
"%  c #1E243A",
"&  c #222234",
"*  c #222836",
"=  c #23253B",
"-  c #29273C",
";  c #252A3D",
":  c #292A3E",
">  c #262B41",
",  c #2A2E43",
"<  c #312E44",
"1  c #312E49",
"2  c #2C3246",
"3  c #2E344A",
"4  c #323547",
"5  c #33354B",
"6  c #39374C",
"7  c #353A4E",
"8  c #3A3C4E",
"9  c #343751",
"0  c #3A3651",
"q  c #353C52",
"w  c #3A3D53",
"e  c #3B3F58",
"r  c #413E59",
"t  c #3B414F",
"y  c #3C4254",
"u  c #3D435B",
"i  c #3F4859",
"p  c #424355",
"a  c #424A57",
"s  c #42465A",
"d  c #49465B",
"f  c #444B5D",
"g  c #494E5F",
"h  c #46515F",
"j  c #49525E",
"k  c #414661",
"l  c #464C62",
"z  c #4A4E62",
"x  c #494E69",
"c  c #465261",
"v  c #4B5365",
"b  c #4E5866",
"n  c #4E5469",
"m  c #4E5969",
"M  c #525367",
"N  c #525966",
"B  c #51566A",
"V  c #59576F",
"C  c #535A6C",
"Z  c #595C6E",
"A  c #515671",
"S  c #555C72",
"D  c #5A5D73",
"F  c #575E78",
"G  c #5A5F79",
"H  c #615F6D",
"J  c #54606E",
"K  c #576172",
"L  c #5B6275",
"P  c #5F6877",
"I  c #566079",
"U  c #5D647A",
"Y  c #5F697A",
"T  c #64606F",
"R  c #606577",
"E  c #636A77",
"W  c #62667C",
"Q  c #68657F",
"!  c #646A7D",
"~  c #696C7E",
"^  c #6A707E",
"/  c #5E6780",
"(  c #616680",
")  c #656C83",
"_  c #696E84",
"`  c #666E89",
"'  c #696F89",
"]  c #677182",
"[  c #6B7285",
"{  c #66718B",
"}  c #6C738C",
"|  c #6E7A8A",
" . c #717284",
".. c #71768C",
"X. c #73798E",
"o. c #797A8E",
"O. c #6D7691",
"+. c #6E7993",
"@. c #707791",
"#. c #747B93",
"$. c #7A7E94",
"%. c #757D99",
"&. c #787E98",
"*. c #817E99",
"=. c #7C8195",
"-. c #7C829B",
";. c #7E8899",
":. c #828396",
">. c #888596",
",. c #808598",
"<. c #83859C",
"1. c #84899C",
"2. c #84899B",
"3. c #898B9E",
"4. c #8185A0",
"5. c #8186A1",
"6. c #8389A3",
"7. c #878CA0",
"8. c #838AA4",
"9. c #8589A4",
"0. c #868AA5",
"q. c #828CA5",
"w. c #838DA6",
"e. c #878FA6",
"r. c #848AA4",
"t. c #898FA5",
"y. c #888CA7",
"u. c #8B8DA5",
"i. c #858FA8",
"p. c #888EA8",
"a. c #898FA9",
"s. c #8B91A6",
"d. c #8690A9",
"f. c #8791AA",
"g. c #8791AB",
"h. c #8C90AB",
"j. c #8C92A8",
"k. c #8E94AA",
"l. c #8F91AD",
"z. c #8C93AC",
"x. c #9093A6",
"c. c #9096A4",
"v. c #9194AC",
"b. c #9298AE",
"n. c #979AAD",
"m. c #959AAE",
"M. c #969CAC",
"N. c #9399AC",
"B. c #999BAE",
"V. c #8D95B1",
"C. c #8E98B1",
"Z. c #8E98B3",
"A. c #9496B1",
"S. c #979DB3",
"D. c #929CB5",
"F. c #949BB5",
"G. c #9A9FB3",
"H. c #9D9FB4",
"J. c #999FB9",
"K. c #9BA0B4",
"L. c #9CA1B3",
"P. c #9CA2B8",
"I. c #9CA2BB",
"U. c #A0A2B7",
"Y. c #A2A5BC",
"T. c #A4AABA",
"R. c #A5AABE",
"E. c #A4ABBC",
"W. c #A0A6C0",
"Q. c #A5AAC4",
"!. c #A9AEC1",
"~. c #A8ADC0",
"^. c #A8AEC4",
"/. c #A9AEC2",
"(. c #AAAEC9",
"). c #ABB0C4",
"_. c #ADB3C5",
"`. c #B2B7CA",
"'. c #B1B4CC",
"]. c #B3B7D2",
"[. c #BBBED1",
"{. c #BBC2D4",
"}. c #C1C8DA",
/* pixels */
"d.w.w.w.w.8.6.6.a.-.5.0.-.x 9 ' [ ) ) ..C C ] ) C v f v y $ 1.`.^.b.P.R.m.G.r.).x.=.=.m.~ 4  . .! _ ! ! ] E ! [ ^ E ~ j ",
"i.-.+.O.@.#.&.-.} -.-.} u F l.x ) n D f ! Y f L C v l v y O =.~.k.s.S.k.h.K.$.X.X.=.o.X.z 5 [ v ! R C M L R B g C M Z p ",
"C.-.+.+.@.} } } @.} %.s k l.y.U f ) u n v v v l v v z B s $ ,.~.e.$.} n C } [ _ ..| _ ~ f 4 _ g L L z y N ! L v j g M 8 ",
"d.#.` } O.} } } &.} u A h.0.} ..C f ) v l y B v v v c B s $ =.T.;.] } F I D ) =.} ) L ! f 2 _ v c C B v J ! E L v j C p ",
"D.-.} } O.} } @.' k x 0.A.} ' } @.n v ) c C f B v v c v y o ..M.+.) #.+.@.I ) #.W ` U D q 5 [ f a m L Y ! J v b c j N y ",
"-.@.} @.%.#.} ) l l h.z.} @.} } [ $.D l ) v L f v v v v y O o.L.@.} } ` { / / U } } ` ) s 2 } S C K K K L m f c c f N t ",
"F F I / ` } ( S x e.z.e.} ) -.} ) =.%.n l [ l B v v v B s $ ,.E.O.#.O.#.+.+.) I } } } $.v , } ` ! ! L m v v v m v j B y ",
"h.6.} G A n x u a.0.h.&.} @.} } %.` [ X.I l L C v n v v y $ ,.T.+.+.) +.{ O.} O.S } $.` w 3 =.! D [ [ K b c c v v c B y ",
"@.} -.h.e.U x 6.5.%.z.F.} } &.` @.) ` &.@.F n D C v c v f $ ] L.+.+.} { O.O.} +.@.U %.} u 3 ) n v L L n l v m m f c c f ",
"-.} @.` k -.z.a.&.@.6.0.} ` #.` @.@.} } } } U n L v c D 4 O N.L.+.} O.+.+.} O.#.#.} } [ q w } v f f l n n n C L K C c a ",
"W %.` x n %.-.5.@.} #.#.` ` } } } &.#.) ' %.} S B ! B z a * 3._.+.) } #.} } O.} X.} } } f 2 ` l C v v n n v n C ! L v a ",
"5.} l u Y.0.` -.} } } } } } } O.' O.@.O.} } } } D f L C 4 $ =.c.-.} +.#.| @.} S C ` #.` l > X.v l n v l v L L B C B z d ",
"&.s A 9.].-.&.@.} @.} } @.+.} } } } O.@.O.' } #...D C L y O X.2.;.X.@.@.} $.! 3 > ) X._ 5 2 X.v z B M z n L L B f z z d ",
"u x 5.'.5.' %.` } O.} } +.} { } @.O.} } O.O.} ` $.$.y f B X E =.` ) ` ) ) } B = , L ! B.f 8 M v M z z z z l f l z z z d ",
"( A.0.5.' %.%.@.} } } } } } } } O.O.O.O.O.#.} ` ) y 2 8 8 O N g 2 3 5 5 7 5 ; o ; , 4 [ 5 o $ , + + & - = + & > = = = @ ",
"%.(.A.@.@.' } @.@.} } } { } +.} ` ` O.&.#.' } %.v 2 y * v f * a u u u y s y f C B y y w 6 4 Z z V W W V z v v z M M M M ",
"- W v.:.} X.[ } } %.} ` ..X.} } Y L #.| ! ..| X.B $ % C {.v L [ ! E E E E ! ! ! E R _ ..a v [.1.F.I.I.F.z.a.a.a.k.r.6.%.",
"g & l X.} ) [ } ..} } ..#.} ` #.| ;.] ] ..o.;.] c L =.$.N.5 C L g h j j j j g g c B B v $ w T.R ' } } ` ) ` ` ` ) I D k ",
"D 6 6 v _ &...#...} } } } } } } | ] [ ] v $.E.! 8 X.P.;.! = C D j j j j v v c c v g f v ; 8 U.[ } O.O.} @.#.@.} %.} [ F ",
"v D z 2 l ....} } } } ` ) -.8.` X.L <.! q [ =.y v ] =...C ; D L v v b b b v v v B v v C 3 y T.X.` } O.O.} O.} } X.} [ L ",
"Z a v f 3 l ] ..} } O.` } g.C.#.} } $.U L L q q =.} [ } L 2 D S h h c c c c c c c _ ! v : l ~.! @.%.%.@.} } @.$.} } | U ",
"E a v B a y v [ $.} } } +.-.-.#.) X.U ) L y B @.&.X.....L , S D v v v b v v v v c ! R v , u P.) } } } / I U } @.! U ) L ",
"N b j f v i 3 l [ } } } O.} ` O.#.%.` I u u %.<.) ' ..} U = S W c c v v v v v v c v f v 2 3 s.[ } } } ` ) ` } } ) ! ` U ",
"C a N C h v f 3 n } @.' } @.O.#.) @.` 9 l <.&.) ..} ..} ) = B W c v v v v v v v B L v z 3 8 b.` } } ....} } ` W @...X.W ",
"P j v b f v m y 7 n } } @.%.` ` &.W 9 u -.6.` ' } ' ' ..W , V G f b v c v v v n v L [ $.> u s.` @.} } } ` } } S ) } } ! ",
"v g v B v v C n f q v ` @.} ' 6.) 5 n r.#.` &...} ..#.#.W > F _ m c c n v l c n f D B ) 2 w m.` } } } } ) ` } ` [ } [ U ",
"C B b c l c v v n w y z ) ;.X.! 7 l [ -.[ ! [ [ ` _ } ..W > V G c a v C c z v a C v f z , 6 y.` } ) S S W ) U U } X.| R ",
"B B c c B B v v B v z w z X.W 5 l <.=.U X.&.` X.X.X.....W , D G c B L D v ! o.R X.n D z > p y.@.#.} G U [ ) D U [ [ [ R ",
"v B v v C B z g v v M d 8 p d z =.X.[ } [ } .........._ D - V R v B D v s ! 7.=.! f M M > w v.' ` X...[ _ L L X.C D D B ",
"f s y q 5 6 w p w 8 p 8 6 5 p  .! f v L B v C B C M M Z Z - d 8 w 5 w y 5 8 z M 5 w 4 d 1 6 *.V n S S B v z B L l z v v ",
", % & - = : , + & - & & < - & p $ , : * : , ; : , ; = , 5   , = = = ; 2 , & + & # 5 & + # 1 6 1 2 ; = = > 2 , $ > > : ; ",
"Y.a.A.Q.Y.v._ 5 o.>.>.>.3.H 6 T R _ ! L R ! ! ~ ! _ ~ D g : o.B.=.<.:.$.<.3.<.<.<.<.$.r D u.0 Q ! R ) ) U R L f z f s y ",
"V.@.-.-.%.} 9 ) b.&...#.%.l 2 &.| o.] B v ! | ! v B C C a $ =.H.} -.@.%.%.} &.@.-.} n A ^.F.' x ..B B n v C C v B c B y ",
"&.) %.I -.-.> -.} } } ..) 3 = W L ! [ [ ! R B j v j a v g *  .=.} ( %.` } &.( @.` S n J.F.5.&.F u ) v n L f v c c f v 8 ",
"a.' %.} U U @.z.} #...} n % 5 } c c C ! ! B f f v v g v a $ [ =.} &.@.} @.} @.} n q W.e.6.a.-.) F x W B l B l U B v C y ",
"} ( 5.-.q 3 e.` } ..) ) y . 5 } m f a c v f c B v B v v y +  .3.) -.` } %.` ) x q S %.e.5.` ) %.&.D n L v l R U C C L a ",
"% S J.-.` ( } @...@.} -.D $ q ..L C v v c c c v v M z z p $ [ $.' ( %.@.%.} l n k 0.-.%.5.@.@.} } @.S B U n c C C B L a ",
"% } &.) &...} @.} ) ) $.W > 2 ) R L C v v v v z z Z D D f + [ =.} %.5.-.( x F h.h.' h.l.W.' } -.} } %.S v U f v L C D y ",
"&.W.@.@...` -.} $.#.X.#.[ u 6 X.C B c z c v B v g R _ E f +  .3.) h.%.) x u -.J.-.l.-.F.%.` -.) } $.} X.S x [ v ! D C 8 ",
"@.@.} } } -.) X.` } X.[ ] f 2 _ B z f v v v z c v Z Z B s $ ..:.' 5.-.k n a.a.%.5.5.Q.@.@.} } @.O.` } } @.U l U ! C B 8 ",
"@.} } } } } X.} } #.} [ [ y > [ l v v z v v z M l [ [ z w : _ :.} -.S k 5.I.-.@.5.5.-.@.} } } } } } @.@.} } ! n ! l C f ",
"@.} } ..} } ..} ` } | } } f 5 _ z n v v B v l z d B M M r O ..:.} k n 5.F.0.%.' } } } } } } @.} } } } } } } ) n f ! _ f ",
"%.....@.} ..X.} $.] | o.[ q 3 ..z n v v C M f d z v d D d O $.$.x l &.I.5.} %.' } } } } } } @.} } } } { } %.@.L l f C s ",
"} ` ) _ ! ! ` ) [ ! ! ) U y 5 C z v z z B v d s 5 d d M l - _ R x a.I.-.} } @.@.@.@.@.@.} } } } +.} } } O.=.-.X.-.U L f ",
"s q q q 7 7 q q 3 q y 3 y y % % $ $ + + = = + + $ : - O 2 @ M  .l.Q.0.) %.@.) &.} } } } } } } } O.` { +.} } %.-.&.&.U , ",
"f w w u y w y y y y y y y * * L R W W L ! W W W W W G d B - 6 _ (.l.} } %.} ` @.} } } } } } } O.+.{ { +.} } %.;.<.D D D ",
"} ! ` ..} ` ) ! } ! ! ] L 2 f }.P.Y.Y.P.Y.Y.P.Y.H./.'.H.u.w 5 w ` } @.@.` } @.} @.} } @.@.} } } +.O.+.} } -.6.-.[ 2 C $.",
"n l n L D n v z f v f f c 2 y T.) _ _ _ _ _ ) _ _ $.#.Q V , G D > S } } } } } } O.} } } } } } @.{ O.O.` } d.z.%.w l ..) ",
"D n v n [ } C v v v v v v , s ~.} O.} } O.} } } } #.&...L ; S W y 6 v ..;.! X.} ` } #.O.} O.O.%.A.} ) %.) ) } 5 B } $.D ",
"C l n ! C [ C z n n v v v , s ~.' } } } @.@.} %.-.@.} [ R , B B C 6 6 v ! ..[ [ @.} } ) } #.&.I.r.) #...#.} w s } &.#.D ",
"n v L ! D U v v n n v v v , s ~.` } } } O.} } #.%.@.} [ U 2 L ) v f f : v =.=.} } } } ` +.+.} V.` &.' } } e w &.=.$.} C ",
"n L ! f X.C f B n n v v v , s ~.} @.} } } } } ....} } ..R > C L v C v X , u ) } ` } } %.+.{ +.{ ..' } } 5 q <.-.} ..[ C ",
"L U L y ..K f B v v v v v , s ~.#.&.@.} @.} } @.@.} } ..) = q 2 f z w C L 7 n X...%.) %.) ` I.` #.} ` e l -.&.} ) ....D ",
") C v C n U B v v v v v v , s ~.} #.@.} @.} } @...} } ..R % s l , 5 X ..! f q f } &.` $.U } ^.} ..` u u -.r.) ;.} $.X.C ",
"Y v l D a L n v v v v v v , s ~.` } } } } } } ..} } @...D % L #.L C 2 D z z f q z ) } #.) } r.` ) w u 6...D y.-.-.=.} B ",
"B n v f v n f B v v v v v , s ~.' O.} } @.} } } } } } X.W ; B W C f B D D f B f , n ..} } ..` } 9 l %.-.} ..} } y.=.[ D ",
"C v v n v v n v v v n B v , y ~.&.@.} } } } } } @.} } ..U > D L f : C ! s z C v s , B #...#.) q v @.-.} ` $.@.) #.} X.L ",
"C v c v v v v v v v v v z , f `.-.%.} } } } } ..@.} } ..U > S L c 8 z C B L n l C n , q &.! 4 z @.$.X.} } } =.k.$.} X.L ",
"C c c v v v v c v v c z z , s _.-.#.} } } } @.%.#.} } ..U > S L v z f y B L v v l C d w l 6 p =.%.} } X.@.} @.b.X.| X.L ",
"C v v v v v v v z v v n v , q G.%.O.} } } @.-.<.#.} ..X.U > S D z B v 2 w f B D z g B z ; f :.$.` } } } @.} X.=.X.} X.L "
};
