/* XPM */
static char *bbffcc98800f4432f719e0c9af589874H17xiZBTfES1jKma[] = {
/* columns rows colors chars-per-pixel */
"60 60 224 2 ",
"   c None",
".  c #0C0C0E",
"X  c #0B0000",
"o  c #180505",
"O  c #0E0E12",
"+  c #100F14",
"@  c #121116",
"#  c #15141A",
"$  c #18171D",
"%  c #1A191E",
"&  c #1A1417",
"*  c #0D1D1D",
"=  c #240C0C",
"-  c #2A0D0B",
";  c #230603",
":  c #320D0A",
">  c #2B100E",
",  c #34120E",
"<  c #230E12",
"1  c #2D1312",
"2  c #2C161B",
"3  c #291519",
"4  c #331411",
"5  c #3B1513",
"6  c #3D1916",
"7  c #331B1D",
"8  c #3B1B1D",
"9  c #32171A",
"0  c #3B211F",
"q  c #1D1C23",
"w  c #1F1D29",
"e  c #171720",
"r  c #201E26",
"t  c #211F29",
"y  c #2E1B23",
"u  c #351B21",
"i  c #3A1D22",
"p  c #1B2829",
"a  c #222126",
"s  c #23222B",
"d  c #28282E",
"f  c #3D2124",
"g  c #38282A",
"h  c #2C2B34",
"j  c #212F30",
"k  c #352E37",
"l  c #283739",
"z  c #323136",
"x  c #34343B",
"c  c #39363D",
"v  c #431E1B",
"b  c #461B18",
"n  c #4C211E",
"m  c #44211C",
"M  c #52221E",
"N  c #432224",
"B  c #4B2524",
"V  c #44252A",
"C  c #4B262A",
"Z  c #4D2B2D",
"A  c #43282C",
"S  c #552522",
"D  c #532A2C",
"F  c #5B2D2C",
"G  c #572825",
"H  c #57312E",
"J  c #492D34",
"K  c #542D32",
"L  c #5D2E32",
"P  c #4D353C",
"I  c #44343A",
"U  c #5C3334",
"Y  c #563739",
"T  c #633434",
"R  c #6A3635",
"E  c #633539",
"W  c #643B3D",
"Q  c #6C3A3C",
"!  c #6A373B",
"~  c #723D3E",
"^  c #753B3B",
"/  c #63302E",
"(  c #401E21",
")  c #2E413F",
"_  c #6B403F",
"`  c #3C3C44",
"'  c #3A3743",
"]  c #463B47",
"[  c #553C46",
"{  c #453F52",
"}  c #6C3D41",
"|  c #643E47",
" . c #753E41",
".. c #793E43",
"X. c #344445",
"o. c #3B4B4C",
"O. c #3A4448",
"+. c #3E5050",
"@. c #43474D",
"#. c #5A444B",
"$. c #474555",
"%. c #584959",
"&. c #445555",
"*. c #4C545A",
"=. c #4B5C5C",
"-. c #495757",
";. c #53585C",
":. c #55504C",
">. c #644445",
",. c #6A4447",
"<. c #744344",
"1. c #7C4244",
"2. c #7C4549",
"3. c #77494C",
"4. c #664C54",
"5. c #774E52",
"6. c #67545E",
"7. c #7B5656",
"8. c #7B5A5A",
"9. c #51615F",
"0. c #564E62",
"q. c #4F5E60",
"w. c #595569",
"e. c #5D5B72",
"r. c #62596F",
"t. c #4E6161",
"y. c #536565",
"u. c #56696A",
"i. c #5A6C6C",
"p. c #596567",
"a. c #5C706F",
"s. c #5E6F70",
"d. c #5E7272",
"f. c #65686E",
"g. c #666578",
"h. c #637474",
"j. c #667A79",
"k. c #6A7D7C",
"l. c #697677",
"z. c #747375",
"x. c #814545",
"c. c #824649",
"v. c #854A4B",
"b. c #8B4C4D",
"n. c #824847",
"m. c #8C4E51",
"M. c #844F52",
"N. c #914F51",
"B. c #8D5154",
"V. c #82595B",
"C. c #895457",
"Z. c #935254",
"A. c #945659",
"S. c #955B5C",
"D. c #9B5A5D",
"F. c #995658",
"G. c #904F4F",
"H. c #9A5E61",
"J. c #815C61",
"K. c #A25E61",
"L. c #9A6467",
"P. c #8C6968",
"I. c #A46164",
"U. c #A86769",
"Y. c #B0686C",
"T. c #B07172",
"R. c #80615F",
"E. c #6C807F",
"W. c #74807D",
"Q. c #6C6B85",
"!. c #6D6C88",
"~. c #716E89",
"^. c #757788",
"/. c #787997",
"(. c #6D7884",
"). c #6E8281",
"_. c #738585",
"`. c #798586",
"'. c #748887",
"]. c #758789",
"[. c #768A89",
"{. c #7A8C8C",
"}. c #798987",
"|. c #7C908F",
" X c #7D8D90",
".X c #7E9191",
"XX c #7F83A0",
"oX c #81898B",
"OX c #828D92",
"+X c #81839B",
"@X c #839494",
"#X c #8B9599",
"$X c #869999",
"%X c #8A9E9D",
"&X c #8C9C9C",
"*X c #879697",
"=X c #919C9A",
"-X c #8DA09F",
";X c #898AA8",
":X c #8D9EA0",
">X c #929DA2",
",X c #9294AD",
"<X c #8B8EB1",
"1X c #9799B4",
"2X c #8D91B2",
"3X c #8EA1A2",
"4X c #93A3A3",
"5X c #96A6A8",
"6X c #99A5AA",
"7X c #9CABAC",
"8X c #97A8A7",
"9X c #9EA9B4",
"0X c #A1ADAE",
"qX c #A1ADB1",
"wX c #A5B3B4",
"eX c #ADB9BC",
"rX c #AAB5B8",
"tX c #B4BEBF",
"yX c #B3BDC2",
"uX c #AFBCC0",
"iX c #B8C3C6",
"pX c #C4CDD2",
"aX c #C7D3D6",
"sX c #C0CDCD",
/* pixels */
"                                      *X$X=.-.}._.                                                                      ",
"                                l.@X*X@X].-.'.E.).'.[.                                                                  ",
"                          `.&X9.&.%X8X.Xj.k.E.k._.).j.k.h.                                                              ",
"                        @X{.].l.=.@Xk.h.).k.j.j.j._._.t.k.*X{.                                                          ",
"                      }._.%X$X{.=.=.[.@X_.h.d.d.].$XE.q.@X@X$Xh.p.                                                      ",
"                    {.).*X3X%X@X=.-.-X.X{.'._.{.%X%Xu.y.%X@X%X=.y.$X                                                    ",
"                  {.[..X|.$X4X%Xy.=.@X%X%X%X%X%X3X$XX.u.&X{.4Xu.u.'.'.                                                  ",
"                '.]..X{.{.].$X%Xj.+.{.%X$Xl.k.%X3X).X.'.%X$X%Xl.i.@Xj.{.                                                ",
"              {.).$X].k.k.{.@X%X_.+.'._.=.&.=.d.$Xy.y.%X$X[.j.h.h.[.'.k.l.                                              ",
"            ].).{.(.d.y.y.].%X$X|.o.=.&.{.'.]._.u.o.'.8X@Xj.i.u._..X@X).'.                                              ",
"          @X).{.j.E.k.a.a.h.].{.j.p o.:X:X5X:X%X{.&.*X%X{.{.j.k.{.@X{.h.a.                                              ",
"          @X].{._._.k.j.k.y.d.l.p q.5X*X7XaXaX>X*X8Xk.h.h.'.|.].'._.h.i.y.{.                                            ",
"        *.t.'.{.@Xk.k.).).d.h.p u.7X{.0XaX`.^.aX8X&X].l &.'.{..X{.u.o.h.k.k.k.                                          ",
"        k.p h.%X)._._.'.E.k.p y.7X.XwXaXl.e $ f.aX7Xi.{.u.i.].).y.o.i._.].h.[.                                          ",
"      %X.X@X=.o.=.[..X'.).l i.k.}.rXaXl.e s s # w.iX7X X:Xi.y.-.y.[.{.).]._.j.k.            3 P                         ",
"    8X%X8XqXk.l j u.'._.o.y.7X].qXpXl.$ s r w s # ;.pXqX].%X&.y.$X$X{.d.i.).[.'.          1 = ; Y                       ",
"    4X X.X&Xy._.k.p u.=.=.7XOXqXpX^.e s w q q w s $ p.pX6X{.{.l h.%X:X]._.).j.d.k.      9 4 U 6 X Y                     ",
"  W..X].k.).t._.%Xy.* o.5X.X7XiX#Xq r r w q q q w s $ l.pX&Xu._.X.].t.i.&X{.k.t.l.    0 4 T ! U o o W                   ",
"  |..Xj.u.k.y.k.-X'.j k.&X>XyX0Xs s ' a q % q q q r r e OXiX{.@X_.j =.7X@X'.j.l.u.=XZ : F ! 1.T 9 < 4 >.                ",
"[.[.E.=.=.i.i..X$XX.l.h.@XeXeX` r ` x q % % $ % q q r w s 6XyX X%Xu.k.@X{.{..X{.s.g : F Q  .~ T u V 6 6 5.              ",
"'.[.j.u.y.i.[.4Xo.&.7X#X6XyXf.q @.d q q % $ $ $ % q q a e O.yXqX X:XX.h.$X$X_.=.% = F ! 1.Q ~ K 9 E R - f J.            ",
"k.[._._._.{.$Xu.p %X&X7XyX#Xs ] x q q % $ # # # $ q q w s e l.yX>Xh.u.=.[.i.X.p X B  ...1.Q ~ N 2 2.b.N o U 8.          ",
"[.].{.|.@X@X].p u.8X>XeXeX@.' x q q % $ # # @ # # $ % q w w s 6XeXOX3X=.X.i.l.& o ~ 1.2.~  .<.N u A.Z.K = 4 <.8.        ",
"i.o.=.y.j.).&.j 8X:XqXiX}.x z q q q % # # @ @ @ # # $ q q r $ *.yX>X&X_.l 3X:.o < c.c.2.E 2.M.Y f D.N.K C - V 7.        ",
"}.).k.i.y.u.p -.5X>XeXqX' h w w q % $ # # @ @ @ @ # $ % q q a q #XeX#X3X+.;.> 4 3 v.v.c.K 5.M.Z u A.Z.D W n o >.8.      ",
"{.8X-X.X{._.o.i.k.7XyX^.q r w q % # # # @ @ + @ @ # # # % q r $ *.eX>X4X(.= b B 3 v.v.m.[ 5.1.C u Z.b.c.1.T o 7 7.      ",
"{.3X.X_._.h.=.8X:XqXqX@.q a w q $ # # # @ + O + @ + a r # % w w a #X7X&Xp.- F K 3 2.m.H.#.W 1.D u A.c.A.v.~ 1 X W R.    ",
").].{.].].u.s.7X6XeX#Xw r w q % $ # # @ @ + O + O a x w # % q w $ f.yX#X7 b ~ L 3 <.L.H.K ! 1.H 7 C.m.x.v.<.8 o 8 V.    ",
"k.i.h._.{.=._.5X5XiXf.$ a q q % $ # # @ @ O O O a h # @ # $ q w q c eXoX- / 1.T 3 5.U.c.E ~ 1.T 7 M.A.1.v.1.i < - <.8.  ",
").y.y._.|.=.&X5XqXrXO.q r q % $ # # # @ + O . r z # + # # # $ q w q >X:.: <.1.E 2 <.D.1.1. ...T 8 3.H.1.v.1.N 2 , H V.  ",
"E.y.t.h.E.y.7X5XwX>Xd w w q % $ # # @ @ O . r z % O @ @ # # $ % q q f.f b 1.b.Q 2 } D.1.m.1...! i 2.I.1.v.1.N u v 6 5.8.",
"_.j.h.j._.h.8X5XeXOXq a w q % # # @ @ + O a h # O + + @ @ # # % q w g , F v.b.T 7 } A. .m.1.1.R i <.I.1.B.~ Z P H , ,.3.",
"p.&.=.=.h.y. X@X4Xf.q a q q $ # # @ @ + O a @ . O O + @ @ # # $ % w 3 5 R m.v.! 8 } Z. .v.1.1.R i } I.c.m.2.[ A T 5 U 5.",
"  {.@X*X'.k.[.*X@X*.q r q % $ # @ @ + + O . . . . O + @ @ # # # % w < b ~ b.v.! N W Z.~ c.2.1.T 7 W U.v.B.V.f 8 <.6 B 7.",
"  @X*Xk.i.OX0XwX-X*.q r q % $ @ @ @ + O O . . . . O O + @ @ # # $ q 1 D 1.m.b.~ V U A. .1.c.2.T 7 E Y.v.L.,.y C v.6 v 7.",
"  %X*XOX7X7X=X5XwX*.q r q % # # @ @ + O O O . . . O O + @ @ # # $ w g U ^ v.x.R ( U D. .1.v.1.T u E T.L.C.D y T B.5 v 7.",
"  4X7XwXrXrX7X@XrX*.q r q $ # # @ @ + O O O . . . O O O + @ # # % x { { #.#.[ P g A | D U T L B < U U.M.^ C 3  .v.5 m 7.",
"  '.'.{.{.k.u.t.k.@.q w q $ # @ @ @ @ + O O O O O O O O O @ @ # x x w.1X;X,X;XXX/./.~.~.Q.g.r.0.$.%.6.[ [ I y J Y 1 7 4.",
"  k.i.h.&.l =.y.u.` q w % # h a @ @ @ + O O O O O O O O O O # z z q 0.~.^.+X+X;X;X<X<X<X;X1X,X1X,X/././.~.~.Q.^.e.g.0.$.",
"  %X%X7X8X-X%X%X4X*.q w q h x % @ @ @ + + O O O O O O O + # z d $ q & y A P P ] ] $.%.%.w.w.e.g.g.Q.!.~.~.~.~.,X!.1Xg.$.",
"  8X4X4XwX@X@X%X>X*.e q z h # @ @ @ @ @ + O O O O O O + O a s @ $ q = n ^ x.1.T 8 8 R G D D C < 9 K J J P k k c { ` { $.",
"  =XwXwX&X X5X*X%X*.$ x ' q # # # @ @ @ + + O O O O + + + @ @ @ $ q - S v.F.Z.x.D Z S.v.v.Z.c.N C Z.v.x.~ B = B ! - 4 8.",
"  %XwXrX4X8X4X6X8X*.z ` r $ $ # # @ @ @ @ + O O O O + @ @ @ @ # $ q > S v.D.Z.1.D V A.x.v.Z.n.D C H.Z.Z.b.E u W D.n m V.",
"_.h.9.=.p.=.=.y.i.*.c r % % $ # # # # @ @ + + + + @ @ @ @ @ @ # $ q - S v.D.Z.1.D N L.S.A.b.x.D V H.Z.Z.1.B < U D.b v P.",
"8X4X'.h.{.u.o.k.'.&.q q q % $ # # # # @ @ + + + + @ @ @ @ @ @ # $ q 1 G v.Z.D.x.D J U.v.Z.b.x.Z C K.Z.b.D f r K D.b U P.",
"4X4XwXiXeX.Xi.yXsXp.# p q % $ # # # # @ @ @ O O @ @ @ @ @ @ # # $ q 1 G v.v.K.1.Y >.A.1.A.b.1.C K I.Z.~ J ^.g.K B.v H V.",
"&X@XrX0X&X&X=.4X4Xp.$ w q % $ $ # # # @ @ O # a @ @ @ @ @ # # # $ q > G b.2.D.v.,.Y Z.c.Z.v.1.V U I.Z.! B f.w.N B.b v V.",
"[.7XwX}.4X_.u.4X%Xp.$ w q % $ $ # # # # @ # z d @ @ @ @ # # # # % q 1 G B.1.L.S.K Z A.v.Z.b. .V U U.Z.R K f.w.A m.n m V.",
"3X@X[.[.k.j u.'.k.X.q w q q % $ # # # @ % z q @ @ @ @ # # # # # q q 1 G Z.C.U.2.N K H.v.F.b. .i W Y.Z.Q z.P h 6.m.b m V.",
"  u.l.l.=.&.&.-.=.l w w q q % $ # # @ % x s O @ @ @ # # # # # $ q w 1 S m.I.Z. .N U I.b.F.b.~ 9 } I.m.C.%.; X ] H.b m V.",
"  &X7X0X4X*X%X5X:X*.q r q q % $ $ # q x d @ @ # # # # # # # # % q w 1 S m.K.m...i E U.b.Z.Z.~ 7 } S.c.F.6.I r [ S.b v 8.",
"  7XeXrX7X{.k.3X3X$.q r q q % % # w c d # # # # # # # # # # $ % q r 1 S m.F.N.~ 7 } Y.b.Z.Z.<.7 W M.} T.A.5.c K A.b v 8.",
"  7X5XqX7X%X#X{.%X@.q r q q % % # s d # # # # # # # # # # # $ % q w 1 S N.F.b.~ 7 <.Y.b.N.Z.1.u W 5.3.T.G.x.C f v.S v 7.",
"  @X@X6XwXwX8X&X&X;.q a w q q % % $ $ $ $ # # # # # $ $ $ $ % % q a > M B.F.m.Q 7 M.I.N.Z.N.c.i E P.| U.b.x.Z 2 <.S v 7.",
"  [.l.o.-.k.k.l.l.O.q r w q q % % % % % $ $ $ $ $ $ $ $ $ % $ a w a 2 i W Q T Z = Q 1.1.x.x.^ 8 >.L.V Y.N.c.Z 2 } F v 7.",
"4X%X_.h.}.@X{.].=.* a r w q q % q q % % % % % % % % % % % $ h ` a r w.^.~.~.Q.g.w.w.0.4.4.[ [ [ #.>.y <.! T f < D n , 7.",
"&XwXeXiXiXrXwXj.X.j r r w w q q q % % % % % % % % % q q $ h x a w s g.,X;X9X1X2X2X2X<X<X;X,X,X,X/.!.Q.g.r.w.0.$.$.] c #.",
"&XOX0XtX0XrX}.+.$Xl q r w w q q q q q q % % q q q q q % h ` r q r s k ] %.0.w.e.g.Q.~.^./.+X+X;X;X/./././././.1X~.,Xe.$.",
"*X7X4X0X0X%X&.&X&Xp h x w w q q q q q q q q q q q q % h ` d w r r a ; 5 / / D 8 < V C Z J P I k ' #.$.%.%.w.w.e.e.g.e.$.",
"&X%X%X&X'.-.].wX*Xx ` x w r w w q w w q q q q q q q z ` s q w r r a 4 G B.Z.v.W 9 <.v.1.1.v.R 8 1 ~ B ! / F 0 & 2 2 7 4.",
"  &.&.y.) =.u.q.y.@.d r r r r w w w w w w w w w q a c a q r r r a a 4 M b.b.b.! 9 2.Z.B.Z.S.v.D f H.<.H.Z.b.Q 7 i v 8 R.",
"  OX[.*X*X4X{.@X5Xq.q s r r r r w w w w w w w w w w r w w r r r a a 4 M b.b.b.! 2 } N.B.B.Z.c.D i A.c.D.Z.m._ f i D Y 3.",
"  %X4X8X8X&X&X7X8X*.q s s r r r r r r r r r r r r r r r t r r a s a 4 M b.b.b.~ 7 W Z.Z.Z.Z.v.K i Z.B.D.Z.b.1.f f W Z >.",
"  4X%X8X&X*X*X:X7X;.q s s a a a a a a s s t r r r r a a s a a s a s 1 n b.b.m.C.A E Z.Z.Z.m.c.U u B.K.D.Z.Z.1.H [ D 8 >.",
"  %X4X8X&X6X@X@XwX*.q s r a r r r r r r r r r r r r a r r r r r r a > b v.v.S.5.u K Z.Z.Z.b.x.U 9 m.U.D.N.G.v.>.g 5 6 _ ",
"  #X@X#X*X&X@X[.=X;.s h h h h h h h h h h h h h h h h h h h h h h h 7 D C.L.L.<.V Y S.H.D.m.v.W f C.T.I.A.A.S.>.u N B >."
};
