/* XPM */
static char *_e69c18fec4c409ad4d050383a499a76JOj9SDzBTshImUJ6[] = {
/* columns rows colors chars-per-pixel */
"60 60 222 2 ",
"   c None",
".  c #2E190D",
"X  c #341A0C",
"o  c #3A1B09",
"O  c #351C13",
"+  c #3A1E12",
"@  c #2A0E06",
"#  c #2D2509",
"$  c #2B2C0B",
"%  c #292909",
"&  c #32240B",
"*  c #3C230B",
"=  c #332C0D",
"-  c #392609",
";  c #26340B",
":  c #263B0C",
">  c #2A3B0E",
",  c #2D350D",
"<  c #32340E",
"1  c #36350E",
"2  c #3A2314",
"3  c #3C241A",
"4  c #372817",
"5  c #2D3B11",
"6  c #333B12",
"7  c #383412",
"8  c #3A2B25",
"9  c #3D3334",
"0  c #441C06",
"q  c #581D02",
"w  c #43220D",
"e  c #4C240A",
"r  c #472509",
"t  c #53260B",
"y  c #58270B",
"u  c #432A14",
"i  c #4B2B15",
"p  c #442B1A",
"a  c #4A2D1B",
"s  c #462513",
"d  c #5D2E12",
"f  c #522D16",
"g  c #493318",
"h  c #553215",
"j  c #5B3113",
"k  c #55331C",
"l  c #57381B",
"z  c #642B0A",
"x  c #682A08",
"c  c #6A330E",
"v  c #74320C",
"b  c #7D350C",
"n  c #7E360A",
"m  c #633B1D",
"M  c #693716",
"N  c #723C1C",
"B  c #773914",
"V  c #6F2E0B",
"C  c #452F25",
"Z  c #493628",
"A  c #543B23",
"S  c #5C3C23",
"D  c #553825",
"F  c #433B3D",
"G  c #4A3D3C",
"H  c #463633",
"J  c #543F31",
"K  c #643B21",
"L  c #6C3E22",
"P  c #29410F",
"I  c #2D4411",
"U  c #2F4A12",
"Y  c #324514",
"T  c #314A14",
"R  c #384517",
"E  c #76421E",
"W  c #4D402E",
"Q  c #5C4326",
"!  c #5A4429",
"~  c #4D4235",
"^  c #534633",
"/  c #584A36",
"(  c #5D523E",
")  c #674729",
"_  c #724324",
"`  c #7B4421",
"'  c #78492A",
"]  c #75502F",
"[  c #684C35",
"{  c #774D31",
"}  c #6C5433",
"|  c #67513B",
" . c #765836",
".. c #7C633B",
"X. c #7F683F",
"o. c #5A411F",
"O. c #4A4243",
"+. c #4B4749",
"@. c #534B4C",
"#. c #564947",
"$. c #575559",
"%. c #574F50",
"&. c #665A45",
"*. c #695A55",
"=. c #6D634B",
"-. c #6E684D",
";. c #71694E",
":. c #71664D",
">. c #746C51",
",. c #75655F",
"<. c #615E62",
"1. c #64656A",
"2. c #67666A",
"3. c #6C6E73",
"4. c #6E7176",
"5. c #74767B",
"6. c #78787D",
"7. c #706C6F",
"8. c #5D5F64",
"9. c #843A0D",
"0. c #8B3C0D",
"q. c #82360B",
"w. c #923D0C",
"e. c #863C11",
"r. c #9B440D",
"t. c #94420E",
"y. c #894717",
"u. c #9A4814",
"i. c #965114",
"p. c #A2460D",
"a. c #A5490E",
"s. c #AB4C0E",
"d. c #B44E0D",
"f. c #BC530E",
"g. c #B5500F",
"h. c #A34A12",
"j. c #AD4E12",
"k. c #AC5117",
"l. c #BC5513",
"z. c #B55315",
"x. c #B7691A",
"c. c #AF641A",
"v. c #844E2B",
"b. c #864B24",
"n. c #87512D",
"m. c #95562B",
"M. c #825534",
"N. c #895836",
"B. c #975E35",
"V. c #A25B2B",
"C. c #84643E",
"Z. c #97633B",
"A. c #A26334",
"S. c #AC6B3B",
"D. c #A76738",
"F. c #B26E3A",
"G. c #B76F36",
"H. c #B5713D",
"J. c #BA733B",
"K. c #AF6728",
"L. c #C4550D",
"P. c #C9590F",
"I. c #C65A13",
"U. c #C67419",
"Y. c #D47D15",
"T. c #D47E19",
"R. c #C4772F",
"E. c #866843",
"W. c #996943",
"Q. c #967A4C",
"!. c #997A53",
"~. c #8A7248",
"^. c #A46E44",
"/. c #A86E43",
"(. c #AA754B",
"). c #A97347",
"_. c #BD7944",
"`. c #B77A49",
"'. c #A97A51",
"]. c #B27E53",
"[. c #8E5F41",
"{. c #C37D44",
"}. c #D9831B",
"|. c #9A814F",
" X c #9A8350",
".X c #BA8253",
"XX c #B8865A",
"oX c #B99567",
"OX c #C9854B",
"+X c #C68A57",
"@X c #D38F54",
"#X c #D48F56",
"$X c #CE925C",
"%X c #D5945B",
"&X c #DD995C",
"*X c #D99458",
"=X c #D18B4D",
"-X c #E19D5D",
";X c #E4A15F",
":X c #C79564",
">X c #DB9D65",
",X c #D59A65",
"<X c #E39E61",
"1X c #DAAD75",
"2X c #E4A363",
"3X c #E9A665",
"4X c #EAA866",
"5X c #E5A56A",
"6X c #E9A769",
"7X c #EAA96A",
"8X c #E7A96C",
"9X c #E9AC72",
"0X c #F0AC6C",
"qX c #7B7D83",
"wX c #7F8185",
"eX c #84888D",
"rX c #898C91",
"tX c #8F9298",
"yX c #979BA1",
"uX c #E2B587",
"iX c #EAC993",
"pX c #F6D6A1",
/* pixels */
"                                                                                                                        ",
"                                                                                                                        ",
"                                                                                                                        ",
"                                                                                                                        ",
"                                                        X p D D i *                                                     ",
"                                                  i { Z.(..X+X+X+X'.[.K X                                               ",
"                                              i M.+X5X7X7X6X6X4X4X6X6X>X(.k                                             ",
"                                            a ^.8X4X2X2X2X2X2X2X2X;X2X2X7X$XK                                           ",
"                                          + ^.8X;X;X2X2X2X2X2X2X3X;X2X2X-X6XXXs                                         ",
"                                          M.5X;X2X2X2X2X2X2X2X2X2X2X;X2X2X2X5X{                                         ",
"                                        s $X7X6X8X3X2X2X2X2X2X2X2X2X3X5X8X3X7XW.                                        ",
"                                        ' >X.X`.+X%X2X8X3X2X2X2X3X3X>X$XOXOX5X(.                                        ",
"                                      2 N.^.9.r.u.i.V.`.%X3X2X2XOXS.V.u.h.u.m.W.k                                       ",
"                                      Z.).v.q.l.l.l.f.h.b.%X8XD.u.z.l.l.l.p.c N.!.|                                     ",
"                                    X '.>X`.V v 9.t.r.r.x ^.$XB b u.t.0.n x ` )..XD                                     ",
"                                    u Z.9X*XA.M e 0 0 0 t ` B.d 0 o o e N B.OX2X^.f                                     ",
"                                X { .Xv.:X@X{.A.N d N B.Z.Z.E.M.N.v.M j b.H.#X,Xv.].{                                   ",
"                              2 s XX7X` _ >X=Xm.m.B._.2X*X9XuXuX,X&XF.A.m.F.<Xn.N >X>XS .                               ",
"                            # 7 = K $Xv.y n.%X@XH.` +X&X6X3X3X4X3X&XA.m.{.OXZ.y M $X.Xg = .                             ",
"                        & = Y T T = l M u.q.v.B.c z v.N A.{.OX`.n.E N t N ` B u.V ' i , T 6 = .                         ",
"                    X X 6 Y U U U T & z l.I.b q t.j.p.p.t.e.B 9.w.r.h.u.x y k.I.9.0 6 U U T Y 6 & +                     ",
"                O m ^.K < T U U U T 7 0.I.p.q.k.I.P.P.P.l.e.0.l.I.I.P.I.I.w.v z.k.t 6 U U U U T R = X                   ",
"              i Z.,X7X$Xh < T U T Y - h.z.b j.P.f.s.p.0.v z x v 0.p.d.f.P.I.e.0.I.z $ U U U T T < h (.W.w               ",
"            K XX6X3X2X6X.Xu 6 T T 5 r j.0.u.l.r.n x x x b h.h.b z z x n h.l.l.v k.9.# I U U T < l +X8X6X.Xk             ",
"          _ ,X6X2X2X2X2X6X).* Y T $ t k.q.u.9.x x b r.s.l.L.L.g.j.t.b x y b j.v u.y.o , U T 5 l $X6X2X2X7X+Xk           ",
"        K ,X3X2X2X2X2X2X2X5XN.= T $ t u.V V z 0.j.f.P.P.P.L.L.L.P.L.f.s.9.x x z e.y.o , U Y 7 ].8X2X2X2X<X6XXXi         ",
"      X Z.6X2X2X2X2X2X2X2X3X:Xg I $ t y.x v p.f.P.P.P.L.P.P.L.L.L.L.L.P.f.a.b t b B - : T , M.5X2X2X2X2X2X2X6XM.@       ",
"      0 ).3X2X2X2X2X2X2X2X2X>X) > , r t.r.d.L.P.P.L.P.P.P.L.L.L.L.L.P.L.P.L.g.p.u.c # : Y u +X6X2X2X2X2X2X2X2X).w       ",
"      s H.2X2X2X2X2X2X2X2X2X2X) > > * 0.L.P.L.L.P.P.P.P.P.P.P.L.L.L.L.L.P.L.P.P.s.y % P 5 ) >X2X2X2X2X2X2X2X-X_.f       ",
"      w A.-X2X2X2X2X2X2X2X3X%Xl I I # x j.L.L.L.L.P.P.L.P.P.L.L.L.L.L.L.L.L.P.f.9.* $ P < { 2X2X2X2X2X2X2X3X*XJ.d       ",
"        v.%X3X2X2X2X2X2X2X6X'.= Y I ; * 0.f.P.L.L.L.L.L.L.L.L.L.L.L.P.P.P.P.f.r.y & ; I > ] 5X2X2X2X2X2X2X3X=XD.s       ",
"        f /.2X2X2X2X2X2X2X>X_ , T U : # t t.f.L.L.L.L.L.L.L.L.L.L.L.L.P.P.f.p.V o $ : T > m %X3X2X2X2X2X3X-X{.v.X       ",
"        e b.OX2X2X2X2X2X&XB.7 Y T U U > & y t.d.L.P.P.P.L.L.P.P.L.L.L.L.d.r.v w $ : I U Y u S.-X3X2X2X2X<XOXD.y         ",
"      + v.J.J.&X2X2X2X#XJ.N < T U U T I ; & t 9.a.g.f.L.L.L.P.L.L.l.g.s.t.z * $ ; P U U T < ` {.*X2X2X2X*XJ.V.N.w       ",
"      i S.R.*X3X2X2X2X*X*X+Xi I U U T T I : # w z 9.r.a.s.s.s.s.a.p.w.v e & ; : P T U T Y u (.*X*X2X2X2X2X@XJ._._       ",
"      ` R.OX2X2X2X2X2X2X3X5X_ , T T T U U U > ; # * t z v B B B c z r & $ ; : I T T U T 5 S >X4X2X2X2X2X2X2X{.R.A.0     ",
"    w B.G.OX3X2X3X2X2X2X2X6XN.& T T T U U T T I : ; $ # & - - & # % ; ; : P I U T T T T $ { 5X2X2X2X2X2X2X3XOXD.H.j     ",
"    k S.m.^.6X;X2X2X2X2X2X2XN.o = Y T U U T U T U U I > ; $ ; ; 5 I I U T T T T T T Y 6 o n.5X2X2X2X2X2X2X3X+X` H._     ",
"    S F.b.W.8X3X8X8X5X>X>X@X` + 2 = 1 6 I I I 5 5 6 < 7 l l l g < 6 5 5 5 5 5 5 5 = & & o v.%X2X>X2X5X6X6X3X+XN F.v.    ",
"    k F.b.W.9X+XW.M.) [ ) L S *.p o 0 e t h j j m t l XX1X1X1XoX] e M M M c c M j d y i *.{ ` ) [ { M.W..X6X+XM F.b.    ",
"    i S.m._  ./ #.#.G #.O.G Z H j K.x.x.x.U.U.U.R.y.!.!.!.iXiX'.~.E U.}.T.T.T.T.U.U.R.E ,.Z H @.$.%.@.*./ { B.M G.v.    ",
"    X B.D.s *.7.%.O.F O.O.F F H s y.U.}.T.T.T.T.U.y. .o @ !.!.@ a E x.T.T.T.Y.Y.Y.x.i.d 3 H F F F G F $.7.*.+ N _._     ",
"      _ N *.6.F @.5.qX3.5.4.3.2.C h M i.U.U.U.U.U.y.K  .S }  .m m d K.U.U.U.U.x.y.M W.) O.2.1.3.2.3.5.+.F 7.*.h /.m     ",
"      + H 7.O.@.rXyXtX6.5.2.@.H 3 ) XXc i.c.c.x.c.B oXiXoX..!.:XoXN.y.x.c.c.c.y.N >X+Xp O.<.4.5.5.eXyXrX<.F 2.Z { D     ",
"      O %.%.9 5.yXtXeX3.@.a { ^.(._ B.N.w h j j j i [ W.1XpXiXoX} ) e M j h h w Z.,X_ S { D H $.1.qXtXyXrXO.O.%.p       ",
"      O G 9 O.qXeXwX3.@.a (.6X6X7X>X_ S Z ^ ^ W W W p k C.E.C.} p Z W ^ ^ ^ ( W ] ' ^.5X5X$XN.H %.2.qXeXrX$.8 G 3       ",
"        H 9 $.6.4.3.$.p Z.9X4X2X2X2X{ 2 &.>.;.;.;.-.-.&./ / / | =.>.;.=.&.;.>.=.g L 5X3X2X0X9XN.Z $.3.5.5.3.9 9 +       ",
"        3 O.2.5.5.1.G K >X&X_.@X*X/.f &.;.:.;.=.:.;.;.>.>.>.:.=.&./ W Z / =.:.>.| f _.*X$X`.%X>XK ~ 8.4.6.3.@.8         ",
"          8 %.1.1.$.p /.6X>XS.b.b.d / >.;.;.;.&.^ A A Z Z J D C 2 + 8 / =.;.;.-.=.A j N N N.+X8X/.a $.8.4.1.O.O         ",
"          2 H $.$.G m %X4X3X6X+XN.i &.>.&.=.>.=.^ W Z +             3 ^ :.=.( =.>.&.a n.+X5X4X7X&XL G $.$.@.8           ",
"            2 ~ $.C n.<X+X@X&X#XN.p / ( ^ / ( ^ W Z 2                 2 Z / W / &.^ a S.#X<X*X+X<XZ.C $.$.H .           ",
"              8 @.C A.3X_.b.m.n.e C Z Z Z Z C Z 3 +                     + C W W Z Z 3 M B.m.` /.3XH.a $.G O             ",
"                8 p n.%X3X`.` t u A A A A A k p 3                         2 u i g A Q l d n.`.5X&XH.D H 3               ",
"                  X w ' S.J.D.l E.|.Q.Q.Q.Q. .A 3                         3 Q E.Q.Q.Q.!._ m._.{.F.` + O                 ",
"                      2 0 i w k  ...X.X...} Q 3                           4 A ) } } }  .[ a f K f +                     ",
"                            3 p * w l ) ) A 3 3                             3 g o.g a g g u C                           ",
"                            A } ..C... ... .p                               p  .....~.~.E...} +                         ",
"                        2 A ~.|. X X X|.Q. .3                               * ..Q.|. X|.|. X X} 2                       ",
"                        + Z Q Q Q Q Q A k g 2                               2 g Q ) ) ) ) Q Q A 4                       ",
"                            X X .                                                                                       "
};
