/* XPM */
static char *_add5e420fdf4c3a87c1a4592813e6e9lGwPx6rRbTTpUyIu[] = {
/* columns rows colors chars-per-pixel */
"60 60 216 2 ",
"   c None",
".  c #2F1C0D",
"X  c #341A0C",
"o  c #3B1D0A",
"O  c #341D12",
"+  c #381C11",
"@  c #260C08",
"#  c #2E2509",
"$  c #2C2C0B",
"%  c #2D2507",
"&  c #32250B",
"*  c #38270A",
"=  c #26340B",
"-  c #2B340D",
";  c #2B3B0E",
":  c #273A0C",
">  c #32340E",
",  c #35350F",
"<  c #3C2314",
"1  c #3A2716",
"2  c #2D3D11",
"3  c #2C3611",
"4  c #333912",
"5  c #383312",
"6  c #382825",
"7  c #3D3536",
"8  c #411D09",
"9  c #421F10",
"0  c #43210C",
"q  c #4B230B",
"w  c #462206",
"e  c #54260B",
"r  c #5A270A",
"t  c #442413",
"y  c #442B16",
"u  c #442B1A",
"i  c #4A2A17",
"p  c #532D17",
"a  c #4B341C",
"s  c #483319",
"d  c #5C3215",
"f  c #53331B",
"g  c #533B1F",
"h  c #5A381B",
"j  c #632505",
"k  c #6C2C07",
"l  c #6C2D0A",
"z  c #632B0A",
"x  c #7B340B",
"c  c #78340D",
"v  c #623314",
"b  c #693918",
"n  c #743C13",
"m  c #763C18",
"M  c #652F12",
"N  c #432D22",
"B  c #402E29",
"V  c #443322",
"C  c #4A3C2B",
"Z  c #493628",
"A  c #533B22",
"S  c #593A24",
"D  c #433A3C",
"F  c #493935",
"G  c #6A3E22",
"H  c #633B22",
"J  c #29420E",
"K  c #2D4412",
"L  c #2F4A12",
"P  c #314B14",
"I  c #314414",
"U  c #784216",
"Y  c #5B4325",
"T  c #5A4528",
"R  c #564736",
"E  c #4C412F",
"W  c #6C442A",
"Q  c #684628",
"!  c #744424",
"~  c #734B2E",
"^  c #7D4D2C",
"/  c #794523",
"(  c #69512E",
")  c #65512E",
"_  c #6C5433",
"`  c #67543E",
"'  c #765E39",
"]  c #775534",
"[  c #6F4D37",
"{  c #7C653D",
"}  c #544946",
"|  c #595559",
" . c #514B46",
".. c #665C44",
"X. c #604B43",
"o. c #6D644B",
"O. c #6A6147",
"+. c #726A4F",
"@. c #776749",
"#. c #726B52",
"$. c #5C5D62",
"%. c #666468",
"&. c #6C6D71",
"*. c #74757A",
"=. c #757478",
"-. c #706F72",
";. c #82370C",
":. c #83390D",
">. c #8A3B0C",
",. c #863606",
"<. c #893D11",
"1. c #9C450E",
"2. c #92400E",
"3. c #894515",
"4. c #974512",
"5. c #A4490F",
"6. c #AC4B0E",
"7. c #B34E0D",
"8. c #B5500E",
"9. c #BD530E",
"0. c #A54B12",
"q. c #AC4D12",
"w. c #BC5512",
"e. c #B95616",
"r. c #AD5012",
"t. c #A9601B",
"y. c #854923",
"u. c #8B4D24",
"i. c #844F2C",
"p. c #894E2A",
"a. c #8C522A",
"s. c #84502E",
"d. c #935429",
"f. c #825332",
"g. c #825A3B",
"h. c #8B5A38",
"j. c #945B33",
"k. c #AE5B22",
"l. c #81683E",
"z. c #94623E",
"x. c #9A643C",
"c. c #9F6134",
"v. c #A7612E",
"b. c #A66535",
"n. c #B36D37",
"m. c #BB733B",
"M. c #B7713A",
"N. c #BC7024",
"B. c #C4550D",
"V. c #C9580E",
"C. c #C7580E",
"Z. c #C35913",
"A. c #C55811",
"S. c #C8761A",
"D. c #D47D18",
"F. c #CF7A21",
"G. c #C2783D",
"H. c #856C43",
"J. c #8D6743",
"K. c #9A6A45",
"L. c #8B7346",
"P. c #8B7448",
"I. c #95794A",
"U. c #997B52",
"Y. c #A26D44",
"T. c #AB6E42",
"R. c #A8764B",
"E. c #B97D4B",
"W. c #B67745",
"Q. c #B47D52",
"!. c #C57E44",
"~. c #DC831A",
"^. c #9D8451",
"/. c #99814F",
"(. c #BF824E",
"). c #BB8254",
"_. c #B98356",
"`. c #A48555",
"'. c #BC9B6D",
"]. c #BB9D72",
"[. c #AB8A60",
"{. c #CC854A",
"}. c #C78248",
"|. c #D28B4D",
" X c #C48A5A",
".X c #C98A56",
"XX c #D38E53",
"oX c #CD905A",
"OX c #D99254",
"+X c #DD9A5D",
"@X c #D6955B",
"#X c #E29D5E",
"$X c #E3A25F",
"%X c #CB9464",
"&X c #DB9C63",
"*X c #D69A65",
"=X c #E29E60",
"-X c #C6A16C",
";X c #DDA169",
":X c #D4B47E",
">X c #E4A363",
",X c #E9A564",
"<X c #E4A46A",
"1X c #E9A769",
"2X c #EBAA6A",
"3X c #E8A869",
"4X c #EAAB71",
"5X c #F0B174",
"6X c #787C82",
"7X c #7E8287",
"8X c #83868B",
"9X c #91959B",
"0X c #8D9096",
"qX c #959AA1",
"wX c #DAB784",
"eX c #EABF92",
/* pixels */
"                                                                                                                        ",
"                                                                                                                        ",
"                                                                                                                        ",
"                                                                                                                        ",
"                                                                                                                        ",
"                                                  H g.K.J.~ S                                                           ",
"                                              u K.&X3X3X3X<X%XR.~ <                                                     ",
"                                            + K.2X,X>X>X>X>X,X3X<X).W                                                   ",
"                                            ~ <X>X<X>X$X>X>X>X>X>X2X;Xz.<                                               ",
"                                          X _.3X$X>X>X>X>X$X>X>X>X>X>X4XJ.                                              ",
"                                          h &X>X>X>X>X,X=X>X,X2X2X2X,X>X*Xf                                             ",
"                                          ^ 1X>X>X>X,XXXG.=XoXn.W.(.&X,X2Xg.                                            ",
"                                          z.2X>X3X#X|.m.m.@Xy.1.0.4.y. X X3.n t                                         ",
"                                          j.3X<XE.b.n.M.{.}.M 1.w.Z.6.p.y.0.4.q                                         ",
"                                          u.OXW.j.)..XXX#X{.u.M l k l v v r y                                           ",
"                                        0 y.G.u.h.m  X1X$X+X!.a.e p d ! g.[                                             ",
"                                      ] T.m n.y.j.u.W.2X,X2X|.b.a. X@X<X5XeXJ.                                          ",
"                                    . K.#Xd.v.a.c.OXXX}.b. X1X{.d..XOXOX>X<XJ.                                          ",
"                                O 5 I 5 x.W.m.b.u.T.k.8.1.m Y.W.b ! j.m a.y.z <                                         ",
"                              1 4 P P K , h d.M.v.1.9.B.V.7.>.l c x x >.,.:.0.4.                                        ",
"                            X & ; ; I P P 2 > f v q.V.B.B.V.w.>.w.9.9.A.e.:.0.V.c                                       ",
"                          X f Q Q f * 4 P P P K & <.A.B.B.Z.<.5.V.B.B.r.x r l 5.q.t                                     ",
"                        t K.&X<X<X&XQ.h > P P P > z w.B.B.7.x w.B.8.>.j k 0.,.j :.d                                     ",
"                      X Y.2X$X>X>X>X2X Xs K P P 2 0 6.B.C.1.x w.1.k j ;.7.B.B.1.k w                                     ",
"                      W <X>X>X>X>X>X>X2X] - P L K # ;.Z.B.>.x 2.j c 5.B.B.B.B.Z.8.k                                     ",
"                      K.2X>X>X>X>X,X>X2XY.$ P L K $ r 6.V.2.k z >.8.B.B.B.B.B.B.V.1.+                                   ",
"                    < W.3X>X>X<X>X>X>X2XQ.5 P P L - * >.B.6.j >.8.B.B.w.B.B.B.B.V.1.X                                   ",
"                    u n.>X>X>X>X>X>X>X2XE.5 L L L : # r 6.w.1.6.B.B.B.B.B.B.B.B.C.>.                                    ",
"                    < c.#X>X>X>X>X>X>X2Xx.$ P L L J = * ;.8.9.9.B.B.B.B.B.B.B.B.C.c                                     ",
"                      ^ XX>X>X>X<X>X3X&XG 4 P L P L : $ q 2.7.B.B.B.9.B.B.B.B.B.e.e                                     ",
"                      H M.+X,X>X<X,X#Xb.q 4 P L L L K = # e 2.7.B.B.B.B.B.B.B.Z.;.o                                     ",
"                      i v.!.$X>X>X@XM.b.Q.s K P L L P : = & e ;.5.7.9.9.B.9.r.c o $                                     ",
"                      H M.{.>X>X>X+XOX;X5Xz.$ P L L L L J = $ * z ;.2.4.4.x e & - >                                     ",
"                      ! !.=X>X>X>X,X3X$X3X Xs K L L L L L K : = % * w e w * # - K 1                                     ",
"                      m {.,X>X>X>X>X>X>X>X<XQ ; P L L P P P K J : = = $ - ; J P 4 O                                     ",
"                      b }.>X>X>X>X,X>X<X>X1X~ - P P P P L P P P P 2 - > > ; P I <                                       ",
"                      p m.#X,X,X,X<X>X>X>X1Xf.$ P K 2 2 2 3 - ; > g U.].'._ > & <                                       ",
"                      t b.|.,X+X&X2X3X,X2X<Xb X 1 d b n n n U U e `.wXH.].wXi N F .                                     ",
"                        p.G.+X@Xx.R.oXoX).f.o D N 3.F.D.~.D.~.F.y.-XU.@ f [.8 6 F t X                                   ",
"                        d n.!.>X@Xx.i.i.f.f F | 6 9 b 3.t.S.D.S.U R.-XK.~ ~ f t Q x._.W                                 ",
"                          / m.{.>X2X3X*Xh.R &.D 6 D N z.! 3.N.N.m W :XwX'.'.g.8 %Xi.i.~ O                               ",
"                          9 a.m.{.&XE.W } -. .7 | $.D f.*Xv v b v 0 a I.wX:XQ < ] ^ ).! X                               ",
"                            0 ! / W } =.&.D 7 | *.$.| F ~ q V C A A V A Y A 1 } 6 f.).Y.g.                              ",
"                            O F | &.=.%.D D %.6X*.&.$.D G K.A #.+.+.+.O.O.o.C u ] ^ G ;X;Xf                             ",
"                              F  .D D D $.8X7X*.*.*.$.N  X@Xf ......o.+.+.+.s ^ *XY.b x.%Xf                             ",
"                              O . 6 | *.qXqX0X6X*.-.F ~ *Xj.y s V R O.+.+.o.u h.Q.W.*XG i                               ",
"                                + Z %.6X8X9X9X8X&.D W R.b f R u E o.+.o.+...1 8 z.4X5XY.                                ",
"                                < < B $.*.7X6X| Z ~ &X(.q R C V X.o.` o...C t K.^ ^ _.~                                 ",
"                                  < 1 6 } } F S z.).W.b V V 1 C C C C R E u Q.5X%Xf +                                   ",
"                                    O t < 0 a..XE.z q o u y g Y Y Y Y A 1 p _.1X;XG                                     ",
"                                      g ' _ ! ! b Q P.( y T H.U.U.I.I.H.A   < ~ ~                                       ",
"                                      u Y ( T Y _ ' ) a s A Y ( _ ' ' A 1                                               ",
"                                        N g ] P.L.T o t ` a s ( l.H.( g Q _ Q u                                         ",
"                                        a _ ^.H.Q ] H.L.H._ s l.^.I.L./.^.^.^.H.s                                       ",
"                                        a ) { ' { L.L.P.I.P.A g H.H.H.@.{ { { ' a                                       ",
"                                        y A A A A A A g A A a < s s y y u u u y <                                       ",
"                                                                                                                        ",
"                                                                                                                        ",
"                                                                                                                        ",
"                                                                                                                        "
};
