/* XPM */
static char *b2ac75ec0fe0444987dc27d21304269d5MgRHPVeeq4gNSFA[] = {
/* columns rows colors chars-per-pixel */
"60 60 216 2 ",
"   c None",
".  c #2F1C0D",
"X  c #341A0C",
"o  c #3B1D0A",
"O  c #341D12",
"+  c #381C11",
"@  c #260C08",
"#  c #2E2509",
"$  c #2C2C0B",
"%  c #2D2507",
"&  c #32250B",
"*  c #38270A",
"=  c #26340B",
"-  c #2B340D",
";  c #2B3B0E",
":  c #273A0C",
">  c #32340E",
",  c #35350F",
"<  c #3C2314",
"1  c #3A2716",
"2  c #2D3D11",
"3  c #2C3611",
"4  c #333912",
"5  c #383312",
"6  c #382825",
"7  c #3D3536",
"8  c #411D09",
"9  c #421F10",
"0  c #43210C",
"q  c #4B230B",
"w  c #462206",
"e  c #54260B",
"r  c #5A270A",
"t  c #442413",
"y  c #442B16",
"u  c #442B1A",
"i  c #4A2A17",
"p  c #532D17",
"a  c #4B341C",
"s  c #483319",
"d  c #5C3215",
"f  c #53331B",
"g  c #533B1F",
"h  c #5A381B",
"j  c #632505",
"k  c #6C2C07",
"l  c #6C2D0A",
"z  c #632B0A",
"x  c #7B340B",
"c  c #78340D",
"v  c #623314",
"b  c #693918",
"n  c #743C13",
"m  c #763C18",
"M  c #652F12",
"N  c #432D22",
"B  c #402E29",
"V  c #443322",
"C  c #4A3C2B",
"Z  c #493628",
"A  c #533B22",
"S  c #593A24",
"D  c #433A3C",
"F  c #493935",
"G  c #6A3E22",
"H  c #633B22",
"J  c #29420E",
"K  c #2D4412",
"L  c #2F4A12",
"P  c #314B14",
"I  c #314414",
"U  c #784216",
"Y  c #5B4325",
"T  c #5A4528",
"R  c #564736",
"E  c #4C412F",
"W  c #6C442A",
"Q  c #684628",
"!  c #744424",
"~  c #734B2E",
"^  c #7D4D2C",
"/  c #794523",
"(  c #69512E",
")  c #65512E",
"_  c #6C5433",
"`  c #67543E",
"'  c #765E39",
"]  c #775534",
"[  c #6F4D37",
"{  c #7C653D",
"}  c #544946",
"|  c #595559",
" . c #514B46",
".. c #665C44",
"X. c #604B43",
"o. c #6D644B",
"O. c #6A6147",
"+. c #726A4F",
"@. c #776749",
"#. c #726B52",
"$. c #5C5D62",
"%. c #666468",
"&. c #6C6D71",
"*. c #74757A",
"=. c #757478",
"-. c #706F72",
";. c #82370C",
":. c #83390D",
">. c #8A3B0C",
",. c #863606",
"<. c #893D11",
"1. c #9C450E",
"2. c #92400E",
"3. c #894515",
"4. c #974512",
"5. c #A4490F",
"6. c #AC4B0E",
"7. c #B34E0D",
"8. c #B5500E",
"9. c #BD530E",
"0. c #A54B12",
"q. c #AC4D12",
"w. c #BC5512",
"e. c #B95616",
"r. c #AD5012",
"t. c #A9601B",
"y. c #854923",
"u. c #8B4D24",
"i. c #844F2C",
"p. c #894E2A",
"a. c #8C522A",
"s. c #84502E",
"d. c #935429",
"f. c #825332",
"g. c #825A3B",
"h. c #8B5A38",
"j. c #945B33",
"k. c #AE5B22",
"l. c #81683E",
"z. c #94623E",
"x. c #9A643C",
"c. c #9F6134",
"v. c #A7612E",
"b. c #A66535",
"n. c #B36D37",
"m. c #BB733B",
"M. c #B7713A",
"N. c #BC7024",
"B. c #C4550D",
"V. c #C9580E",
"C. c #C7580E",
"Z. c #C35913",
"A. c #C55811",
"S. c #C8761A",
"D. c #D47D18",
"F. c #CF7A21",
"G. c #C2783D",
"H. c #856C43",
"J. c #8D6743",
"K. c #9A6A45",
"L. c #8B7346",
"P. c #8B7448",
"I. c #95794A",
"U. c #997B52",
"Y. c #A26D44",
"T. c #AB6E42",
"R. c #A8764B",
"E. c #B97D4B",
"W. c #B67745",
"Q. c #B47D52",
"!. c #C57E44",
"~. c #DC831A",
"^. c #9D8451",
"/. c #99814F",
"(. c #BF824E",
"). c #BB8254",
"_. c #B98356",
"`. c #A48555",
"'. c #BC9B6D",
"]. c #BB9D72",
"[. c #AB8A60",
"{. c #CC854A",
"}. c #C78248",
"|. c #D28B4D",
" X c #C48A5A",
".X c #C98A56",
"XX c #D38E53",
"oX c #CD905A",
"OX c #D99254",
"+X c #DD9A5D",
"@X c #D6955B",
"#X c #E29D5E",
"$X c #E3A25F",
"%X c #CB9464",
"&X c #DB9C63",
"*X c #D69A65",
"=X c #E29E60",
"-X c #C6A16C",
";X c #DDA169",
":X c #D4B47E",
">X c #E4A363",
",X c #E9A564",
"<X c #E4A46A",
"1X c #E9A769",
"2X c #EBAA6A",
"3X c #E8A869",
"4X c #EAAB71",
"5X c #F0B174",
"6X c #787C82",
"7X c #7E8287",
"8X c #83868B",
"9X c #91959B",
"0X c #8D9096",
"qX c #959AA1",
"wX c #DAB784",
"eX c #EABF92",
/* pixels */
"                                                                                                                        ",
"                                                                                                                        ",
"                                                                                                                        ",
"                                                                                                                        ",
"                                                                                                                        ",
"                                                          S ~ J.K.g.H                                                   ",
"                                                    < ~ R.%X<X3X3X3X&XK.u                                               ",
"                                                  W ).<X3X,X>X>X>X>X,X3XK.+                                             ",
"                                              < z.;X3X>X>X>X>X>X$X>X>X>X<X~                                             ",
"                                              J.4X>X>X>X>X>X$X>X>X>X>X$X3X).X                                           ",
"                                            f *X>X>X2X3X3X,X>X=X,X>X>X>X>X&Xh                                           ",
"                                            g.2X,X&X(.W.n.oX=XG.XX>X>X>X>X1X^                                           ",
"                                        t n 3. X Xy.4.0.1.y.@Xm.m.|.#X,X>X3Xz.                                          ",
"                                        q 4.0.y.p.6.Z.w.1.M }.{.n.n.b.E.<X,Xj.                                          ",
"                                          i r v v l k l M u.{.#XXX.X).h.W.OXu.                                          ",
"                                            [ g.! d p e a.!.+X$X1X Xm h.u.G.y.0                                         ",
"                                          J.eX5X>X@X Xa.b.|.3X,X2XW.u.j.y.n.m T.]                                       ",
"                                          J.<X>XOXOX.Xd.{.1X Xb.}.XXOXc.a.v.d.#XK.X                                     ",
"                                        < z y.a.m j./ b W.Y.m 1.8.k.T.u.b.m.W.x.5 I 5 O                                 ",
"                                        4.0.:.,.:.c x c l >.7.V.B.9.1.v.m.d.h , L P P 4 1                               ",
"                                      n V.0.:.e.A.9.9.w.>.w.V.B.B.V.q.v f > 2 P P I ; - & X                             ",
"                                    t q.5.l r c r.B.B.V.5.<.Z.B.B.A.<.& L P P P 4 * f Q W f X                           ",
"                                    d :.j ,.0.k j >.8.B.w.c 7.B.B.w.z > P P P > h Q.&X>X<X&XK.t                         ",
"                                    q k 1.B.B.7.:.j k 1.w.x 1.C.B.6.w 2 P P L s oX2X>X>X>X>X2XY.X                       ",
"                                    k 8.Z.B.B.B.B.5.c j 2.x >.B.Z.;.# K L P - ] 3X>X>X>X>X>X>X<XW                       ",
"                                  + 1.V.B.B.B.B.B.B.8.>.j k 2.V.6.r $ L L P $ Y.2X>X>X>X>X>X>X3XK.                      ",
"                                  X 1.V.B.B.B.B.w.B.B.8.>.j 6.B.>.* - L P P 5 Q.2X>X>X>X>X>X>X,XW.<                     ",
"                                    >.C.B.B.B.B.B.B.B.B.6.1.w.6.r # ; L L L 5 E.2X>X>X>X>X>X>X>XM.u                     ",
"                                    n C.B.B.B.B.B.B.B.B.B.9.8.:.* = J L L P $ x.3X>X>X>X>X>X>X#Xc.<                     ",
"                                    e e.B.B.B.B.B.9.B.B.B.7.2.q $ : L P L P 4 G &X,X>X>X>X>X>XXX^                       ",
"                                    o ;.Z.B.B.B.B.B.B.B.7.2.e # = K L L L P 4 q b.#X,X>X>X>X+XM.H                       ",
"                                    $ o c r.9.B.9.9.7.5.:.e & = ; P L L P K s Q.b.m.@X>X>X$X!.v.i                       ",
"                                    > - & e x 4.4.2.;.z * $ = J L L L L P $ z.5X>X@X+X>X>X>X}.M.H                       ",
"                                    1 K ; # & w e q * % = : K P L L L L I s oX,X>X,X,X>X>X>X=X!.!                       ",
"                                    O 4 P J ; - $ - = : J L P P L L L P - Q >X>X>X>X>X>X>X>X,X{.m                       ",
"                                      1 I P - > > - 2 P P P P L L P P P - ~ 1X>X>X>X>X>X>X>X>X}.b                       ",
"                                      < & 5 ] '.].U.g > ; - 3 2 2 2 K P $ f.1X>X>X>X>X,X,X>X#Xm.p                       ",
"                                    . F N i wX].H.wX`.e U U n n n b d 1 X b <X2X,X,X2X&X+X,X|.b.t                       ",
"                                  X t F B 8 [.f @ U.-Xy.F.~.D.~.D.F.3.N D o f.).oXoXR.x.@X+XG.p.                        ",
"                                W _.x.Q t f ~ ~ K.-XR.U S.D.S.t.3.b 9 6 | F f f.i.i.x.@X>X!.n.d                         ",
"                              O ~ s.i.%X8 g.'.'.wX:XW m N.N.3./ z.N D 6 D %.R h.*X3X2X>X{.m./                           ",
"                              X ! ).^ ] < Q :XwXI.a 0 d b v v *Xf.D $.| 7  .-.} W E.&X}.m.a.9                           ",
"                              g.T.).f.6 } 1 A Y A V A Z C V i ~ F | $.*.| 7 D &.=.X.W / ! 0                             ",
"                            p ;X;XG ^ ] u C o.O.O.+.+.+.+.A K.W D $.-.*.6X%.D D %.=.-.| F O                             ",
"                            f %Xx.b Y.*X^ a #.+.+.o.......f @X XN $.*.*.*.7X8X| D D D  .F                               ",
"                              i G *XW.Q.h.u o.+.+.O.R V u u j.*X~ F =.*.6X0XqXqX*.| 6 . O                               ",
"                                Y.5X4Xz.8 1 ..+.o.+.o.E u R f b R.W D &.8X9X9X8X6X%.B +                                 ",
"                                ~ ).^ ^ K.t C ..o.` o.X.V C R q (.&X~ Z | 6X7X*.$.B < <                                 ",
"                                  + p %X5XQ.u E R C C C C 1 V V b W.).z.S F } } 6 1 <                                   ",
"                                    G ;X1X_.p 1 A S Y Y Y g y u o q z E..Xa.0 < t O                                     ",
"                                      ~ ~ <   A H.I.I.U./.H.T y ( P.Q b ! ! _ ' g                                       ",
"                                              1 A ' ' _ ( Y A a a ) ' _ Y Y ( Y u                                       ",
"                                        u Q _ Q g ( H.l.( s a ` t o Y L.P.] g N                                         ",
"                                      a H.^.^.^./.L.I.^.l.s _ H.L.H.] Q L.^._ a                                         ",
"                                      a ' { { { @.H.H.H.g A P.I.P.P.P.{ ' { ( a                                         ",
"                                      < y u u u i i u s < a A A g A A A A A A y                                         ",
"                                                                                                                        ",
"                                                                                                                        ",
"                                                                                                                        ",
"                                                                                                                        "
};
