/* XPM */
static char *_6234ec34e42432df3629788f7ffc22eBkj3pwrjZWms4UMY[] = {
/* columns rows colors chars-per-pixel */
"60 60 208 2 ",
"   c None",
".  c #0A0404",
"X  c #0F0709",
"o  c #060505",
"O  c #11050A",
"+  c #140B0C",
"@  c #1B0B0D",
"#  c #190604",
"$  c #0A0B10",
"%  c #1A0E12",
"&  c #170F14",
"*  c #151213",
"=  c #1A1315",
"-  c #1D1519",
";  c #1B191A",
":  c #161A1E",
">  c #270A0A",
",  c #2D170E",
"<  c #3C1107",
"1  c #340F12",
"2  c #221412",
"3  c #201D1D",
"4  c #2B1915",
"5  c #341316",
"6  c #392219",
"7  c #171923",
"8  c #1B1D20",
"9  c #1E222D",
"0  c #252424",
"q  c #2D2425",
"w  c #2D262A",
"e  c #2D2A2B",
"r  c #2D2A26",
"t  c #3C2625",
"y  c #392823",
"u  c #332729",
"i  c #342A2A",
"p  c #3C2C2B",
"a  c #362B22",
"s  c #3F332E",
"d  c #31312E",
"f  c #212531",
"g  c #242931",
"h  c #2A2D36",
"j  c #2D2535",
"k  c #312E31",
"l  c #2E353B",
"z  c #343435",
"x  c #3B3536",
"c  c #343439",
"v  c #3B3538",
"b  c #3B3A3B",
"n  c #373939",
"m  c #53110A",
"M  c #441212",
"N  c #431C1A",
"B  c #481918",
"V  c #541C1A",
"C  c #481A0E",
"Z  c #62181A",
"A  c #45221A",
"S  c #4C221B",
"D  c #462B1C",
"F  c #53251C",
"G  c #58291A",
"H  c #593015",
"J  c #6A2A1A",
"K  c #652618",
"L  c #75261C",
"P  c #6C321A",
"I  c #7C341D",
"U  c #401D20",
"Y  c #521D21",
"T  c #492B27",
"R  c #5A2D22",
"E  c #542828",
"W  c #43312A",
"Q  c #4B352A",
"!  c #543327",
"~  c #5A372F",
"^  c #432E32",
"/  c #423334",
"(  c #423A3B",
")  c #493A3D",
"_  c #463638",
"`  c #523934",
"'  c #533B3A",
"]  c #662C25",
"[  c #742521",
"{  c #693928",
"}  c #753729",
"|  c #6A3538",
" . c #773C3A",
".. c #3B433C",
"X. c #6F401C",
"o. c #59412D",
"O. c #43413E",
"+. c #484132",
"@. c #55413B",
"#. c #784826",
"$. c #674835",
"%. c #704435",
"&. c #79453B",
"*. c #734B3E",
"=. c #7C4E39",
"-. c #7E533C",
";. c #3B3C4B",
":. c #503F43",
">. c #453D46",
",. c #2C4548",
"<. c #434040",
"1. c #4C4544",
"2. c #4D4D4D",
"3. c #44454F",
"4. c #534C4E",
"5. c #584846",
"6. c #5F5347",
"7. c #444451",
"8. c #434F5A",
"9. c #504E51",
"0. c #4F565A",
"q. c #535252",
"w. c gray35",
"e. c #644B48",
"r. c #784A41",
"t. c #785648",
"y. c #675758",
"u. c #7B5C51",
"i. c #6B5449",
"p. c #7C654B",
"a. c #63635D",
"s. c #4B5C6A",
"d. c #505F68",
"f. c #5F6B6D",
"g. c #646464",
"h. c #6E6C6E",
"j. c #86301C",
"k. c #923A1A",
"l. c #8A3D21",
"z. c #853B28",
"x. c #803F30",
"c. c #95441A",
"v. c #B0501D",
"b. c #8B4427",
"n. c #934926",
"m. c #8B4B34",
"M. c #8E5839",
"N. c #945538",
"B. c #974D3A",
"V. c #A24D22",
"C. c #B34D22",
"Z. c #A85729",
"A. c #B3562B",
"S. c #A75836",
"D. c #B75732",
"F. c #9F633D",
"G. c #B4653A",
"H. c #C2571D",
"J. c #C45726",
"K. c #CC5E24",
"L. c #C75E26",
"P. c #C45C33",
"I. c #C85A33",
"U. c #CE622A",
"Y. c #C56228",
"T. c #D56725",
"R. c #CD7327",
"E. c #C46636",
"W. c #CB6F30",
"Q. c #D67431",
"!. c #CD6F38",
"~. c #E16D26",
"^. c #E66F38",
"/. c #E2783A",
"(. c #825A4D",
"). c #8A5140",
"_. c #9F5D4A",
"`. c #8E5F50",
"'. c #94694D",
"]. c #9C6844",
"[. c #94714E",
"{. c #83645C",
"}. c #856456",
"|. c #976952",
" X c #916E50",
".X c #A26A41",
"XX c #BA7E5D",
"oX c #806B63",
"OX c #8A7A67",
"+X c #AB7C63",
"@X c #DC8035",
"#X c #A9806E",
"$X c #B88969",
"%X c #BC9770",
"&X c #C88B5B",
"*X c #C28F6F",
"=X c #CB9170",
"-X c #D89C74",
";X c #E09465",
":X c #EBA979",
">X c #CFB48C",
",X c #D8BC82",
"<X c #E4A987",
"1X c #EBB081",
"2X c #FFBE88",
"3X c #EEBD95",
"4X c #FAC899",
"5X c #FFDCA9",
/* pixels */
"                                                                                                                        ",
"                                                                                                                        ",
"                                                                                                                        ",
"                                                                                                                        ",
"                                                                                                                        ",
"                                                                                                                        ",
"                                                                                                                        ",
"                                                                                                                        ",
"                                                                                                                        ",
"                                                                                                                        ",
"                                                                                                                        ",
"                                                                                                                        ",
"                                                                                                                        ",
"                                                                                                                        ",
"                                                                                                                        ",
"                                                                  {.%X,X>XOX                                            ",
"                                                                6.*X2X:X3Xu.                                            ",
"                                                                u.<X-X-X! W oX                                          ",
"                                                                u.<X&X:Xt.[.$X                                          ",
"                                                                  #X=X;X1X&X4X                                          ",
"                                                                  i.y $._. Xp.                                          ",
"                                                                y.[.T ( *.'.5X                                          ",
"  1.X w                                                 2.X N x.G Q         $.                                          ",
"    x = X q                                           y Y l.b.m.n.6                                                     ",
"        n - O w                                   p S l.J.T.@XJ A.{                                                     ",
"            x - + w                           ) V k.J.^.R.!.z.I /.{                                                     ",
"                ( % X q                     5.} Y.U.!.Z.D @ G J.W.r.W                                                   ",
"                    n ; . u               6.> S J E.#.# M L v.~.M.W #X                                                  ",
"                        v - + q           > F } N.N @ Y [ C.T.S.  6.|.                                                  ",
"                            b = + w     n , m.#.F.&.@ J l.U.G.1.    t.}.                                                ",
"                                e 3 . w   t R #.#..XA Z V.Q.-.      y.`.                                                ",
"                                    x - + + @ H X.].&.M C.E.)         '.}.                                              ",
"                                        x ; & @ , F M.%.b.G.          }.u.                                              ",
"                                            w + % @ 4 =.T /             |.                                              ",
"                                              . . 6 %.A 2 ..            (.(.                                            ",
"                                            @.] B B F | 4 o t _ 5.      i.+X                                            ",
"                                            x.n.m Y 5 1 1 % 2 , 6 <.      '.                                            ",
"                                          ` D.I.V.P B V [ E 1 # + X       (.                                            ",
"                                          z.K.H.T.P.L V C V T - 8 - * q   t.}.                                          ",
"                                        e.C.K.K.I.j.K F B p   b ) e $ = . '.$X                                          ",
"                                        { T.K.k.K N t s       w 2 ` 3   i XX4Xy                                         ",
"                                      ~ P.c.P ^ z             ;.8.q       *.+X4 O q                                     ",
"                                      t D ' x               w y.4.              v = + i                                 ",
"                                    O.x ' +.                { G.`                   ( = X w                             ",
"                                    o.S.B.:.                G D.W                       b * + 0                         ",
"                                  z 5 N.%.                ( A ~                             z = * w                     ",
"                                c l d.7                   0 s r                                 z : 7 f e 1.            ",
"                                ;.8.0.                    q g f.                                    9 f 9     <.        ",
"                              n ,.l q.                    h s.7.s                                     3.7.3.h.q.a.      ",
"                              g 7.b                       l >.E &.'                                     g.w.2.  9.g.    ",
"                            z | } 1.                      e > < R E /                                       2.b h.g.    ",
"                            a ).!                           i d i / x                                             4.    ",
"                            u W ;.                                                                                      ",
"                            h d.j k                                                                                     ",
"                            z O.F @.                                                                                    ",
"                            0 > ]  .E )                                                                                 ",
"                              % U  .r.e.                                                                                ",
"                                                                                                                        ",
"                                                                                                                        ",
"                                                                                                                        "
};
