/* XPM */
static char *_370cf038b5b42f582f0574e9a842eceVn7ZWLWJuiKplASv[] = {
/* columns rows colors chars-per-pixel */
"60 60 201 2 ",
"   c None",
".  c #050203",
"X  c #0B0404",
"o  c #0D0A0B",
"O  c #08030C",
"+  c #1D0A04",
"@  c #140C0D",
"#  c #1C0C0D",
"$  c #150507",
"%  c #13110F",
"&  c #0E0912",
"*  c #150E12",
"=  c #1B0E13",
"-  c #190E19",
";  c #161213",
":  c #1B1213",
">  c #14131C",
",  c #1C151B",
"<  c #1F1A1D",
"1  c #17181B",
"2  c #220F0E",
"3  c #2A0D0D",
"4  c #300F0C",
"5  c #2C1A0F",
"6  c #2B130F",
"7  c #3B150F",
"8  c #220911",
"9  c #330E13",
"0  c #3B0E14",
"q  c #231314",
"w  c #2B1513",
"e  c #2D1B16",
"r  c #23151B",
"t  c #2C1518",
"y  c #2B1F1D",
"u  c #231C1B",
"i  c #311613",
"p  c #331D1C",
"a  c #3C1C1D",
"s  c #391618",
"d  c #1C221F",
"f  c #3D2219",
"g  c #1A1A24",
"h  c #1E1126",
"j  c #221C20",
"k  c #291D22",
"l  c #291B27",
"z  c #331B23",
"x  c #3A1D22",
"c  c #1C2229",
"v  c #2E2427",
"b  c #2B2629",
"n  c #242127",
"m  c #3C2924",
"M  c #362527",
"N  c #2B2C36",
"B  c #283139",
"V  c #3B343B",
"C  c #32323A",
"Z  c #460E0F",
"A  c #4B150A",
"S  c #411615",
"D  c #431E1D",
"F  c #4C1B19",
"G  c #4F1518",
"H  c #541D1B",
"J  c #571A15",
"K  c #611B17",
"L  c #44241B",
"P  c #4C241A",
"I  c #46291C",
"U  c #482116",
"Y  c #54221B",
"T  c #532B1E",
"R  c #5B2A1A",
"E  c #58301B",
"W  c #6B2B17",
"Q  c #732516",
"!  c #6B351B",
"~  c #74361D",
"^  c #591C22",
"/  c #452622",
"(  c #4C2626",
")  c #4B2921",
"_  c #472E2A",
"`  c #552323",
"'  c #5A2B25",
"]  c #532B27",
"[  c #423028",
"{  c #5C3223",
"}  c #5A322C",
"|  c #492D31",
" . c #4A3133",
".. c #4A3838",
"X. c #5C3534",
"o. c #573932",
"O. c #6D2621",
"+. c #632F29",
"@. c #732B29",
"#. c #6A3826",
"$. c #793A26",
"%. c #663C39",
"&. c #743A37",
"*. c #7A451B",
"=. c #514338",
"-. c #6C412C",
";. c #774C2C",
":. c #7C4426",
">. c #6D4C3B",
",. c #684337",
"<. c #714731",
"1. c #76463B",
"2. c #754C3D",
"3. c #7A4A38",
"4. c #7A5137",
"5. c #3B3A43",
"6. c #323846",
"7. c #354955",
"8. c #4D4347",
"9. c #4A444A",
"0. c #454F4F",
"q. c #54464A",
"w. c #48504F",
"e. c #504755",
"r. c #4C5158",
"t. c #754A42",
"y. c #7E4F43",
"u. c #6F5A4D",
"i. c #795345",
"p. c #675550",
"a. c #4D5E6A",
"s. c #4F626A",
"d. c #5F656F",
"f. c #8D371C",
"g. c #95381E",
"h. c #8D3B2C",
"j. c #873D2F",
"k. c #953E24",
"l. c #B24518",
"z. c #8A462A",
"x. c #9D4A2B",
"c. c #954525",
"v. c #995E28",
"b. c #854E36",
"n. c #945235",
"m. c #95553B",
"M. c #B14E2C",
"N. c #A9562E",
"B. c #B3542A",
"V. c #BB5726",
"C. c #BA5A38",
"Z. c #80633F",
"A. c #9E643A",
"S. c #AF6331",
"D. c #B96735",
"F. c #C35719",
"G. c #C55527",
"H. c #CB5C23",
"J. c #C1582B",
"K. c #CD5D2C",
"L. c #C45A30",
"P. c #CB632B",
"I. c #D46124",
"U. c #D56F2B",
"Y. c #D96C29",
"T. c #CC772A",
"R. c #C36C3A",
"E. c #C76836",
"W. c #CB7330",
"Q. c #DE7D3A",
"!. c #E26E22",
"~. c #E0722F",
"^. c #8C5B46",
"/. c #985C48",
"(. c #8E5E50",
"). c #8E6542",
"_. c #9F6944",
"`. c #8E704F",
"'. c #816755",
"]. c #936551",
"[. c #987156",
"{. c #A06E54",
"}. c #A36E58",
"|. c #A6765B",
" X c #B57A71",
".X c #B58565",
"XX c #C5825B",
"oX c #DE945E",
"OX c #C18968",
"+X c #C5946A",
"@X c #D08D72",
"#X c #D99B76",
"$X c #EAA979",
"%X c #EDB07E",
"&X c #D8B689",
"*X c #E0AA81",
"=X c #E5B989",
"-X c #FFBD8B",
";X c #ECC08F",
":X c #FAC695",
">X c #FDD3A0",
/* pixels */
"                                                                                                                        ",
"                                                                                                                        ",
"                                                                                                                        ",
"                                                                                                                        ",
"                                                                                                                        ",
"                                                                                                                        ",
"                                                                                                                        ",
"                                                                                                                        ",
"                                                                                                                        ",
"                                                                                                                        ",
"                                                                                                                        ",
"                                                                                                                        ",
"                                                                                                                        ",
"                                                                                                                        ",
"                                                                                                                        ",
"                                            u.&X=X+Xo.                                                                  ",
"                                            '.;X$X-X+Xo.                                                                ",
"                                          '.[ { #X#X=X>.                                                                ",
"                                          .X[.i.$XXX*X2.                                                                ",
"                                          :X+X%XoX@X X                                                                  ",
"                                          Z.`./.>.m }                                                                   ",
"                                        -.>X).%.  D }. .                                                                ",
"                                          >.        I { :.U X                                                   @ : :   ",
"                                                    i x.z.z.f.Y 2                                           * * = @     ",
"                                                    { J.E Q.I.V.h.P w                                   : @ : *         ",
"                                                  h ! Q.~ :.W.U.~.G.k.H t                           # q * @             ",
"                                                  z i.T.H.J @ I v.E.K.P.$.z                     : @ ; @                 ",
"                                                  |.[ n.!.V.@.S $ -.D.W P 0 x               = @ * @                     ",
"                                                w |./  .S.U.B.Q ^ 8 f ^.-.P 6           = = : o                         ",
"                                                t.3.    p D.P.g.O.# 1.A.*.b.i     , : @ * @                             ",
"                                                ].]       ;.T.l.K f _.:.;.{ #   = @ * @                                 ",
"                                              y.^.        q R.M.Z 1._.$.E + o @ : @                                     ",
"                                              1.i.          D.z.<.m.) 5 + : * -                                         ",
"                                            / }.            m ) 4.5 # @ ; *                                             ",
"                                            4.<.          M b q F &.a . X                                               ",
"                                            .XL       v D L . r &.( G G +.]                                             ",
"                                            {.(     # m e 2 3 w 9 i J A z.$.                                            ",
"                                          t.1.    @ $ @ @ t Y O.^ G ! x.K.L.p                                           ",
"                                          (.,.  # : , j X s ` F J Q C.I.F.H.j.                                          ",
"                                          OX].o ; o b 8.:   = s Y W f.G.K.H.B.D                                         ",
"                                        m :XOX#   =  .u =       q w 7 W g.K.Y.~                                         ",
"                                    q & y |.{       # w.6.>           = 9 #.c.E.P                                       ",
"                                r = @ 1               q.p.k               r %.T w                                       ",
"                            * = @ *                   a R.{                 [ =.V 1                                     ",
"                        @ * ; o                       t J.R                 l n.N.T                                     ",
"                    ; < @ *                             ' ) ,                 #.m.a >                                   ",
"            , 1 > g 1 *                                 r ..%                   * a.6.;                                 ",
"              N N g                                     d.B *                     0.r.V                                 ",
"        v   l N C                                     y 9.s.>                       5.7.*                               ",
"    , k   M < <                                     ] 1.` 8.d                       c e.c                               ",
"    j   ; r                                       | X.} S q @                       # h.X.-                             ",
"    *                                             : : # @ =                           F /.e                             ",
"                                                                                      5. .:                             ",
"                                                                                    O B s.1                             ",
"                                                                                    p ' 8.n                             ",
"                                                                                v x 3.! 3 o                             ",
"                                                                                ,.&.@.4 $                               ",
"                                                                                                                        ",
"                                                                                                                        ",
"                                                                                                                        "
};
